<ttFont>
    <TTGlyph name=".notdef" xMin="177" yMin="0" xMax="1593" yMax="1416">
      <contour>
        <pt x="1593" y="1416" on="1"/>
        <pt x="1593" y="0" on="1"/>
        <pt x="177" y="0" on="1"/>
        <pt x="177" y="1416" on="1"/>
      </contour>
      <contour>
        <pt x="883" y="605" on="1"/>
        <pt x="1220" y="252" on="1"/>
        <pt x="1333" y="365" on="1"/>
        <pt x="985" y="708" on="1"/>
        <pt x="1333" y="1042" on="1"/>
        <pt x="1214" y="1158" on="1"/>
        <pt x="886" y="807" on="1"/>
        <pt x="553" y="1159" on="1"/>
        <pt x="439" y="1043" on="1"/>
        <pt x="783" y="705" on="1"/>
        <pt x="440" y="387" on="1"/>
        <pt x="559" y="252" on="1"/>
      </contour>
    </TTGlyph>
    <TTGlyph name="A" xMin="-42" yMin="0" xMax="1474" yMax="1529">
      <contour>
        <pt x="78" y="160" on="1"/>
        <pt x="540" y="1529" on="1"/>
        <pt x="893" y="1529" on="1"/>
        <pt x="1358" y="159" on="1"/>
        <pt x="1474" y="134" on="1"/>
        <pt x="1474" y="0" on="1"/>
        <pt x="841" y="0" on="1"/>
        <pt x="841" y="134" on="1"/>
        <pt x="985" y="160" on="1"/>
        <pt x="913" y="407" on="1"/>
        <pt x="410" y="407" on="1"/>
        <pt x="340" y="156" on="1"/>
        <pt x="499" y="134" on="1"/>
        <pt x="499" y="0" on="1"/>
        <pt x="-40" y="0" on="1"/>
        <pt x="-42" y="134" on="1"/>
      </contour>
      <contour>
        <pt x="868" y="561" on="1"/>
        <pt x="687" y="1180" on="1"/>
        <pt x="656" y="1321" on="1"/>
        <pt x="625" y="1180" on="1"/>
        <pt x="453" y="561" on="1"/>
      </contour>
    </TTGlyph>
    <TTGlyph name="AE" xMin="-165" yMin="0" xMax="1924" yMax="1522">
      <contour>
        <pt x="813" y="157" on="1"/>
        <pt x="813" y="419" on="1"/>
        <pt x="344" y="419" on="1"/>
        <pt x="247" y="158" on="1"/>
        <pt x="396" y="132" on="1"/>
        <pt x="396" y="0" on="1"/>
        <pt x="-165" y="0" on="1"/>
        <pt x="-165" y="132" on="1"/>
        <pt x="-21" y="160" on="1"/>
        <pt x="479" y="1353" on="1"/>
        <pt x="226" y="1381" on="1"/>
        <pt x="226" y="1522" on="1"/>
        <pt x="1761" y="1522" on="1"/>
        <pt x="1789" y="1168" on="1"/>
        <pt x="1627" y="1168" on="1"/>
        <pt x="1557" y="1368" on="1"/>
        <pt x="1150" y="1387" on="1"/>
        <pt x="1150" y="854" on="1"/>
        <pt x="1405" y="861" on="1"/>
        <pt x="1440" y="1024" on="1"/>
        <pt x="1587" y="1024" on="1"/>
        <pt x="1587" y="519" on="1"/>
        <pt x="1441" y="519" on="1"/>
        <pt x="1406" y="691" on="1"/>
        <pt x="1150" y="697" on="1"/>
        <pt x="1150" y="145" on="1"/>
        <pt x="1606" y="172" on="1"/>
        <pt x="1739" y="430" on="1"/>
        <pt x="1924" y="377" on="1"/>
        <pt x="1854" y="0" on="1"/>
        <pt x="656" y="0" on="1"/>
        <pt x="656" y="132" on="1"/>
      </contour>
      <contour>
        <pt x="813" y="578" on="1"/>
        <pt x="813" y="1373" on="1"/>
        <pt x="701" y="1373" on="1"/>
        <pt x="597" y="1097" on="1"/>
        <pt x="403" y="578" on="1"/>
      </contour>
    </TTGlyph>
    <TTGlyph name="AEacute" xMin="-165" yMin="0" xMax="1924" yMax="2014">
      <component glyphName="acute.cap" x="422" y="0" flags="0x0"/>
      <component glyphName="AE" x="0" y="0" flags="0x0"/>
    </TTGlyph>
    <TTGlyph name="Aacute" xMin="-42" yMin="0" xMax="1474" yMax="2014">
      <component glyphName="A" x="0" y="0" flags="0x0"/>
      <component glyphName="acute.cap" x="149" y="0" flags="0x0"/>
    </TTGlyph>
    <TTGlyph name="Abreve" xMin="-42" yMin="0" xMax="1474" yMax="2004">
      <component glyphName="A" x="0" y="0" flags="0x0"/>
      <component glyphName="breve.cap" x="212" y="0" flags="0x0"/>
    </TTGlyph>
    <TTGlyph name="Acircumflex" xMin="-42" yMin="0" xMax="1474" yMax="2008">
      <component glyphName="A" x="0" y="0" flags="0x0"/>
      <component glyphName="circumflex.cap" x="195" y="0" flags="0x0"/>
    </TTGlyph>
    <TTGlyph name="Adieresis" xMin="-42" yMin="0" xMax="1474" yMax="1997">
      <component glyphName="A" x="0" y="0" flags="0x0"/>
      <component glyphName="dieresis.cap" x="212" y="0" flags="0x0"/>
    </TTGlyph>
    <TTGlyph name="Agrave" xMin="-42" yMin="0" xMax="1474" yMax="2014">
      <component glyphName="A" x="0" y="0" flags="0x0"/>
      <component glyphName="grave.cap" x="259" y="0" flags="0x0"/>
    </TTGlyph>
    <TTGlyph name="Amacron" xMin="-42" yMin="0" xMax="1474" yMax="1915">
      <component glyphName="A" x="0" y="0" flags="0x0"/>
      <component glyphName="macron.cap" x="382" y="0" flags="0x0"/>
    </TTGlyph>
    <TTGlyph name="Aogonek" xMin="-42" yMin="-513" xMax="1474" yMax="1529">
      <contour>
        <pt x="78" y="160" on="1"/>
        <pt x="540" y="1529" on="1"/>
        <pt x="893" y="1529" on="1"/>
        <pt x="1358" y="159" on="1"/>
        <pt x="1474" y="134" on="1"/>
        <pt x="1474" y="0" on="1"/>
        <pt x="1345" y="0" on="1"/>
        <pt x="1282" y="-24" on="0"/>
        <pt x="1182" y="-101" on="0"/>
        <pt x="1126" y="-188" on="0"/>
        <pt x="1126" y="-225" on="1"/>
        <pt x="1126" y="-276" on="0"/>
        <pt x="1205" y="-330" on="0"/>
        <pt x="1271" y="-330" on="1"/>
        <pt x="1305" y="-330" on="0"/>
        <pt x="1361" y="-318" on="0"/>
        <pt x="1396" y="-304" on="1"/>
        <pt x="1396" y="-445" on="1"/>
        <pt x="1355" y="-476" on="0"/>
        <pt x="1210" y="-513" on="0"/>
        <pt x="1144" y="-513" on="1"/>
        <pt x="1063" y="-513" on="0"/>
        <pt x="936" y="-466" on="0"/>
        <pt x="863" y="-374" on="0"/>
        <pt x="863" y="-309" on="1"/>
        <pt x="863" y="-251" on="0"/>
        <pt x="941" y="-129" on="0"/>
        <pt x="1077" y="-28" on="0"/>
        <pt x="1159" y="0" on="1"/>
        <pt x="841" y="0" on="1"/>
        <pt x="841" y="134" on="1"/>
        <pt x="985" y="160" on="1"/>
        <pt x="913" y="407" on="1"/>
        <pt x="410" y="407" on="1"/>
        <pt x="340" y="156" on="1"/>
        <pt x="499" y="134" on="1"/>
        <pt x="499" y="0" on="1"/>
        <pt x="-40" y="0" on="1"/>
        <pt x="-42" y="134" on="1"/>
      </contour>
      <contour>
        <pt x="868" y="561" on="1"/>
        <pt x="687" y="1180" on="1"/>
        <pt x="656" y="1321" on="1"/>
        <pt x="625" y="1180" on="1"/>
        <pt x="453" y="561" on="1"/>
      </contour>
    </TTGlyph>
    <TTGlyph name="Aring" xMin="-42" yMin="0" xMax="1474" yMax="2014">
      <contour>
        <pt x="1474" y="134" on="1"/>
        <pt x="1474" y="0" on="1"/>
        <pt x="841" y="0" on="1"/>
        <pt x="841" y="134" on="1"/>
        <pt x="985" y="160" on="1"/>
        <pt x="913" y="407" on="1"/>
        <pt x="410" y="407" on="1"/>
        <pt x="340" y="156" on="1"/>
        <pt x="499" y="134" on="1"/>
        <pt x="499" y="0" on="1"/>
        <pt x="-40" y="0" on="1"/>
        <pt x="-42" y="134" on="1"/>
        <pt x="78" y="160" on="1"/>
        <pt x="534" y="1512" on="1"/>
        <pt x="448" y="1543" on="0"/>
        <pt x="367" y="1666" on="0"/>
        <pt x="367" y="1746" on="1"/>
        <pt x="367" y="1829" on="0"/>
        <pt x="463" y="1951" on="0"/>
        <pt x="630" y="2014" on="0"/>
        <pt x="734" y="2014" on="1"/>
        <pt x="735" y="2014" on="1"/>
        <pt x="910" y="2014" on="0"/>
        <pt x="1079" y="1868" on="0"/>
        <pt x="1079" y="1749" on="1"/>
        <pt x="1079" y="1666" on="0"/>
        <pt x="983" y="1545" on="0"/>
        <pt x="898" y="1514" on="1"/>
        <pt x="1358" y="159" on="1"/>
      </contour>
      <contour>
        <pt x="640" y="1894" on="0"/>
        <pt x="570" y="1821" on="0"/>
        <pt x="570" y="1752" on="1"/>
        <pt x="570" y="1689" on="0"/>
        <pt x="644" y="1603" on="0"/>
        <pt x="724" y="1603" on="1"/>
        <pt x="725" y="1603" on="1"/>
        <pt x="810" y="1603" on="0"/>
        <pt x="876" y="1672" on="0"/>
        <pt x="876" y="1740" on="1"/>
        <pt x="876" y="1809" on="0"/>
        <pt x="806" y="1894" on="0"/>
        <pt x="726" y="1894" on="1"/>
        <pt x="725" y="1894" on="1"/>
      </contour>
      <contour>
        <pt x="868" y="561" on="1"/>
        <pt x="687" y="1180" on="1"/>
        <pt x="656" y="1321" on="1"/>
        <pt x="625" y="1180" on="1"/>
        <pt x="453" y="561" on="1"/>
      </contour>
    </TTGlyph>
    <TTGlyph name="Atilde" xMin="-42" yMin="0" xMax="1474" yMax="2009">
      <component glyphName="A" x="0" y="0" flags="0x0"/>
      <component glyphName="tilde.cap" x="212" y="0" flags="0x0"/>
    </TTGlyph>
    <TTGlyph name="B" xMin="77" yMin="-12" xMax="1395" yMax="1535">
      <contour>
        <pt x="233" y="160" on="1"/>
        <pt x="233" y="1353" on="1"/>
        <pt x="79" y="1381" on="1"/>
        <pt x="79" y="1522" on="1"/>
        <pt x="393" y="1522" on="1"/>
        <pt x="446" y="1522" on="0"/>
        <pt x="572" y="1529" on="1"/>
        <pt x="670" y="1535" on="0"/>
        <pt x="717" y="1535" on="1"/>
        <pt x="933" y="1535" on="0"/>
        <pt x="1184" y="1454" on="0"/>
        <pt x="1289" y="1303" on="0"/>
        <pt x="1289" y="1189" on="1"/>
        <pt x="1289" y="1088" on="0"/>
        <pt x="1205" y="929" on="0"/>
        <pt x="1057" y="830" on="0"/>
        <pt x="962" y="815" on="1"/>
        <pt x="1092" y="816" on="0"/>
        <pt x="1287" y="732" on="0"/>
        <pt x="1395" y="571" on="0"/>
        <pt x="1395" y="459" on="1"/>
        <pt x="1395" y="-12" on="0"/>
        <pt x="740" y="-12" on="1"/>
        <pt x="670" y="-12" on="0"/>
        <pt x="568" y="-6" on="1"/>
        <pt x="468" y="0" on="0"/>
        <pt x="399" y="0" on="1"/>
        <pt x="77" y="0" on="1"/>
        <pt x="77" y="134" on="1"/>
      </contour>
      <contour>
        <pt x="606" y="864" on="0"/>
        <pt x="728" y="864" on="1"/>
        <pt x="847" y="864" on="0"/>
        <pt x="955" y="1009" on="0"/>
        <pt x="955" y="1149" on="1"/>
        <pt x="955" y="1279" on="0"/>
        <pt x="839" y="1399" on="0"/>
        <pt x="707" y="1399" on="1"/>
        <pt x="676" y="1399" on="0"/>
        <pt x="587" y="1392" on="0"/>
        <pt x="568" y="1389" on="1"/>
        <pt x="568" y="868" on="1"/>
      </contour>
      <contour>
        <pt x="599" y="128" on="0"/>
        <pt x="729" y="128" on="1"/>
        <pt x="885" y="128" on="0"/>
        <pt x="1026" y="285" on="0"/>
        <pt x="1026" y="433" on="1"/>
        <pt x="1026" y="535" on="0"/>
        <pt x="967" y="656" on="0"/>
        <pt x="844" y="711" on="0"/>
        <pt x="745" y="711" on="1"/>
        <pt x="624" y="711" on="0"/>
        <pt x="567" y="708" on="1"/>
        <pt x="567" y="146" on="1"/>
      </contour>
    </TTGlyph>
    <TTGlyph name="C" xMin="55" yMin="-23" xMax="1284" yMax="1538">
      <contour>
        <pt x="55" y="993" on="0"/>
        <pt x="252" y="1350" on="0"/>
        <pt x="596" y="1538" on="0"/>
        <pt x="813" y="1538" on="1"/>
        <pt x="902" y="1538" on="0"/>
        <pt x="1072" y="1518" on="0"/>
        <pt x="1178" y="1500" on="1"/>
        <pt x="1261" y="1487" on="0"/>
        <pt x="1283" y="1485" on="1"/>
        <pt x="1259" y="1039" on="1"/>
        <pt x="1045" y="1039" on="1"/>
        <pt x="975" y="1341" on="1"/>
        <pt x="958" y="1364" on="0"/>
        <pt x="866" y="1393" on="0"/>
        <pt x="788" y="1393" on="1"/>
        <pt x="682" y="1393" on="0"/>
        <pt x="525" y="1255" on="0"/>
        <pt x="439" y="980" on="0"/>
        <pt x="439" y="780" on="1"/>
        <pt x="439" y="592" on="0"/>
        <pt x="518" y="295" on="0"/>
        <pt x="682" y="123" on="0"/>
        <pt x="804" y="123" on="1"/>
        <pt x="882" y="123" on="0"/>
        <pt x="969" y="160" on="0"/>
        <pt x="994" y="189" on="1"/>
        <pt x="1090" y="410" on="1"/>
        <pt x="1284" y="392" on="1"/>
        <pt x="1246" y="56" on="1"/>
        <pt x="1214" y="53" on="0"/>
        <pt x="1157" y="39" on="0"/>
        <pt x="1112" y="26" on="1"/>
        <pt x="1035" y="3" on="0"/>
        <pt x="900" y="-23" on="0"/>
        <pt x="800" y="-23" on="1"/>
        <pt x="557" y="-23" on="0"/>
        <pt x="223" y="163" on="0"/>
        <pt x="55" y="509" on="0"/>
        <pt x="55" y="750" on="1"/>
      </contour>
    </TTGlyph>
    <TTGlyph name="Cacute" xMin="55" yMin="-23" xMax="1284" yMax="2014">
      <component glyphName="C" x="0" y="0" flags="0x0"/>
      <component glyphName="acute.cap" x="216" y="0" flags="0x0"/>
    </TTGlyph>
    <TTGlyph name="Ccaron" xMin="55" yMin="-23" xMax="1284" yMax="2014">
      <component glyphName="C" x="0" y="0" flags="0x0"/>
      <component glyphName="caron.cap" x="454" y="0" flags="0x0"/>
    </TTGlyph>
    <TTGlyph name="Ccedilla" xMin="55" yMin="-520" xMax="1284" yMax="1538">
      <contour>
        <pt x="1246" y="56" on="1"/>
        <pt x="1215" y="53" on="0"/>
        <pt x="1163" y="41" on="0"/>
        <pt x="1112" y="26" on="1"/>
        <pt x="1042" y="5" on="0"/>
        <pt x="928" y="-19" on="0"/>
        <pt x="848" y="-22" on="1"/>
        <pt x="895" y="-74" on="0"/>
        <pt x="964" y="-220" on="0"/>
        <pt x="960" y="-296" on="1"/>
        <pt x="954" y="-419" on="0"/>
        <pt x="808" y="-520" on="0"/>
        <pt x="662" y="-520" on="1"/>
        <pt x="661" y="-520" on="1"/>
        <pt x="627" y="-520" on="0"/>
        <pt x="543" y="-503" on="0"/>
        <pt x="517" y="-491" on="1"/>
        <pt x="518" y="-301" on="1"/>
        <pt x="537" y="-307" on="0"/>
        <pt x="587" y="-314" on="0"/>
        <pt x="600" y="-314" on="1"/>
        <pt x="601" y="-314" on="1"/>
        <pt x="651" y="-314" on="0"/>
        <pt x="707" y="-296" on="0"/>
        <pt x="737" y="-236" on="0"/>
        <pt x="737" y="-175" on="1"/>
        <pt x="737" y="-137" on="0"/>
        <pt x="709" y="-52" on="0"/>
        <pt x="690" y="-18" on="1"/>
        <pt x="483" y="3" on="0"/>
        <pt x="198" y="198" on="0"/>
        <pt x="55" y="528" on="0"/>
        <pt x="55" y="750" on="1"/>
        <pt x="55" y="993" on="0"/>
        <pt x="252" y="1350" on="0"/>
        <pt x="596" y="1538" on="0"/>
        <pt x="813" y="1538" on="1"/>
        <pt x="902" y="1538" on="0"/>
        <pt x="1072" y="1518" on="0"/>
        <pt x="1178" y="1500" on="1"/>
        <pt x="1261" y="1487" on="0"/>
        <pt x="1283" y="1485" on="1"/>
        <pt x="1259" y="1039" on="1"/>
        <pt x="1045" y="1039" on="1"/>
        <pt x="975" y="1341" on="1"/>
        <pt x="958" y="1364" on="0"/>
        <pt x="866" y="1393" on="0"/>
        <pt x="788" y="1393" on="1"/>
        <pt x="682" y="1393" on="0"/>
        <pt x="525" y="1255" on="0"/>
        <pt x="439" y="980" on="0"/>
        <pt x="439" y="780" on="1"/>
        <pt x="439" y="592" on="0"/>
        <pt x="518" y="295" on="0"/>
        <pt x="682" y="123" on="0"/>
        <pt x="804" y="123" on="1"/>
        <pt x="882" y="123" on="0"/>
        <pt x="969" y="160" on="0"/>
        <pt x="994" y="189" on="1"/>
        <pt x="1090" y="410" on="1"/>
        <pt x="1284" y="392" on="1"/>
      </contour>
    </TTGlyph>
    <TTGlyph name="Ccircumflex" xMin="55" yMin="-23" xMax="1284" yMax="2008">
      <component glyphName="C" x="0" y="0" flags="0x0"/>
      <component glyphName="circumflex.cap" x="262" y="0" flags="0x0"/>
    </TTGlyph>
    <TTGlyph name="Cdotaccent" xMin="55" yMin="-23" xMax="1284" yMax="1998">
      <component glyphName="dotaccent.cap" x="497" y="0" flags="0x0"/>
      <component glyphName="C" x="0" y="0" flags="0x0"/>
    </TTGlyph>
    <TTGlyph name="D" xMin="77" yMin="-16" xMax="1506" yMax="1535">
      <contour>
        <pt x="233" y="159" on="1"/>
        <pt x="233" y="1353" on="1"/>
        <pt x="84" y="1381" on="1"/>
        <pt x="84" y="1522" on="1"/>
        <pt x="395" y="1522" on="1"/>
        <pt x="458" y="1522" on="0"/>
        <pt x="572" y="1528" on="1"/>
        <pt x="672" y="1535" on="0"/>
        <pt x="752" y="1535" on="1"/>
        <pt x="1129" y="1535" on="0"/>
        <pt x="1506" y="1161" on="0"/>
        <pt x="1506" y="813" on="1"/>
        <pt x="1506" y="573" on="0"/>
        <pt x="1321" y="197" on="0"/>
        <pt x="978" y="-16" on="0"/>
        <pt x="749" y="-16" on="1"/>
        <pt x="701" y="-16" on="0"/>
        <pt x="555" y="-7" on="1"/>
        <pt x="531" y="-6" on="0"/>
        <pt x="432" y="0" on="0"/>
        <pt x="403" y="0" on="1"/>
        <pt x="77" y="0" on="1"/>
        <pt x="77" y="134" on="1"/>
      </contour>
      <contour>
        <pt x="601" y="139" on="0"/>
        <pt x="685" y="131" on="0"/>
        <pt x="740" y="132" on="1"/>
        <pt x="927" y="134" on="0"/>
        <pt x="1137" y="445" on="0"/>
        <pt x="1137" y="762" on="1"/>
        <pt x="1137" y="1063" on="0"/>
        <pt x="927" y="1394" on="0"/>
        <pt x="705" y="1394" on="1"/>
        <pt x="643" y="1394" on="0"/>
        <pt x="573" y="1379" on="0"/>
        <pt x="568" y="1378" on="1"/>
        <pt x="568" y="151" on="1"/>
      </contour>
    </TTGlyph>
    <TTGlyph name="Dcaron" xMin="77" yMin="-16" xMax="1506" yMax="2014">
      <component glyphName="caron.cap" x="463" y="0" flags="0x0"/>
      <component glyphName="D" x="0" y="0" flags="0x0"/>
    </TTGlyph>
    <TTGlyph name="Dcroat" xMin="77" yMin="-16" xMax="1506" yMax="1535">
      <contour>
        <pt x="233" y="856" on="1"/>
        <pt x="233" y="1353" on="1"/>
        <pt x="84" y="1381" on="1"/>
        <pt x="84" y="1522" on="1"/>
        <pt x="395" y="1522" on="1"/>
        <pt x="458" y="1522" on="0"/>
        <pt x="572" y="1528" on="1"/>
        <pt x="672" y="1535" on="0"/>
        <pt x="752" y="1535" on="1"/>
        <pt x="1129" y="1535" on="0"/>
        <pt x="1506" y="1161" on="0"/>
        <pt x="1506" y="813" on="1"/>
        <pt x="1506" y="573" on="0"/>
        <pt x="1321" y="197" on="0"/>
        <pt x="978" y="-16" on="0"/>
        <pt x="749" y="-16" on="1"/>
        <pt x="701" y="-16" on="0"/>
        <pt x="555" y="-7" on="1"/>
        <pt x="531" y="-6" on="0"/>
        <pt x="432" y="0" on="0"/>
        <pt x="403" y="0" on="1"/>
        <pt x="77" y="0" on="1"/>
        <pt x="77" y="134" on="1"/>
        <pt x="233" y="159" on="1"/>
        <pt x="233" y="705" on="1"/>
        <pt x="78" y="705" on="1"/>
        <pt x="78" y="856" on="1"/>
      </contour>
      <contour>
        <pt x="842" y="856" on="1"/>
        <pt x="842" y="705" on="1"/>
        <pt x="568" y="705" on="1"/>
        <pt x="568" y="151" on="1"/>
        <pt x="601" y="139" on="0"/>
        <pt x="685" y="131" on="0"/>
        <pt x="740" y="132" on="1"/>
        <pt x="927" y="134" on="0"/>
        <pt x="1137" y="445" on="0"/>
        <pt x="1137" y="762" on="1"/>
        <pt x="1137" y="1063" on="0"/>
        <pt x="927" y="1394" on="0"/>
        <pt x="705" y="1394" on="1"/>
        <pt x="643" y="1394" on="0"/>
        <pt x="573" y="1379" on="0"/>
        <pt x="568" y="1378" on="1"/>
        <pt x="568" y="856" on="1"/>
      </contour>
    </TTGlyph>
    <TTGlyph name="E" xMin="74" yMin="0" xMax="1318" yMax="1522">
      <contour>
        <pt x="233" y="159" on="1"/>
        <pt x="233" y="1352" on="1"/>
        <pt x="74" y="1381" on="1"/>
        <pt x="74" y="1522" on="1"/>
        <pt x="1181" y="1522" on="1"/>
        <pt x="1209" y="1169" on="1"/>
        <pt x="1046" y="1169" on="1"/>
        <pt x="976" y="1367" on="1"/>
        <pt x="572" y="1387" on="1"/>
        <pt x="572" y="855" on="1"/>
        <pt x="826" y="861" on="1"/>
        <pt x="863" y="1026" on="1"/>
        <pt x="1009" y="1026" on="1"/>
        <pt x="1009" y="517" on="1"/>
        <pt x="863" y="517" on="1"/>
        <pt x="828" y="693" on="1"/>
        <pt x="572" y="699" on="1"/>
        <pt x="572" y="145" on="1"/>
        <pt x="1022" y="172" on="1"/>
        <pt x="1147" y="430" on="1"/>
        <pt x="1318" y="381" on="1"/>
        <pt x="1266" y="0" on="1"/>
        <pt x="77" y="0" on="1"/>
        <pt x="77" y="134" on="1"/>
      </contour>
    </TTGlyph>
    <TTGlyph name="Eacute" xMin="74" yMin="0" xMax="1318" yMax="2014">
      <component glyphName="acute.cap" x="111" y="0" flags="0x0"/>
      <component glyphName="E" x="0" y="0" flags="0x0"/>
    </TTGlyph>
    <TTGlyph name="Ebreve" xMin="74" yMin="0" xMax="1318" yMax="2004">
      <component glyphName="breve.cap" x="188" y="0" flags="0x0"/>
      <component glyphName="E" x="0" y="0" flags="0x0"/>
    </TTGlyph>
    <TTGlyph name="Ecaron" xMin="74" yMin="0" xMax="1318" yMax="2014">
      <component glyphName="caron.cap" x="365" y="0" flags="0x0"/>
      <component glyphName="E" x="0" y="0" flags="0x0"/>
    </TTGlyph>
    <TTGlyph name="Ecircumflex" xMin="74" yMin="0" xMax="1318" yMax="2008">
      <component glyphName="E" x="0" y="0" flags="0x0"/>
      <component glyphName="circumflex.cap" x="172" y="0" flags="0x0"/>
    </TTGlyph>
    <TTGlyph name="Edieresis" xMin="74" yMin="0" xMax="1318" yMax="1997">
      <component glyphName="dieresis.cap" x="188" y="0" flags="0x0"/>
      <component glyphName="E" x="0" y="0" flags="0x0"/>
    </TTGlyph>
    <TTGlyph name="Edotaccent" xMin="74" yMin="0" xMax="1318" yMax="1998">
      <component glyphName="dotaccent.cap" x="407" y="0" flags="0x0"/>
      <component glyphName="E" x="0" y="0" flags="0x0"/>
    </TTGlyph>
    <TTGlyph name="Egrave" xMin="74" yMin="0" xMax="1318" yMax="2014">
      <component glyphName="grave.cap" x="216" y="0" flags="0x0"/>
      <component glyphName="E" x="0" y="0" flags="0x0"/>
    </TTGlyph>
    <TTGlyph name="Emacron" xMin="74" yMin="0" xMax="1318" yMax="1915">
      <component glyphName="macron.cap" x="358" y="0" flags="0x0"/>
      <component glyphName="E" x="0" y="0" flags="0x0"/>
    </TTGlyph>
    <TTGlyph name="Eng" xMin="69" yMin="-397" xMax="1627" yMax="1522">
      <contour>
        <pt x="245" y="158" on="1"/>
        <pt x="245" y="1365" on="1"/>
        <pt x="69" y="1399" on="1"/>
        <pt x="69" y="1522" on="1"/>
        <pt x="573" y="1522" on="1"/>
        <pt x="1132" y="639" on="1"/>
        <pt x="1266" y="369" on="1"/>
        <pt x="1266" y="1355" on="1"/>
        <pt x="1086" y="1384" on="1"/>
        <pt x="1086" y="1522" on="1"/>
        <pt x="1627" y="1522" on="1"/>
        <pt x="1627" y="1384" on="1"/>
        <pt x="1457" y="1355" on="1"/>
        <pt x="1457" y="430" on="1"/>
        <pt x="1457" y="239" on="0"/>
        <pt x="1400" y="-5" on="0"/>
        <pt x="1326" y="-129" on="0"/>
        <pt x="1269" y="-197" on="1"/>
        <pt x="1187" y="-288" on="0"/>
        <pt x="1000" y="-383" on="0"/>
        <pt x="893" y="-397" on="1"/>
        <pt x="827" y="-289" on="1"/>
        <pt x="1010" y="-235" on="0"/>
        <pt x="1106" y="-82" on="1"/>
        <pt x="1130" y="-43" on="0"/>
        <pt x="1150" y="7" on="1"/>
        <pt x="549" y="960" on="1"/>
        <pt x="437" y="1192" on="1"/>
        <pt x="437" y="158" on="1"/>
        <pt x="630" y="132" on="1"/>
        <pt x="630" y="0" on="1"/>
        <pt x="69" y="0" on="1"/>
        <pt x="69" y="132" on="1"/>
      </contour>
    </TTGlyph>
    <TTGlyph name="Eogonek" xMin="74" yMin="-513" xMax="1318" yMax="1522">
      <contour>
        <pt x="233" y="159" on="1"/>
        <pt x="233" y="1352" on="1"/>
        <pt x="74" y="1381" on="1"/>
        <pt x="74" y="1522" on="1"/>
        <pt x="1181" y="1522" on="1"/>
        <pt x="1209" y="1169" on="1"/>
        <pt x="1046" y="1169" on="1"/>
        <pt x="976" y="1367" on="1"/>
        <pt x="572" y="1387" on="1"/>
        <pt x="572" y="855" on="1"/>
        <pt x="826" y="861" on="1"/>
        <pt x="863" y="1026" on="1"/>
        <pt x="1009" y="1026" on="1"/>
        <pt x="1009" y="517" on="1"/>
        <pt x="863" y="517" on="1"/>
        <pt x="828" y="693" on="1"/>
        <pt x="572" y="699" on="1"/>
        <pt x="572" y="145" on="1"/>
        <pt x="1022" y="172" on="1"/>
        <pt x="1147" y="430" on="1"/>
        <pt x="1318" y="381" on="1"/>
        <pt x="1266" y="0" on="1"/>
        <pt x="1256" y="0" on="1"/>
        <pt x="1191" y="-13" on="0"/>
        <pt x="1076" y="-90" on="0"/>
        <pt x="1006" y="-184" on="0"/>
        <pt x="1006" y="-220" on="1"/>
        <pt x="1006" y="-273" on="0"/>
        <pt x="1077" y="-330" on="0"/>
        <pt x="1139" y="-330" on="1"/>
        <pt x="1173" y="-330" on="0"/>
        <pt x="1225" y="-318" on="0"/>
        <pt x="1261" y="-304" on="1"/>
        <pt x="1261" y="-445" on="1"/>
        <pt x="1220" y="-476" on="0"/>
        <pt x="1078" y="-513" on="0"/>
        <pt x="1012" y="-513" on="1"/>
        <pt x="889" y="-513" on="0"/>
        <pt x="739" y="-406" on="0"/>
        <pt x="739" y="-309" on="1"/>
        <pt x="739" y="-250" on="0"/>
        <pt x="809" y="-132" on="0"/>
        <pt x="942" y="-32" on="0"/>
        <pt x="1031" y="0" on="1"/>
        <pt x="77" y="0" on="1"/>
        <pt x="77" y="134" on="1"/>
      </contour>
    </TTGlyph>
    <TTGlyph name="Eth" xMin="77" yMin="-16" xMax="1506" yMax="1535">
      <contour>
        <pt x="233" y="860" on="1"/>
        <pt x="233" y="1353" on="1"/>
        <pt x="84" y="1381" on="1"/>
        <pt x="84" y="1522" on="1"/>
        <pt x="395" y="1522" on="1"/>
        <pt x="458" y="1522" on="0"/>
        <pt x="572" y="1528" on="1"/>
        <pt x="672" y="1535" on="0"/>
        <pt x="752" y="1535" on="1"/>
        <pt x="1129" y="1535" on="0"/>
        <pt x="1506" y="1161" on="0"/>
        <pt x="1506" y="813" on="1"/>
        <pt x="1506" y="573" on="0"/>
        <pt x="1321" y="197" on="0"/>
        <pt x="978" y="-16" on="0"/>
        <pt x="749" y="-16" on="1"/>
        <pt x="701" y="-16" on="0"/>
        <pt x="555" y="-7" on="1"/>
        <pt x="531" y="-6" on="0"/>
        <pt x="432" y="0" on="0"/>
        <pt x="403" y="0" on="1"/>
        <pt x="77" y="0" on="1"/>
        <pt x="77" y="134" on="1"/>
        <pt x="233" y="159" on="1"/>
        <pt x="233" y="718" on="1"/>
        <pt x="91" y="718" on="1"/>
        <pt x="91" y="860" on="1"/>
      </contour>
      <contour>
        <pt x="855" y="860" on="1"/>
        <pt x="855" y="718" on="1"/>
        <pt x="568" y="718" on="1"/>
        <pt x="568" y="151" on="1"/>
        <pt x="601" y="139" on="0"/>
        <pt x="685" y="131" on="0"/>
        <pt x="740" y="132" on="1"/>
        <pt x="927" y="134" on="0"/>
        <pt x="1137" y="445" on="0"/>
        <pt x="1137" y="762" on="1"/>
        <pt x="1137" y="1063" on="0"/>
        <pt x="927" y="1394" on="0"/>
        <pt x="705" y="1394" on="1"/>
        <pt x="643" y="1394" on="0"/>
        <pt x="573" y="1379" on="0"/>
        <pt x="568" y="1378" on="1"/>
        <pt x="568" y="860" on="1"/>
      </contour>
    </TTGlyph>
    <TTGlyph name="Euro" xMin="55" yMin="-28" xMax="1398" yMax="1541">
      <contour>
        <pt x="234" y="669" on="1"/>
        <pt x="233" y="689" on="0"/>
        <pt x="233" y="730" on="1"/>
        <pt x="233" y="811" on="0"/>
        <pt x="242" y="886" on="1"/>
        <pt x="72" y="886" on="1"/>
        <pt x="72" y="1026" on="1"/>
        <pt x="269" y="1026" on="1"/>
        <pt x="313" y="1190" on="0"/>
        <pt x="501" y="1421" on="0"/>
        <pt x="774" y="1541" on="0"/>
        <pt x="945" y="1541" on="1"/>
        <pt x="1048" y="1541" on="0"/>
        <pt x="1203" y="1510" on="0"/>
        <pt x="1290" y="1483" on="1"/>
        <pt x="1363" y="1460" on="0"/>
        <pt x="1398" y="1457" on="1"/>
        <pt x="1375" y="1088" on="1"/>
        <pt x="1198" y="1088" on="1"/>
        <pt x="1135" y="1332" on="1"/>
        <pt x="1111" y="1364" on="0"/>
        <pt x="992" y="1396" on="0"/>
        <pt x="924" y="1396" on="1"/>
        <pt x="793" y="1396" on="0"/>
        <pt x="640" y="1215" on="0"/>
        <pt x="614" y="1026" on="1"/>
        <pt x="1065" y="1026" on="1"/>
        <pt x="1065" y="886" on="1"/>
        <pt x="601" y="886" on="1"/>
        <pt x="599" y="853" on="0"/>
        <pt x="599" y="782" on="1"/>
        <pt x="599" y="741" on="0"/>
        <pt x="601" y="669" on="1"/>
        <pt x="1038" y="669" on="1"/>
        <pt x="1038" y="527" on="1"/>
        <pt x="613" y="527" on="1"/>
        <pt x="641" y="315" on="0"/>
        <pt x="800" y="106" on="0"/>
        <pt x="935" y="106" on="1"/>
        <pt x="1000" y="106" on="0"/>
        <pt x="1103" y="145" on="0"/>
        <pt x="1144" y="190" on="1"/>
        <pt x="1237" y="385" on="1"/>
        <pt x="1393" y="358" on="1"/>
        <pt x="1371" y="61" on="1"/>
        <pt x="1354" y="60" on="0"/>
        <pt x="1305" y="49" on="0"/>
        <pt x="1268" y="38" on="0"/>
        <pt x="1258" y="35" on="1"/>
        <pt x="1167" y="6" on="0"/>
        <pt x="995" y="-28" on="0"/>
        <pt x="882" y="-28" on="1"/>
        <pt x="713" y="-28" on="0"/>
        <pt x="451" y="105" on="0"/>
        <pt x="282" y="355" on="0"/>
        <pt x="250" y="527" on="1"/>
        <pt x="55" y="527" on="1"/>
        <pt x="55" y="669" on="1"/>
      </contour>
    </TTGlyph>
    <TTGlyph name="F" xMin="73" yMin="0" xMax="1235" yMax="1522">
      <contour>
        <pt x="233" y="159" on="1"/>
        <pt x="233" y="1353" on="1"/>
        <pt x="73" y="1381" on="1"/>
        <pt x="73" y="1522" on="1"/>
        <pt x="1212" y="1522" on="1"/>
        <pt x="1235" y="1145" on="1"/>
        <pt x="1054" y="1145" on="1"/>
        <pt x="975" y="1363" on="1"/>
        <pt x="572" y="1386" on="1"/>
        <pt x="572" y="824" on="1"/>
        <pt x="842" y="828" on="1"/>
        <pt x="885" y="1006" on="1"/>
        <pt x="1034" y="1006" on="1"/>
        <pt x="1034" y="473" on="1"/>
        <pt x="886" y="473" on="1"/>
        <pt x="842" y="655" on="1"/>
        <pt x="572" y="663" on="1"/>
        <pt x="572" y="160" on="1"/>
        <pt x="875" y="134" on="1"/>
        <pt x="875" y="0" on="1"/>
        <pt x="77" y="0" on="1"/>
        <pt x="77" y="134" on="1"/>
      </contour>
    </TTGlyph>
    <TTGlyph name="G" xMin="66" yMin="-23" xMax="1491" yMax="1541">
      <contour>
        <pt x="66" y="995" on="0"/>
        <pt x="263" y="1353" on="0"/>
        <pt x="621" y="1541" on="0"/>
        <pt x="860" y="1541" on="1"/>
        <pt x="1001" y="1541" on="0"/>
        <pt x="1276" y="1499" on="0"/>
        <pt x="1372" y="1477" on="1"/>
        <pt x="1348" y="1088" on="1"/>
        <pt x="1114" y="1088" on="1"/>
        <pt x="1053" y="1349" on="1"/>
        <pt x="1034" y="1370" on="0"/>
        <pt x="938" y="1403" on="0"/>
        <pt x="851" y="1403" on="1"/>
        <pt x="727" y="1403" on="0"/>
        <pt x="550" y="1262" on="0"/>
        <pt x="456" y="985" on="0"/>
        <pt x="456" y="783" on="1"/>
        <pt x="456" y="589" on="0"/>
        <pt x="534" y="291" on="0"/>
        <pt x="702" y="120" on="0"/>
        <pt x="831" y="120" on="1"/>
        <pt x="903" y="120" on="0"/>
        <pt x="1026" y="156" on="0"/>
        <pt x="1056" y="189" on="1"/>
        <pt x="1056" y="610" on="1"/>
        <pt x="863" y="633" on="1"/>
        <pt x="863" y="783" on="1"/>
        <pt x="1491" y="783" on="1"/>
        <pt x="1491" y="633" on="1"/>
        <pt x="1387" y="614" on="1"/>
        <pt x="1387" y="82" on="1"/>
        <pt x="1361" y="81" on="0"/>
        <pt x="1290" y="64" on="0"/>
        <pt x="1234" y="48" on="1"/>
        <pt x="1109" y="14" on="0"/>
        <pt x="914" y="-23" on="0"/>
        <pt x="800" y="-23" on="1"/>
        <pt x="570" y="-23" on="0"/>
        <pt x="238" y="177" on="0"/>
        <pt x="66" y="525" on="0"/>
        <pt x="66" y="745" on="1"/>
      </contour>
    </TTGlyph>
    <TTGlyph name="Gbreve" xMin="71" yMin="-23" xMax="1496" yMax="2004">
      <component glyphName="breve.cap" x="319" y="0" flags="0x0"/>
      <component glyphName="G" x="5" y="0" flags="0x0"/>
    </TTGlyph>
    <TTGlyph name="Gcaron" xMin="66" yMin="-23" xMax="1491" yMax="2014">
      <component glyphName="G" x="0" y="0" flags="0x0"/>
      <component glyphName="caron.cap" x="521" y="0" flags="0x0"/>
    </TTGlyph>
    <TTGlyph name="Gcircumflex" xMin="66" yMin="-23" xMax="1491" yMax="2008">
      <component glyphName="G" x="0" y="0" flags="0x0"/>
      <component glyphName="circumflex.cap" x="329" y="0" flags="0x0"/>
    </TTGlyph>
    <TTGlyph name="Gcommaaccent" xMin="71" yMin="-560" xMax="1496" yMax="1541">
      <component glyphName="uni0326" x="1137" y="0" flags="0x0"/>
      <component glyphName="G" x="5" y="0" flags="0x0"/>
    </TTGlyph>
    <TTGlyph name="Gdotaccent" xMin="71" yMin="-23" xMax="1496" yMax="1998">
      <component glyphName="dotaccent.cap" x="546" y="0" flags="0x0"/>
      <component glyphName="G" x="5" y="0" flags="0x0"/>
    </TTGlyph>
    <TTGlyph name="H" xMin="81" yMin="0" xMax="1635" yMax="1522">
      <contour>
        <pt x="233" y="159" on="1"/>
        <pt x="233" y="1353" on="1"/>
        <pt x="85" y="1381" on="1"/>
        <pt x="85" y="1522" on="1"/>
        <pt x="737" y="1522" on="1"/>
        <pt x="737" y="1381" on="1"/>
        <pt x="570" y="1353" on="1"/>
        <pt x="570" y="861" on="1"/>
        <pt x="1145" y="861" on="1"/>
        <pt x="1145" y="1352" on="1"/>
        <pt x="990" y="1381" on="1"/>
        <pt x="990" y="1522" on="1"/>
        <pt x="1635" y="1522" on="1"/>
        <pt x="1635" y="1381" on="1"/>
        <pt x="1483" y="1353" on="1"/>
        <pt x="1483" y="159" on="1"/>
        <pt x="1635" y="134" on="1"/>
        <pt x="1635" y="0" on="1"/>
        <pt x="992" y="0" on="1"/>
        <pt x="992" y="134" on="1"/>
        <pt x="1145" y="160" on="1"/>
        <pt x="1145" y="692" on="1"/>
        <pt x="570" y="692" on="1"/>
        <pt x="570" y="160" on="1"/>
        <pt x="737" y="134" on="1"/>
        <pt x="737" y="0" on="1"/>
        <pt x="81" y="0" on="1"/>
        <pt x="81" y="134" on="1"/>
      </contour>
    </TTGlyph>
    <TTGlyph name="Hbar" xMin="54" yMin="0" xMax="1680" yMax="1522">
      <contour>
        <pt x="233" y="1135" on="1"/>
        <pt x="233" y="1352" on="1"/>
        <pt x="76" y="1381" on="1"/>
        <pt x="76" y="1522" on="1"/>
        <pt x="736" y="1522" on="1"/>
        <pt x="736" y="1381" on="1"/>
        <pt x="571" y="1353" on="1"/>
        <pt x="571" y="1135" on="1"/>
        <pt x="1146" y="1135" on="1"/>
        <pt x="1146" y="1352" on="1"/>
        <pt x="991" y="1381" on="1"/>
        <pt x="991" y="1522" on="1"/>
        <pt x="1640" y="1522" on="1"/>
        <pt x="1640" y="1381" on="1"/>
        <pt x="1483" y="1353" on="1"/>
        <pt x="1483" y="1135" on="1"/>
        <pt x="1680" y="1135" on="1"/>
        <pt x="1680" y="1002" on="1"/>
        <pt x="1483" y="1002" on="1"/>
        <pt x="1483" y="160" on="1"/>
        <pt x="1639" y="134" on="1"/>
        <pt x="1639" y="0" on="1"/>
        <pt x="992" y="0" on="1"/>
        <pt x="992" y="134" on="1"/>
        <pt x="1146" y="160" on="1"/>
        <pt x="1146" y="588" on="1"/>
        <pt x="571" y="588" on="1"/>
        <pt x="571" y="160" on="1"/>
        <pt x="736" y="134" on="1"/>
        <pt x="736" y="0" on="1"/>
        <pt x="75" y="0" on="1"/>
        <pt x="75" y="134" on="1"/>
        <pt x="233" y="160" on="1"/>
        <pt x="233" y="1002" on="1"/>
        <pt x="54" y="1002" on="1"/>
        <pt x="54" y="1135" on="1"/>
      </contour>
      <contour>
        <pt x="1146" y="1002" on="1"/>
        <pt x="571" y="1002" on="1"/>
        <pt x="571" y="756" on="1"/>
        <pt x="1146" y="756" on="1"/>
      </contour>
    </TTGlyph>
    <TTGlyph name="Hcircumflex" xMin="81" yMin="0" xMax="1635" yMax="2008">
      <component glyphName="H" x="0" y="0" flags="0x0"/>
      <component glyphName="circumflex.cap" x="333" y="0" flags="0x0"/>
    </TTGlyph>
    <TTGlyph name="I" xMin="89" yMin="0" xMax="765" yMax="1522">
      <contour>
        <pt x="256" y="160" on="1"/>
        <pt x="256" y="1352" on="1"/>
        <pt x="89" y="1381" on="1"/>
        <pt x="89" y="1522" on="1"/>
        <pt x="763" y="1522" on="1"/>
        <pt x="763" y="1381" on="1"/>
        <pt x="595" y="1353" on="1"/>
        <pt x="595" y="160" on="1"/>
        <pt x="765" y="132" on="1"/>
        <pt x="765" y="0" on="1"/>
        <pt x="91" y="0" on="1"/>
        <pt x="91" y="134" on="1"/>
      </contour>
    </TTGlyph>
    <TTGlyph name="I.uc" xMin="89" yMin="0" xMax="765" yMax="1998">
      <component glyphName="I" x="0" y="0" flags="0x0"/>
      <component glyphName="dotaccent.cap" x="134" y="0" flags="0x0"/>
    </TTGlyph>
    <TTGlyph name="IJ" xMin="89" yMin="-393" xMax="1606" yMax="1522">
      <component glyphName="I" x="0" y="0" flags="0x0"/>
      <component glyphName="J" x="850" y="0" flags="0x0"/>
    </TTGlyph>
    <TTGlyph name="IJ_acutecomb" xMin="89" yMin="-393" xMax="1637" yMax="2014">
      <component glyphName="I" x="0" y="0" flags="0x0"/>
      <component glyphName="acute.cap" x="-148" y="0" flags="0x0"/>
      <component glyphName="J" x="850" y="0" flags="0x0"/>
      <component glyphName="acute.cap" x="700" y="0" flags="0x0"/>
    </TTGlyph>
    <TTGlyph name="Iacute" xMin="89" yMin="0" xMax="789" yMax="2014">
      <component glyphName="I" x="0" y="0" flags="0x0"/>
      <component glyphName="acute.cap" x="-148" y="0" flags="0x0"/>
    </TTGlyph>
    <TTGlyph name="Ibreve" xMin="51" yMin="0" xMax="802" yMax="2004">
      <component glyphName="I" x="0" y="0" flags="0x0"/>
      <component glyphName="breve.cap" x="-85" y="0" flags="0x0"/>
    </TTGlyph>
    <TTGlyph name="Icircumflex" xMin="23" yMin="0" xMax="824" yMax="2008">
      <component glyphName="I" x="0" y="0" flags="0x0"/>
      <component glyphName="circumflex.cap" x="-102" y="0" flags="0x0"/>
    </TTGlyph>
    <TTGlyph name="Idieresis" xMin="-9" yMin="0" xMax="859" yMax="1997">
      <component glyphName="I" x="0" y="0" flags="0x0"/>
      <component glyphName="dieresis.cap" x="-85" y="0" flags="0x0"/>
    </TTGlyph>
    <TTGlyph name="Idotaccent" xMin="89" yMin="0" xMax="765" yMax="1998">
      <component glyphName="I" x="0" y="0" flags="0x0"/>
      <component glyphName="dotaccent.cap" x="134" y="0" flags="0x0"/>
    </TTGlyph>
    <TTGlyph name="Igrave" xMin="75" yMin="0" xMax="765" yMax="2014">
      <component glyphName="I" x="0" y="0" flags="0x0"/>
      <component glyphName="grave.cap" x="-38" y="0" flags="0x0"/>
    </TTGlyph>
    <TTGlyph name="Imacron" xMin="89" yMin="0" xMax="765" yMax="1915">
      <component glyphName="I" x="0" y="0" flags="0x0"/>
      <component glyphName="macron.cap" x="85" y="0" flags="0x0"/>
    </TTGlyph>
    <TTGlyph name="Iogonek" xMin="89" yMin="-513" xMax="765" yMax="1522">
      <contour>
        <pt x="256" y="160" on="1"/>
        <pt x="256" y="1352" on="1"/>
        <pt x="89" y="1381" on="1"/>
        <pt x="89" y="1522" on="1"/>
        <pt x="763" y="1522" on="1"/>
        <pt x="763" y="1381" on="1"/>
        <pt x="595" y="1353" on="1"/>
        <pt x="595" y="160" on="1"/>
        <pt x="765" y="132" on="1"/>
        <pt x="765" y="0" on="1"/>
        <pt x="588" y="0" on="1"/>
        <pt x="532" y="-24" on="0"/>
        <pt x="442" y="-102" on="0"/>
        <pt x="391" y="-186" on="0"/>
        <pt x="391" y="-220" on="1"/>
        <pt x="391" y="-273" on="0"/>
        <pt x="468" y="-330" on="0"/>
        <pt x="538" y="-330" on="1"/>
        <pt x="572" y="-330" on="0"/>
        <pt x="622" y="-318" on="0"/>
        <pt x="658" y="-304" on="1"/>
        <pt x="658" y="-445" on="1"/>
        <pt x="616" y="-476" on="0"/>
        <pt x="472" y="-513" on="0"/>
        <pt x="406" y="-513" on="1"/>
        <pt x="325" y="-513" on="0"/>
        <pt x="197" y="-466" on="0"/>
        <pt x="124" y="-374" on="0"/>
        <pt x="124" y="-309" on="1"/>
        <pt x="124" y="-252" on="0"/>
        <pt x="194" y="-133" on="0"/>
        <pt x="315" y="-32" on="0"/>
        <pt x="391" y="0" on="1"/>
        <pt x="91" y="0" on="1"/>
        <pt x="91" y="134" on="1"/>
      </contour>
    </TTGlyph>
    <TTGlyph name="Itilde" xMin="-40" yMin="0" xMax="890" yMax="2009">
      <component glyphName="I" x="0" y="0" flags="0x0"/>
      <component glyphName="tilde.cap" x="-85" y="0" flags="0x0"/>
    </TTGlyph>
    <TTGlyph name="J" xMin="-37" yMin="-393" xMax="756" yMax="1522">
      <contour>
        <pt x="9" y="-260" on="0"/>
        <pt x="108" y="-185" on="0"/>
        <pt x="192" y="-71" on="0"/>
        <pt x="215" y="1" on="1"/>
        <pt x="237" y="71" on="0"/>
        <pt x="257" y="254" on="0"/>
        <pt x="257" y="415" on="1"/>
        <pt x="257" y="1352" on="1"/>
        <pt x="85" y="1381" on="1"/>
        <pt x="85" y="1522" on="1"/>
        <pt x="756" y="1522" on="1"/>
        <pt x="756" y="1381" on="1"/>
        <pt x="593" y="1353" on="1"/>
        <pt x="593" y="569" on="1"/>
        <pt x="593" y="365" on="0"/>
        <pt x="582" y="112" on="0"/>
        <pt x="565" y="41" on="1"/>
        <pt x="520" y="-129" on="0"/>
        <pt x="245" y="-355" on="0"/>
        <pt x="37" y="-393" on="1"/>
        <pt x="-37" y="-275" on="1"/>
      </contour>
    </TTGlyph>
    <TTGlyph name="Jcircumflex" xMin="-37" yMin="-393" xMax="822" yMax="2008">
      <component glyphName="J" x="0" y="0" flags="0x0"/>
      <component glyphName="circumflex.cap" x="-104" y="0" flags="0x0"/>
    </TTGlyph>
    <TTGlyph name="K" xMin="75" yMin="0" xMax="1549" yMax="1522">
      <contour>
        <pt x="1116" y="0" on="0"/>
        <pt x="1023" y="160" on="0"/>
        <pt x="941" y="328" on="1"/>
        <pt x="873" y="467" on="0"/>
        <pt x="780" y="641" on="0"/>
        <pt x="737" y="698" on="1"/>
        <pt x="571" y="502" on="1"/>
        <pt x="571" y="159" on="1"/>
        <pt x="745" y="134" on="1"/>
        <pt x="745" y="0" on="1"/>
        <pt x="75" y="0" on="1"/>
        <pt x="75" y="134" on="1"/>
        <pt x="233" y="160" on="1"/>
        <pt x="233" y="1353" on="1"/>
        <pt x="76" y="1381" on="1"/>
        <pt x="76" y="1522" on="1"/>
        <pt x="719" y="1522" on="1"/>
        <pt x="719" y="1381" on="1"/>
        <pt x="571" y="1352" on="1"/>
        <pt x="571" y="712" on="1"/>
        <pt x="1071" y="1353" on="1"/>
        <pt x="908" y="1381" on="1"/>
        <pt x="907" y="1522" on="1"/>
        <pt x="1480" y="1522" on="1"/>
        <pt x="1480" y="1382" on="1"/>
        <pt x="1306" y="1353" on="1"/>
        <pt x="934" y="930" on="1"/>
        <pt x="1003" y="867" on="0"/>
        <pt x="1160" y="627" on="0"/>
        <pt x="1271" y="437" on="1"/>
        <pt x="1352" y="298" on="0"/>
        <pt x="1434" y="171" on="0"/>
        <pt x="1457" y="160" on="1"/>
        <pt x="1549" y="134" on="1"/>
        <pt x="1549" y="0" on="1"/>
        <pt x="1147" y="0" on="1"/>
      </contour>
    </TTGlyph>
    <TTGlyph name="Kcommaaccent" xMin="75" yMin="-560" xMax="1549" yMax="1522">
      <component glyphName="uni0326" x="1137" y="0" flags="0x0"/>
      <component glyphName="K" x="0" y="0" flags="0x0"/>
    </TTGlyph>
    <TTGlyph name="L" xMin="77" yMin="0" xMax="1286" yMax="1522">
      <contour>
        <pt x="233" y="160" on="1"/>
        <pt x="233" y="1352" on="1"/>
        <pt x="79" y="1381" on="1"/>
        <pt x="79" y="1522" on="1"/>
        <pt x="763" y="1522" on="1"/>
        <pt x="763" y="1381" on="1"/>
        <pt x="573" y="1352" on="1"/>
        <pt x="573" y="161" on="1"/>
        <pt x="967" y="183" on="1"/>
        <pt x="1099" y="570" on="1"/>
        <pt x="1286" y="542" on="1"/>
        <pt x="1227" y="0" on="1"/>
        <pt x="77" y="0" on="1"/>
        <pt x="77" y="134" on="1"/>
      </contour>
    </TTGlyph>
    <TTGlyph name="Lacute" xMin="77" yMin="0" xMax="1286" yMax="2014">
      <component glyphName="acute.cap" x="-119" y="0" flags="0x0"/>
      <component glyphName="L" x="0" y="0" flags="0x0"/>
    </TTGlyph>
    <TTGlyph name="Lcaron" xMin="77" yMin="0" xMax="1286" yMax="1694">
      <component glyphName="L" x="0" y="0" flags="0x0"/>
      <component glyphName="caronvertical" x="833" y="0" flags="0x0"/>
    </TTGlyph>
    <TTGlyph name="Lcommaaccent" xMin="77" yMin="-560" xMax="1286" yMax="1522">
      <component glyphName="uni0326" x="1038" y="0" flags="0x0"/>
      <component glyphName="L" x="0" y="0" flags="0x0"/>
    </TTGlyph>
    <TTGlyph name="Ldot" xMin="77" yMin="0" xMax="1286" yMax="1522">
      <component glyphName="L" x="0" y="0" flags="0x0"/>
      <component glyphName="period" x="717" y="742" flags="0x4"/>
    </TTGlyph>
    <TTGlyph name="Lslash" xMin="44" yMin="0" xMax="1286" yMax="1522">
      <contour>
        <pt x="233" y="741" on="1"/>
        <pt x="233" y="1352" on="1"/>
        <pt x="79" y="1381" on="1"/>
        <pt x="79" y="1522" on="1"/>
        <pt x="763" y="1522" on="1"/>
        <pt x="763" y="1381" on="1"/>
        <pt x="573" y="1352" on="1"/>
        <pt x="573" y="875" on="1"/>
        <pt x="915" y="1019" on="1"/>
        <pt x="915" y="863" on="1"/>
        <pt x="573" y="725" on="1"/>
        <pt x="573" y="161" on="1"/>
        <pt x="967" y="183" on="1"/>
        <pt x="1099" y="570" on="1"/>
        <pt x="1286" y="542" on="1"/>
        <pt x="1227" y="0" on="1"/>
        <pt x="77" y="0" on="1"/>
        <pt x="77" y="134" on="1"/>
        <pt x="233" y="160" on="1"/>
        <pt x="233" y="592" on="1"/>
        <pt x="44" y="517" on="1"/>
        <pt x="44" y="664" on="1"/>
      </contour>
    </TTGlyph>
    <TTGlyph name="M" xMin="-5" yMin="0" xMax="2118" yMax="1522">
      <contour>
        <pt x="168" y="159" on="1"/>
        <pt x="307" y="1353" on="1"/>
        <pt x="106" y="1381" on="1"/>
        <pt x="106" y="1522" on="1"/>
        <pt x="768" y="1522" on="1"/>
        <pt x="1029" y="637" on="1"/>
        <pt x="1066" y="443" on="1"/>
        <pt x="1099" y="637" on="1"/>
        <pt x="1318" y="1522" on="1"/>
        <pt x="1987" y="1522" on="1"/>
        <pt x="1987" y="1381" on="1"/>
        <pt x="1770" y="1352" on="1"/>
        <pt x="1948" y="160" on="1"/>
        <pt x="2118" y="134" on="1"/>
        <pt x="2118" y="0" on="1"/>
        <pt x="1433" y="0" on="1"/>
        <pt x="1433" y="134" on="1"/>
        <pt x="1602" y="159" on="1"/>
        <pt x="1499" y="1040" on="1"/>
        <pt x="1460" y="1406" on="1"/>
        <pt x="1401" y="1123" on="1"/>
        <pt x="1126" y="58" on="1"/>
        <pt x="881" y="58" on="1"/>
        <pt x="558" y="1049" on="1"/>
        <pt x="470" y="1412" on="1"/>
        <pt x="446" y="1041" on="1"/>
        <pt x="381" y="160" on="1"/>
        <pt x="584" y="134" on="1"/>
        <pt x="584" y="0" on="1"/>
        <pt x="-5" y="0" on="1"/>
        <pt x="-5" y="134" on="1"/>
      </contour>
    </TTGlyph>
    <TTGlyph name="N" xMin="73" yMin="0" xMax="1613" yMax="1522">
      <contour>
        <pt x="235" y="159" on="1"/>
        <pt x="235" y="1353" on="1"/>
        <pt x="73" y="1381" on="1"/>
        <pt x="73" y="1522" on="1"/>
        <pt x="572" y="1522" on="1"/>
        <pt x="1154" y="639" on="1"/>
        <pt x="1263" y="407" on="1"/>
        <pt x="1263" y="1354" on="1"/>
        <pt x="1087" y="1381" on="1"/>
        <pt x="1087" y="1522" on="1"/>
        <pt x="1613" y="1522" on="1"/>
        <pt x="1613" y="1381" on="1"/>
        <pt x="1455" y="1353" on="1"/>
        <pt x="1455" y="0" on="1"/>
        <pt x="1177" y="0" on="1"/>
        <pt x="564" y="937" on="1"/>
        <pt x="428" y="1211" on="1"/>
        <pt x="428" y="159" on="1"/>
        <pt x="638" y="134" on="1"/>
        <pt x="638" y="0" on="1"/>
        <pt x="73" y="0" on="1"/>
        <pt x="73" y="134" on="1"/>
      </contour>
    </TTGlyph>
    <TTGlyph name="Nacute" xMin="73" yMin="0" xMax="1613" yMax="2014">
      <component glyphName="acute.cap" x="277" y="0" flags="0x0"/>
      <component glyphName="N" x="0" y="0" flags="0x0"/>
    </TTGlyph>
    <TTGlyph name="Ncaron" xMin="73" yMin="0" xMax="1613" yMax="2014">
      <component glyphName="caron.cap" x="509" y="0" flags="0x0"/>
      <component glyphName="N" x="0" y="0" flags="0x0"/>
    </TTGlyph>
    <TTGlyph name="Ncommaaccent" xMin="73" yMin="-560" xMax="1613" yMax="1522">
      <component glyphName="uni0326" x="1195" y="0" flags="0x0"/>
      <component glyphName="N" x="0" y="0" flags="0x0"/>
    </TTGlyph>
    <TTGlyph name="Ntilde" xMin="73" yMin="0" xMax="1613" yMax="2009">
      <component glyphName="tilde.cap" x="336" y="0" flags="0x0"/>
      <component glyphName="N" x="0" y="0" flags="0x0"/>
    </TTGlyph>
    <TTGlyph name="O" xMin="55" yMin="-23" xMax="1439" yMax="1541">
      <contour>
        <pt x="55" y="992" on="0"/>
        <pt x="231" y="1348" on="0"/>
        <pt x="550" y="1541" on="0"/>
        <pt x="760" y="1541" on="1"/>
        <pt x="1105" y="1540" on="0"/>
        <pt x="1439" y="1143" on="0"/>
        <pt x="1439" y="784" on="1"/>
        <pt x="1439" y="544" on="0"/>
        <pt x="1261" y="178" on="0"/>
        <pt x="938" y="-23" on="0"/>
        <pt x="726" y="-23" on="1"/>
        <pt x="498" y="-23" on="0"/>
        <pt x="199" y="170" on="0"/>
        <pt x="55" y="518" on="0"/>
        <pt x="55" y="755" on="1"/>
      </contour>
      <contour>
        <pt x="427" y="436" on="0"/>
        <pt x="593" y="116" on="0"/>
        <pt x="746" y="116" on="1"/>
        <pt x="847" y="116" on="0"/>
        <pt x="990" y="266" on="0"/>
        <pt x="1067" y="565" on="0"/>
        <pt x="1067" y="783" on="1"/>
        <pt x="1067" y="1101" on="0"/>
        <pt x="902" y="1403" on="0"/>
        <pt x="747" y="1403" on="1"/>
        <pt x="593" y="1403" on="0"/>
        <pt x="427" y="1081" on="0"/>
        <pt x="427" y="757" on="1"/>
      </contour>
    </TTGlyph>
    <TTGlyph name="OE" xMin="62" yMin="-16" xMax="2106" yMax="1542">
      <contour>
        <pt x="992" y="47" on="1"/>
        <pt x="881" y="-16" on="0"/>
        <pt x="736" y="-16" on="1"/>
        <pt x="513" y="-16" on="0"/>
        <pt x="211" y="177" on="0"/>
        <pt x="62" y="524" on="0"/>
        <pt x="62" y="756" on="1"/>
        <pt x="62" y="994" on="0"/>
        <pt x="235" y="1349" on="0"/>
        <pt x="554" y="1542" on="0"/>
        <pt x="768" y="1542" on="1"/>
        <pt x="896" y="1542" on="0"/>
        <pt x="992" y="1504" on="1"/>
        <pt x="992" y="1522" on="1"/>
        <pt x="1946" y="1522" on="1"/>
        <pt x="1974" y="1169" on="1"/>
        <pt x="1811" y="1169" on="1"/>
        <pt x="1742" y="1367" on="1"/>
        <pt x="1335" y="1387" on="1"/>
        <pt x="1335" y="854" on="1"/>
        <pt x="1592" y="861" on="1"/>
        <pt x="1626" y="1024" on="1"/>
        <pt x="1781" y="1024" on="1"/>
        <pt x="1781" y="519" on="1"/>
        <pt x="1626" y="519" on="1"/>
        <pt x="1593" y="691" on="1"/>
        <pt x="1335" y="697" on="1"/>
        <pt x="1335" y="145" on="1"/>
        <pt x="1799" y="172" on="1"/>
        <pt x="1942" y="426" on="1"/>
        <pt x="2106" y="377" on="1"/>
        <pt x="2036" y="0" on="1"/>
        <pt x="992" y="0" on="1"/>
      </contour>
      <contour>
        <pt x="992" y="1257" on="1"/>
        <pt x="955" y="1337" on="0"/>
        <pt x="837" y="1408" on="0"/>
        <pt x="750" y="1408" on="1"/>
        <pt x="595" y="1408" on="0"/>
        <pt x="431" y="1080" on="0"/>
        <pt x="431" y="757" on="1"/>
        <pt x="431" y="553" on="0"/>
        <pt x="509" y="266" on="0"/>
        <pt x="655" y="119" on="0"/>
        <pt x="756" y="118" on="1"/>
        <pt x="834" y="118" on="0"/>
        <pt x="953" y="217" on="0"/>
        <pt x="992" y="309" on="1"/>
      </contour>
    </TTGlyph>
    <TTGlyph name="Oacute" xMin="60" yMin="-23" xMax="1444" yMax="2014">
      <component glyphName="acute.cap" x="181" y="0" flags="0x0"/>
      <component glyphName="O" x="5" y="0" flags="0x0"/>
    </TTGlyph>
    <TTGlyph name="Obreve" xMin="60" yMin="-23" xMax="1444" yMax="2004">
      <component glyphName="breve.cap" x="245" y="0" flags="0x0"/>
      <component glyphName="O" x="5" y="0" flags="0x0"/>
    </TTGlyph>
    <TTGlyph name="Ocircumflex" xMin="55" yMin="-23" xMax="1439" yMax="2008">
      <component glyphName="O" x="0" y="0" flags="0x0"/>
      <component glyphName="circumflex.cap" x="223" y="0" flags="0x0"/>
    </TTGlyph>
    <TTGlyph name="Odieresis" xMin="60" yMin="-23" xMax="1444" yMax="1997">
      <component glyphName="dieresis.cap" x="245" y="0" flags="0x0"/>
      <component glyphName="O" x="5" y="0" flags="0x0"/>
    </TTGlyph>
    <TTGlyph name="Ograve" xMin="60" yMin="-23" xMax="1444" yMax="2014">
      <component glyphName="grave.cap" x="297" y="0" flags="0x0"/>
      <component glyphName="O" x="5" y="0" flags="0x0"/>
    </TTGlyph>
    <TTGlyph name="Ohungarumlaut" xMin="55" yMin="-23" xMax="1439" yMax="2014">
      <component glyphName="O" x="0" y="0" flags="0x0"/>
      <component glyphName="hungarumlaut.cap" x="240" y="0" flags="0x0"/>
    </TTGlyph>
    <TTGlyph name="Omacron" xMin="60" yMin="-23" xMax="1444" yMax="1915">
      <component glyphName="macron.cap" x="415" y="0" flags="0x0"/>
      <component glyphName="O" x="5" y="0" flags="0x0"/>
    </TTGlyph>
    <TTGlyph name="Oslash" xMin="55" yMin="-240" xMax="1439" yMax="1743">
      <contour>
        <pt x="398" y="45" on="1"/>
        <pt x="225" y="131" on="0"/>
        <pt x="55" y="497" on="0"/>
        <pt x="55" y="755" on="1"/>
        <pt x="55" y="991" on="0"/>
        <pt x="230" y="1347" on="0"/>
        <pt x="549" y="1541" on="0"/>
        <pt x="758" y="1541" on="1"/>
        <pt x="859" y="1541" on="0"/>
        <pt x="951" y="1522" on="1"/>
        <pt x="1036" y="1743" on="1"/>
        <pt x="1179" y="1698" on="1"/>
        <pt x="1092" y="1475" on="1"/>
        <pt x="1268" y="1394" on="0"/>
        <pt x="1439" y="1041" on="0"/>
        <pt x="1439" y="784" on="1"/>
        <pt x="1439" y="546" on="0"/>
        <pt x="1264" y="182" on="0"/>
        <pt x="945" y="-21" on="0"/>
        <pt x="737" y="-23" on="1"/>
        <pt x="634" y="-23" on="0"/>
        <pt x="547" y="-5" on="1"/>
        <pt x="454" y="-240" on="1"/>
        <pt x="302" y="-197" on="1"/>
      </contour>
      <contour>
        <pt x="427" y="417" on="0"/>
        <pt x="521" y="255" on="1"/>
        <pt x="898" y="1356" on="1"/>
        <pt x="835" y="1403" on="0"/>
        <pt x="747" y="1403" on="1"/>
        <pt x="593" y="1403" on="0"/>
        <pt x="427" y="1081" on="0"/>
        <pt x="427" y="757" on="1"/>
      </contour>
      <contour>
        <pt x="603" y="161" on="1"/>
        <pt x="665" y="116" on="0"/>
        <pt x="746" y="116" on="1"/>
        <pt x="847" y="116" on="0"/>
        <pt x="990" y="266" on="0"/>
        <pt x="1067" y="565" on="0"/>
        <pt x="1067" y="783" on="1"/>
        <pt x="1067" y="1106" on="0"/>
        <pt x="979" y="1260" on="1"/>
      </contour>
    </TTGlyph>
    <TTGlyph name="Otilde" xMin="60" yMin="-23" xMax="1444" yMax="2009">
      <component glyphName="tilde.cap" x="245" y="0" flags="0x0"/>
      <component glyphName="O" x="5" y="0" flags="0x0"/>
    </TTGlyph>
    <TTGlyph name="P" xMin="77" yMin="0" xMax="1323" yMax="1534">
      <contour>
        <pt x="233" y="159" on="1"/>
        <pt x="233" y="1353" on="1"/>
        <pt x="84" y="1381" on="1"/>
        <pt x="84" y="1522" on="1"/>
        <pt x="390" y="1522" on="1"/>
        <pt x="445" y="1522" on="0"/>
        <pt x="522" y="1527" on="1"/>
        <pt x="657" y="1534" on="0"/>
        <pt x="734" y="1534" on="1"/>
        <pt x="957" y="1534" on="0"/>
        <pt x="1215" y="1430" on="0"/>
        <pt x="1323" y="1233" on="0"/>
        <pt x="1323" y="1082" on="1"/>
        <pt x="1323" y="909" on="0"/>
        <pt x="1179" y="662" on="0"/>
        <pt x="904" y="531" on="0"/>
        <pt x="713" y="531" on="1"/>
        <pt x="666" y="531" on="0"/>
        <pt x="584" y="535" on="0"/>
        <pt x="571" y="538" on="1"/>
        <pt x="571" y="160" on="1"/>
        <pt x="836" y="134" on="1"/>
        <pt x="836" y="0" on="1"/>
        <pt x="77" y="0" on="1"/>
        <pt x="77" y="134" on="1"/>
      </contour>
      <contour>
        <pt x="828" y="669" on="0"/>
        <pt x="974" y="855" on="0"/>
        <pt x="974" y="1074" on="1"/>
        <pt x="974" y="1242" on="0"/>
        <pt x="838" y="1398" on="0"/>
        <pt x="701" y="1398" on="1"/>
        <pt x="643" y="1398" on="0"/>
        <pt x="599" y="1390" on="1"/>
        <pt x="588" y="1388" on="0"/>
        <pt x="570" y="1386" on="1"/>
        <pt x="570" y="679" on="1"/>
        <pt x="617" y="669" on="0"/>
        <pt x="707" y="669" on="1"/>
      </contour>
    </TTGlyph>
    <TTGlyph name="Q" xMin="60" yMin="-391" xMax="1901" yMax="1541">
      <contour>
        <pt x="60" y="992" on="0"/>
        <pt x="236" y="1348" on="0"/>
        <pt x="555" y="1541" on="0"/>
        <pt x="765" y="1541" on="1"/>
        <pt x="1110" y="1540" on="0"/>
        <pt x="1444" y="1143" on="0"/>
        <pt x="1444" y="784" on="1"/>
        <pt x="1444" y="536" on="0"/>
        <pt x="1254" y="162" on="0"/>
        <pt x="1084" y="66" on="1"/>
        <pt x="1151" y="52" on="0"/>
        <pt x="1294" y="-8" on="0"/>
        <pt x="1406" y="-61" on="1"/>
        <pt x="1536" y="-123" on="0"/>
        <pt x="1697" y="-185" on="0"/>
        <pt x="1764" y="-185" on="1"/>
        <pt x="1766" y="-185" on="1"/>
        <pt x="1827" y="-185" on="0"/>
        <pt x="1867" y="-176" on="1"/>
        <pt x="1901" y="-282" on="1"/>
        <pt x="1899" y="-284" on="0"/>
        <pt x="1848" y="-343" on="0"/>
        <pt x="1718" y="-391" on="0"/>
        <pt x="1635" y="-391" on="1"/>
        <pt x="1624" y="-391" on="1"/>
        <pt x="1534" y="-391" on="0"/>
        <pt x="1368" y="-329" on="0"/>
        <pt x="1233" y="-240" on="0"/>
        <pt x="1139" y="-167" on="1"/>
        <pt x="1058" y="-105" on="0"/>
        <pt x="947" y="-30" on="0"/>
        <pt x="891" y="-7" on="1"/>
        <pt x="817" y="-23" on="0"/>
        <pt x="731" y="-23" on="1"/>
        <pt x="503" y="-23" on="0"/>
        <pt x="204" y="170" on="0"/>
        <pt x="60" y="518" on="0"/>
        <pt x="60" y="755" on="1"/>
      </contour>
      <contour>
        <pt x="432" y="436" on="0"/>
        <pt x="598" y="116" on="0"/>
        <pt x="751" y="116" on="1"/>
        <pt x="852" y="116" on="0"/>
        <pt x="995" y="266" on="0"/>
        <pt x="1072" y="565" on="0"/>
        <pt x="1072" y="783" on="1"/>
        <pt x="1072" y="1101" on="0"/>
        <pt x="907" y="1403" on="0"/>
        <pt x="752" y="1403" on="1"/>
        <pt x="598" y="1403" on="0"/>
        <pt x="432" y="1081" on="0"/>
        <pt x="432" y="757" on="1"/>
      </contour>
    </TTGlyph>
    <TTGlyph name="R" xMin="77" yMin="0" xMax="1490" yMax="1535">
      <contour>
        <pt x="233" y="159" on="1"/>
        <pt x="233" y="1353" on="1"/>
        <pt x="84" y="1381" on="1"/>
        <pt x="84" y="1522" on="1"/>
        <pt x="395" y="1522" on="1"/>
        <pt x="448" y="1522" on="0"/>
        <pt x="552" y="1528" on="1"/>
        <pt x="564" y="1529" on="0"/>
        <pt x="676" y="1535" on="0"/>
        <pt x="737" y="1535" on="1"/>
        <pt x="953" y="1535" on="0"/>
        <pt x="1209" y="1450" on="0"/>
        <pt x="1323" y="1273" on="0"/>
        <pt x="1323" y="1128" on="1"/>
        <pt x="1323" y="1040" on="0"/>
        <pt x="1258" y="869" on="0"/>
        <pt x="1126" y="735" on="0"/>
        <pt x="1030" y="705" on="1"/>
        <pt x="1090" y="680" on="0"/>
        <pt x="1189" y="567" on="0"/>
        <pt x="1260" y="436" on="0"/>
        <pt x="1303" y="343" on="1"/>
        <pt x="1347" y="250" on="0"/>
        <pt x="1399" y="163" on="0"/>
        <pt x="1427" y="156" on="1"/>
        <pt x="1490" y="134" on="1"/>
        <pt x="1490" y="0" on="1"/>
        <pt x="1101" y="0" on="1"/>
        <pt x="1070" y="0" on="0"/>
        <pt x="1008" y="131" on="0"/>
        <pt x="957" y="271" on="1"/>
        <pt x="919" y="378" on="0"/>
        <pt x="862" y="518" on="0"/>
        <pt x="794" y="630" on="0"/>
        <pt x="757" y="649" on="1"/>
        <pt x="603" y="649" on="0"/>
        <pt x="571" y="651" on="1"/>
        <pt x="571" y="158" on="1"/>
        <pt x="753" y="134" on="1"/>
        <pt x="753" y="0" on="1"/>
        <pt x="77" y="0" on="1"/>
        <pt x="77" y="134" on="1"/>
      </contour>
      <contour>
        <pt x="842" y="785" on="0"/>
        <pt x="964" y="949" on="0"/>
        <pt x="964" y="1115" on="1"/>
        <pt x="964" y="1258" on="0"/>
        <pt x="842" y="1399" on="0"/>
        <pt x="701" y="1399" on="1"/>
        <pt x="618" y="1399" on="0"/>
        <pt x="571" y="1389" on="1"/>
        <pt x="571" y="789" on="1"/>
        <pt x="587" y="784" on="0"/>
        <pt x="655" y="784" on="1"/>
        <pt x="731" y="785" on="1"/>
      </contour>
    </TTGlyph>
    <TTGlyph name="Racute" xMin="77" yMin="0" xMax="1490" yMax="2014">
      <component glyphName="R" x="0" y="0" flags="0x0"/>
      <component glyphName="acute.cap" x="158" y="0" flags="0x0"/>
    </TTGlyph>
    <TTGlyph name="Rcaron" xMin="77" yMin="0" xMax="1490" yMax="2014">
      <component glyphName="caron.cap" x="396" y="0" flags="0x0"/>
      <component glyphName="R" x="0" y="0" flags="0x0"/>
    </TTGlyph>
    <TTGlyph name="Rcommaaccent" xMin="77" yMin="-560" xMax="1490" yMax="1535">
      <component glyphName="uni0326" x="1128" y="0" flags="0x0"/>
      <component glyphName="R" x="0" y="0" flags="0x0"/>
    </TTGlyph>
    <TTGlyph name="S" xMin="111" yMin="-23" xMax="1186" yMax="1541">
      <contour>
        <pt x="128" y="448" on="1"/>
        <pt x="315" y="448" on="1"/>
        <pt x="366" y="194" on="1"/>
        <pt x="391" y="164" on="0"/>
        <pt x="517" y="121" on="0"/>
        <pt x="599" y="121" on="1"/>
        <pt x="725" y="121" on="0"/>
        <pt x="846" y="229" on="0"/>
        <pt x="846" y="328" on="1"/>
        <pt x="846" y="395" on="0"/>
        <pt x="769" y="497" on="0"/>
        <pt x="630" y="580" on="0"/>
        <pt x="508" y="637" on="1"/>
        <pt x="345" y="713" on="0"/>
        <pt x="118" y="941" on="0"/>
        <pt x="118" y="1127" on="1"/>
        <pt x="118" y="1241" on="0"/>
        <pt x="237" y="1429" on="0"/>
        <pt x="477" y="1541" on="0"/>
        <pt x="651" y="1541" on="1"/>
        <pt x="755" y="1541" on="0"/>
        <pt x="920" y="1510" on="0"/>
        <pt x="1007" y="1486" on="1"/>
        <pt x="1066" y="1470" on="0"/>
        <pt x="1083" y="1468" on="1"/>
        <pt x="1070" y="1108" on="1"/>
        <pt x="888" y="1108" on="1"/>
        <pt x="839" y="1352" on="1"/>
        <pt x="824" y="1371" on="0"/>
        <pt x="723" y="1403" on="0"/>
        <pt x="661" y="1403" on="1"/>
        <pt x="547" y="1403" on="0"/>
        <pt x="439" y="1301" on="0"/>
        <pt x="439" y="1214" on="1"/>
        <pt x="439" y="1143" on="0"/>
        <pt x="527" y="1036" on="0"/>
        <pt x="664" y="954" on="0"/>
        <pt x="795" y="889" on="1"/>
        <pt x="907" y="833" on="0"/>
        <pt x="1070" y="722" on="0"/>
        <pt x="1186" y="550" on="0"/>
        <pt x="1186" y="435" on="1"/>
        <pt x="1186" y="322" on="0"/>
        <pt x="1074" y="114" on="0"/>
        <pt x="816" y="-23" on="0"/>
        <pt x="610" y="-23" on="1"/>
        <pt x="496" y="-23" on="0"/>
        <pt x="305" y="15" on="0"/>
        <pt x="202" y="45" on="1"/>
        <pt x="133" y="66" on="0"/>
        <pt x="111" y="68" on="1"/>
      </contour>
    </TTGlyph>
    <TTGlyph name="Sacute" xMin="111" yMin="-23" xMax="1186" yMax="2014">
      <component glyphName="S" x="0" y="0" flags="0x0"/>
      <component glyphName="acute.cap" x="80" y="0" flags="0x0"/>
    </TTGlyph>
    <TTGlyph name="Scaron" xMin="111" yMin="-23" xMax="1186" yMax="2014">
      <component glyphName="S" x="0" y="0" flags="0x0"/>
      <component glyphName="caron.cap" x="318" y="0" flags="0x0"/>
    </TTGlyph>
    <TTGlyph name="Scedilla" xMin="111" yMin="-520" xMax="1186" yMax="1541">
      <contour>
        <pt x="1186" y="333" on="0"/>
        <pt x="1093" y="139" on="0"/>
        <pt x="881" y="-1" on="0"/>
        <pt x="712" y="-18" on="1"/>
        <pt x="760" y="-71" on="0"/>
        <pt x="832" y="-218" on="0"/>
        <pt x="828" y="-296" on="1"/>
        <pt x="822" y="-419" on="0"/>
        <pt x="676" y="-520" on="0"/>
        <pt x="530" y="-520" on="1"/>
        <pt x="529" y="-520" on="1"/>
        <pt x="495" y="-520" on="0"/>
        <pt x="411" y="-503" on="0"/>
        <pt x="385" y="-491" on="1"/>
        <pt x="386" y="-301" on="1"/>
        <pt x="405" y="-307" on="0"/>
        <pt x="455" y="-314" on="0"/>
        <pt x="468" y="-314" on="1"/>
        <pt x="469" y="-314" on="1"/>
        <pt x="519" y="-314" on="0"/>
        <pt x="575" y="-296" on="0"/>
        <pt x="605" y="-236" on="0"/>
        <pt x="605" y="-175" on="1"/>
        <pt x="605" y="-139" on="0"/>
        <pt x="578" y="-56" on="0"/>
        <pt x="560" y="-22" on="1"/>
        <pt x="460" y="-17" on="0"/>
        <pt x="291" y="19" on="0"/>
        <pt x="200" y="46" on="1"/>
        <pt x="193" y="48" on="0"/>
        <pt x="129" y="66" on="0"/>
        <pt x="111" y="68" on="1"/>
        <pt x="128" y="448" on="1"/>
        <pt x="315" y="448" on="1"/>
        <pt x="366" y="194" on="1"/>
        <pt x="391" y="164" on="0"/>
        <pt x="517" y="121" on="0"/>
        <pt x="599" y="121" on="1"/>
        <pt x="725" y="121" on="0"/>
        <pt x="846" y="229" on="0"/>
        <pt x="846" y="328" on="1"/>
        <pt x="846" y="395" on="0"/>
        <pt x="769" y="497" on="0"/>
        <pt x="630" y="580" on="0"/>
        <pt x="508" y="637" on="1"/>
        <pt x="345" y="713" on="0"/>
        <pt x="118" y="941" on="0"/>
        <pt x="118" y="1127" on="1"/>
        <pt x="118" y="1241" on="0"/>
        <pt x="237" y="1429" on="0"/>
        <pt x="477" y="1541" on="0"/>
        <pt x="651" y="1541" on="1"/>
        <pt x="755" y="1541" on="0"/>
        <pt x="920" y="1510" on="0"/>
        <pt x="1007" y="1486" on="1"/>
        <pt x="1066" y="1470" on="0"/>
        <pt x="1083" y="1468" on="1"/>
        <pt x="1070" y="1108" on="1"/>
        <pt x="888" y="1108" on="1"/>
        <pt x="839" y="1352" on="1"/>
        <pt x="824" y="1371" on="0"/>
        <pt x="723" y="1403" on="0"/>
        <pt x="661" y="1403" on="1"/>
        <pt x="547" y="1403" on="0"/>
        <pt x="439" y="1301" on="0"/>
        <pt x="439" y="1214" on="1"/>
        <pt x="439" y="1143" on="0"/>
        <pt x="527" y="1036" on="0"/>
        <pt x="664" y="954" on="0"/>
        <pt x="795" y="889" on="1"/>
        <pt x="907" y="833" on="0"/>
        <pt x="1070" y="722" on="0"/>
        <pt x="1186" y="550" on="0"/>
        <pt x="1186" y="435" on="1"/>
      </contour>
    </TTGlyph>
    <TTGlyph name="Scircumflex" xMin="111" yMin="-23" xMax="1186" yMax="2008">
      <component glyphName="S" x="0" y="0" flags="0x0"/>
      <component glyphName="circumflex.cap" x="126" y="0" flags="0x0"/>
    </TTGlyph>
    <TTGlyph name="Scommaaccent" xMin="111" yMin="-560" xMax="1186" yMax="1541">
      <component glyphName="uni0326" x="973" y="0" flags="0x0"/>
      <component glyphName="S" x="0" y="0" flags="0x0"/>
    </TTGlyph>
    <TTGlyph name="T" xMin="34" yMin="0" xMax="1420" yMax="1522">
      <contour>
        <pt x="565" y="160" on="1"/>
        <pt x="565" y="1371" on="1"/>
        <pt x="307" y="1361" on="1"/>
        <pt x="224" y="917" on="1"/>
        <pt x="34" y="917" on="1"/>
        <pt x="64" y="1522" on="1"/>
        <pt x="1391" y="1522" on="1"/>
        <pt x="1420" y="917" on="1"/>
        <pt x="1237" y="917" on="1"/>
        <pt x="1149" y="1361" on="1"/>
        <pt x="907" y="1371" on="1"/>
        <pt x="907" y="161" on="1"/>
        <pt x="1187" y="134" on="1"/>
        <pt x="1187" y="0" on="1"/>
        <pt x="308" y="0" on="1"/>
        <pt x="308" y="134" on="1"/>
      </contour>
    </TTGlyph>
    <TTGlyph name="Tbar" xMin="46" yMin="0" xMax="1432" yMax="1522">
      <contour>
        <pt x="577" y="749" on="1"/>
        <pt x="577" y="1371" on="1"/>
        <pt x="319" y="1361" on="1"/>
        <pt x="236" y="917" on="1"/>
        <pt x="46" y="917" on="1"/>
        <pt x="76" y="1522" on="1"/>
        <pt x="1403" y="1522" on="1"/>
        <pt x="1432" y="917" on="1"/>
        <pt x="1249" y="917" on="1"/>
        <pt x="1161" y="1361" on="1"/>
        <pt x="919" y="1371" on="1"/>
        <pt x="919" y="749" on="1"/>
        <pt x="1133" y="749" on="1"/>
        <pt x="1133" y="598" on="1"/>
        <pt x="919" y="598" on="1"/>
        <pt x="919" y="161" on="1"/>
        <pt x="1199" y="134" on="1"/>
        <pt x="1199" y="0" on="1"/>
        <pt x="320" y="0" on="1"/>
        <pt x="320" y="134" on="1"/>
        <pt x="577" y="160" on="1"/>
        <pt x="577" y="598" on="1"/>
        <pt x="358" y="598" on="1"/>
        <pt x="358" y="749" on="1"/>
      </contour>
    </TTGlyph>
    <TTGlyph name="Tcaron" xMin="34" yMin="0" xMax="1420" yMax="2014">
      <component glyphName="caron.cap" x="413" y="0" flags="0x0"/>
      <component glyphName="T" x="0" y="0" flags="0x0"/>
    </TTGlyph>
    <TTGlyph name="Thorn" xMin="73" yMin="0" xMax="1321" yMax="1522">
      <contour>
        <pt x="232" y="158" on="1"/>
        <pt x="232" y="1354" on="1"/>
        <pt x="73" y="1384" on="1"/>
        <pt x="73" y="1522" on="1"/>
        <pt x="737" y="1522" on="1"/>
        <pt x="739" y="1384" on="1"/>
        <pt x="571" y="1354" on="1"/>
        <pt x="571" y="1173" on="1"/>
        <pt x="648" y="1180" on="1"/>
        <pt x="771" y="1193" on="0"/>
        <pt x="866" y="1193" on="1"/>
        <pt x="1091" y="1193" on="0"/>
        <pt x="1321" y="991" on="0"/>
        <pt x="1321" y="788" on="1"/>
        <pt x="1321" y="555" on="0"/>
        <pt x="1053" y="325" on="0"/>
        <pt x="805" y="325" on="1"/>
        <pt x="686" y="325" on="0"/>
        <pt x="571" y="337" on="1"/>
        <pt x="571" y="158" on="1"/>
        <pt x="780" y="132" on="1"/>
        <pt x="780" y="0" on="1"/>
        <pt x="73" y="0" on="1"/>
        <pt x="73" y="132" on="1"/>
      </contour>
      <contour>
        <pt x="964" y="896" on="0"/>
        <pt x="850" y="1047" on="0"/>
        <pt x="724" y="1047" on="1"/>
        <pt x="648" y="1047" on="0"/>
        <pt x="571" y="1032" on="1"/>
        <pt x="571" y="471" on="1"/>
        <pt x="613" y="464" on="0"/>
        <pt x="686" y="462" on="0"/>
        <pt x="746" y="462" on="1"/>
        <pt x="810" y="462" on="0"/>
        <pt x="908" y="532" on="0"/>
        <pt x="964" y="672" on="0"/>
        <pt x="964" y="774" on="1"/>
      </contour>
    </TTGlyph>
    <TTGlyph name="U" xMin="30" yMin="-16" xMax="1499" yMax="1522">
      <contour>
        <pt x="160" y="1352" on="1"/>
        <pt x="30" y="1381" on="1"/>
        <pt x="30" y="1522" on="1"/>
        <pt x="680" y="1522" on="1"/>
        <pt x="680" y="1381" on="1"/>
        <pt x="511" y="1351" on="1"/>
        <pt x="511" y="595" on="1"/>
        <pt x="511" y="356" on="0"/>
        <pt x="671" y="126" on="0"/>
        <pt x="833" y="126" on="1"/>
        <pt x="993" y="126" on="0"/>
        <pt x="1147" y="370" on="0"/>
        <pt x="1147" y="590" on="1"/>
        <pt x="1147" y="1352" on="1"/>
        <pt x="975" y="1381" on="1"/>
        <pt x="975" y="1522" on="1"/>
        <pt x="1499" y="1522" on="1"/>
        <pt x="1499" y="1381" on="1"/>
        <pt x="1364" y="1352" on="1"/>
        <pt x="1364" y="607" on="1"/>
        <pt x="1364" y="391" on="0"/>
        <pt x="1217" y="112" on="0"/>
        <pt x="959" y="-16" on="0"/>
        <pt x="787" y="-16" on="1"/>
        <pt x="572" y="-16" on="0"/>
        <pt x="296" y="116" on="0"/>
        <pt x="160" y="398" on="0"/>
        <pt x="160" y="624" on="1"/>
      </contour>
    </TTGlyph>
    <TTGlyph name="Uacute" xMin="30" yMin="-16" xMax="1499" yMax="2014">
      <component glyphName="acute.cap" x="226" y="0" flags="0x0"/>
      <component glyphName="U" x="0" y="0" flags="0x0"/>
    </TTGlyph>
    <TTGlyph name="Ubreve" xMin="30" yMin="-16" xMax="1499" yMax="2004">
      <component glyphName="breve.cap" x="290" y="0" flags="0x0"/>
      <component glyphName="U" x="0" y="0" flags="0x0"/>
    </TTGlyph>
    <TTGlyph name="Ucircumflex" xMin="30" yMin="-16" xMax="1499" yMax="2008">
      <component glyphName="U" x="0" y="0" flags="0x0"/>
      <component glyphName="circumflex.cap" x="273" y="0" flags="0x0"/>
    </TTGlyph>
    <TTGlyph name="Udieresis" xMin="30" yMin="-16" xMax="1499" yMax="1997">
      <component glyphName="dieresis.cap" x="291" y="0" flags="0x0"/>
      <component glyphName="U" x="0" y="0" flags="0x0"/>
    </TTGlyph>
    <TTGlyph name="Ugrave" xMin="30" yMin="-16" xMax="1499" yMax="2014">
      <component glyphName="grave.cap" x="343" y="0" flags="0x0"/>
      <component glyphName="U" x="0" y="0" flags="0x0"/>
    </TTGlyph>
    <TTGlyph name="Uhungarumlaut" xMin="30" yMin="-16" xMax="1499" yMax="2014">
      <component glyphName="U" x="0" y="0" flags="0x0"/>
      <component glyphName="hungarumlaut.cap" x="290" y="0" flags="0x0"/>
    </TTGlyph>
    <TTGlyph name="Umacron" xMin="30" yMin="-16" xMax="1499" yMax="1915">
      <component glyphName="macron.cap" x="460" y="0" flags="0x0"/>
      <component glyphName="U" x="0" y="0" flags="0x0"/>
    </TTGlyph>
    <TTGlyph name="Uogonek" xMin="30" yMin="-513" xMax="1499" yMax="1522">
      <contour>
        <pt x="160" y="1352" on="1"/>
        <pt x="30" y="1381" on="1"/>
        <pt x="30" y="1522" on="1"/>
        <pt x="680" y="1522" on="1"/>
        <pt x="680" y="1381" on="1"/>
        <pt x="511" y="1351" on="1"/>
        <pt x="511" y="595" on="1"/>
        <pt x="511" y="356" on="0"/>
        <pt x="671" y="126" on="0"/>
        <pt x="833" y="126" on="1"/>
        <pt x="993" y="126" on="0"/>
        <pt x="1147" y="370" on="0"/>
        <pt x="1147" y="590" on="1"/>
        <pt x="1147" y="1352" on="1"/>
        <pt x="975" y="1381" on="1"/>
        <pt x="975" y="1522" on="1"/>
        <pt x="1499" y="1522" on="1"/>
        <pt x="1499" y="1381" on="1"/>
        <pt x="1364" y="1352" on="1"/>
        <pt x="1364" y="607" on="1"/>
        <pt x="1364" y="372" on="0"/>
        <pt x="1191" y="84" on="0"/>
        <pt x="1035" y="25" on="1"/>
        <pt x="951" y="-36" on="0"/>
        <pt x="856" y="-157" on="0"/>
        <pt x="856" y="-211" on="1"/>
        <pt x="856" y="-264" on="0"/>
        <pt x="927" y="-330" on="0"/>
        <pt x="986" y="-330" on="1"/>
        <pt x="1020" y="-330" on="0"/>
        <pt x="1072" y="-318" on="0"/>
        <pt x="1110" y="-304" on="1"/>
        <pt x="1110" y="-444" on="1"/>
        <pt x="1068" y="-475" on="0"/>
        <pt x="925" y="-513" on="0"/>
        <pt x="859" y="-513" on="1"/>
        <pt x="743" y="-513" on="0"/>
        <pt x="589" y="-412" on="0"/>
        <pt x="589" y="-309" on="1"/>
        <pt x="589" y="-254" on="0"/>
        <pt x="660" y="-140" on="0"/>
        <pt x="773" y="-45" on="0"/>
        <pt x="835" y="-14" on="1"/>
        <pt x="803" y="-16" on="0"/>
        <pt x="787" y="-16" on="1"/>
        <pt x="572" y="-16" on="0"/>
        <pt x="296" y="116" on="0"/>
        <pt x="160" y="398" on="0"/>
        <pt x="160" y="624" on="1"/>
      </contour>
    </TTGlyph>
    <TTGlyph name="Uring" xMin="30" yMin="-16" xMax="1499" yMax="2114">
      <component glyphName="U" x="0" y="0" flags="0x0"/>
      <component glyphName="ring.cap" x="348" y="100" flags="0x4"/>
    </TTGlyph>
    <TTGlyph name="Utilde" xMin="30" yMin="-16" xMax="1499" yMax="2009">
      <component glyphName="tilde.cap" x="290" y="0" flags="0x0"/>
      <component glyphName="U" x="0" y="0" flags="0x0"/>
    </TTGlyph>
    <TTGlyph name="V" xMin="-36" yMin="-15" xMax="1463" yMax="1522">
      <contour>
        <pt x="-36" y="1381" on="1"/>
        <pt x="-36" y="1522" on="1"/>
        <pt x="624" y="1522" on="1"/>
        <pt x="624" y="1381" on="1"/>
        <pt x="452" y="1353" on="1"/>
        <pt x="736" y="453" on="1"/>
        <pt x="784" y="272" on="1"/>
        <pt x="824" y="454" on="1"/>
        <pt x="1104" y="1352" on="1"/>
        <pt x="949" y="1381" on="1"/>
        <pt x="949" y="1522" on="1"/>
        <pt x="1463" y="1522" on="1"/>
        <pt x="1463" y="1381" on="1"/>
        <pt x="1331" y="1353" on="1"/>
        <pt x="861" y="-15" on="1"/>
        <pt x="588" y="-15" on="1"/>
        <pt x="86" y="1353" on="1"/>
      </contour>
    </TTGlyph>
    <TTGlyph name="W" xMin="-39" yMin="-10" xMax="2133" yMax="1522">
      <contour>
        <pt x="-39" y="1381" on="1"/>
        <pt x="-39" y="1522" on="1"/>
        <pt x="603" y="1522" on="1"/>
        <pt x="603" y="1381" on="1"/>
        <pt x="435" y="1351" on="1"/>
        <pt x="682" y="444" on="1"/>
        <pt x="719" y="246" on="1"/>
        <pt x="754" y="444" on="1"/>
        <pt x="963" y="1176" on="1"/>
        <pt x="905" y="1352" on="1"/>
        <pt x="777" y="1381" on="1"/>
        <pt x="777" y="1522" on="1"/>
        <pt x="1444" y="1522" on="1"/>
        <pt x="1444" y="1381" on="1"/>
        <pt x="1254" y="1352" on="1"/>
        <pt x="1502" y="444" on="1"/>
        <pt x="1545" y="231" on="1"/>
        <pt x="1580" y="444" on="1"/>
        <pt x="1808" y="1352" on="1"/>
        <pt x="1630" y="1381" on="1"/>
        <pt x="1630" y="1522" on="1"/>
        <pt x="2133" y="1522" on="1"/>
        <pt x="2133" y="1381" on="1"/>
        <pt x="2004" y="1351" on="1"/>
        <pt x="1617" y="-10" on="1"/>
        <pt x="1314" y="-10" on="1"/>
        <pt x="1049" y="900" on="1"/>
        <pt x="796" y="-10" on="1"/>
        <pt x="499" y="-10" on="1"/>
        <pt x="81" y="1351" on="1"/>
      </contour>
    </TTGlyph>
    <TTGlyph name="Wacute" xMin="-43" yMin="-10" xMax="2129" yMax="2014">
      <component glyphName="acute.cap" x="492" y="0" flags="0x0"/>
      <component glyphName="W" x="-4" y="0" flags="0x0"/>
    </TTGlyph>
    <TTGlyph name="Wcircumflex" xMin="-39" yMin="-10" xMax="2133" yMax="2008">
      <component glyphName="W" x="0" y="0" flags="0x0"/>
      <component glyphName="circumflex.cap" x="543" y="0" flags="0x0"/>
    </TTGlyph>
    <TTGlyph name="Wdieresis" xMin="-43" yMin="-10" xMax="2129" yMax="1997">
      <component glyphName="dieresis.cap" x="556" y="0" flags="0x0"/>
      <component glyphName="W" x="-4" y="0" flags="0x0"/>
    </TTGlyph>
    <TTGlyph name="Wgrave" xMin="-43" yMin="-10" xMax="2129" yMax="2014">
      <component glyphName="grave.cap" x="603" y="0" flags="0x0"/>
      <component glyphName="W" x="-4" y="0" flags="0x0"/>
    </TTGlyph>
    <TTGlyph name="X" xMin="10" yMin="0" xMax="1485" yMax="1522">
      <contour>
        <pt x="180" y="159" on="1"/>
        <pt x="573" y="739" on="1"/>
        <pt x="164" y="1352" on="1"/>
        <pt x="26" y="1381" on="1"/>
        <pt x="26" y="1522" on="1"/>
        <pt x="717" y="1522" on="1"/>
        <pt x="717" y="1381" on="1"/>
        <pt x="562" y="1351" on="1"/>
        <pt x="820" y="919" on="1"/>
        <pt x="1089" y="1353" on="1"/>
        <pt x="922" y="1381" on="1"/>
        <pt x="922" y="1522" on="1"/>
        <pt x="1458" y="1522" on="1"/>
        <pt x="1458" y="1381" on="1"/>
        <pt x="1296" y="1353" on="1"/>
        <pt x="904" y="814" on="1"/>
        <pt x="1344" y="160" on="1"/>
        <pt x="1485" y="134" on="1"/>
        <pt x="1485" y="0" on="1"/>
        <pt x="794" y="0" on="1"/>
        <pt x="794" y="134" on="1"/>
        <pt x="948" y="160" on="1"/>
        <pt x="661" y="629" on="1"/>
        <pt x="393" y="159" on="1"/>
        <pt x="577" y="134" on="1"/>
        <pt x="577" y="0" on="1"/>
        <pt x="10" y="0" on="1"/>
        <pt x="10" y="134" on="1"/>
      </contour>
    </TTGlyph>
    <TTGlyph name="Y" xMin="-35" yMin="0" xMax="1387" yMax="1522">
      <contour>
        <pt x="509" y="159" on="1"/>
        <pt x="509" y="609" on="1"/>
        <pt x="85" y="1352" on="1"/>
        <pt x="-35" y="1381" on="1"/>
        <pt x="-35" y="1522" on="1"/>
        <pt x="603" y="1522" on="1"/>
        <pt x="603" y="1381" on="1"/>
        <pt x="468" y="1352" on="1"/>
        <pt x="707" y="871" on="1"/>
        <pt x="753" y="742" on="1"/>
        <pt x="804" y="869" on="1"/>
        <pt x="1023" y="1353" on="1"/>
        <pt x="870" y="1381" on="1"/>
        <pt x="870" y="1522" on="1"/>
        <pt x="1387" y="1522" on="1"/>
        <pt x="1387" y="1381" on="1"/>
        <pt x="1260" y="1355" on="1"/>
        <pt x="866" y="609" on="1"/>
        <pt x="866" y="160" on="1"/>
        <pt x="1083" y="134" on="1"/>
        <pt x="1083" y="0" on="1"/>
        <pt x="300" y="0" on="1"/>
        <pt x="300" y="134" on="1"/>
      </contour>
    </TTGlyph>
    <TTGlyph name="Yacute" xMin="-35" yMin="0" xMax="1387" yMax="2014">
      <component glyphName="Y" x="0" y="0" flags="0x0"/>
      <component glyphName="acute.cap" x="128" y="0" flags="0x0"/>
    </TTGlyph>
    <TTGlyph name="Ycircumflex" xMin="-35" yMin="0" xMax="1387" yMax="2008">
      <component glyphName="Y" x="0" y="0" flags="0x0"/>
      <component glyphName="circumflex.cap" x="174" y="0" flags="0x0"/>
    </TTGlyph>
    <TTGlyph name="Ydieresis" xMin="-35" yMin="0" xMax="1387" yMax="1997">
      <component glyphName="Y" x="0" y="0" flags="0x0"/>
      <component glyphName="dieresis.cap" x="191" y="0" flags="0x0"/>
    </TTGlyph>
    <TTGlyph name="Ygrave" xMin="-35" yMin="0" xMax="1387" yMax="2014">
      <component glyphName="Y" x="0" y="0" flags="0x0"/>
      <component glyphName="grave.cap" x="238" y="0" flags="0x0"/>
    </TTGlyph>
    <TTGlyph name="Z" xMin="31" yMin="0" xMax="1284" yMax="1527">
      <contour>
        <pt x="779" y="1261" on="1"/>
        <pt x="896" y="1394" on="1"/>
        <pt x="410" y="1367" on="1"/>
        <pt x="292" y="1091" on="1"/>
        <pt x="121" y="1116" on="1"/>
        <pt x="170" y="1527" on="1"/>
        <pt x="1223" y="1527" on="1"/>
        <pt x="1277" y="1406" on="1"/>
        <pt x="544" y="266" on="1"/>
        <pt x="407" y="139" on="1"/>
        <pt x="990" y="181" on="1"/>
        <pt x="1111" y="490" on="1"/>
        <pt x="1284" y="456" on="1"/>
        <pt x="1238" y="0" on="1"/>
        <pt x="102" y="0" on="1"/>
        <pt x="31" y="120" on="1"/>
      </contour>
    </TTGlyph>
    <TTGlyph name="Zacute" xMin="31" yMin="0" xMax="1284" yMax="2014">
      <component glyphName="Z" x="0" y="0" flags="0x0"/>
      <component glyphName="acute.cap" x="143" y="0" flags="0x0"/>
    </TTGlyph>
    <TTGlyph name="Zcaron" xMin="31" yMin="0" xMax="1284" yMax="2014">
      <component glyphName="caron.cap" x="382" y="0" flags="0x0"/>
      <component glyphName="Z" x="0" y="0" flags="0x0"/>
    </TTGlyph>
    <TTGlyph name="Zdotaccent" xMin="31" yMin="0" xMax="1284" yMax="1998">
      <component glyphName="dotaccent.cap" x="424" y="0" flags="0x0"/>
      <component glyphName="Z" x="0" y="0" flags="0x0"/>
    </TTGlyph>
    <TTGlyph name="a" xMin="58" yMin="-25" xMax="1130" yMax="1164">
      <contour>
        <pt x="721" y="743" on="1"/>
        <pt x="721" y="818" on="0"/>
        <pt x="688" y="906" on="0"/>
        <pt x="600" y="950" on="0"/>
        <pt x="518" y="950" on="1"/>
        <pt x="416" y="950" on="0"/>
        <pt x="251" y="905" on="0"/>
        <pt x="168" y="869" on="1"/>
        <pt x="167" y="869" on="1"/>
        <pt x="102" y="1004" on="1"/>
        <pt x="135" y="1032" on="0"/>
        <pt x="288" y="1107" on="0"/>
        <pt x="493" y="1164" on="0"/>
        <pt x="600" y="1164" on="1"/>
        <pt x="760" y="1164" on="0"/>
        <pt x="943" y="1081" on="0"/>
        <pt x="1021" y="901" on="0"/>
        <pt x="1021" y="748" on="1"/>
        <pt x="1021" y="135" on="1"/>
        <pt x="1130" y="135" on="1"/>
        <pt x="1130" y="8" on="1"/>
        <pt x="1079" y="-3" on="0"/>
        <pt x="925" y="-25" on="0"/>
        <pt x="867" y="-25" on="1"/>
        <pt x="814" y="-25" on="0"/>
        <pt x="757" y="-6" on="0"/>
        <pt x="733" y="43" on="0"/>
        <pt x="733" y="90" on="1"/>
        <pt x="733" y="121" on="1"/>
        <pt x="684" y="64" on="0"/>
        <pt x="516" y="-23" on="0"/>
        <pt x="407" y="-23" on="1"/>
        <pt x="311" y="-23" on="0"/>
        <pt x="152" y="56" on="0"/>
        <pt x="58" y="210" on="0"/>
        <pt x="58" y="319" on="1"/>
        <pt x="58" y="507" on="0"/>
        <pt x="410" y="698" on="0"/>
        <pt x="721" y="701" on="1"/>
      </contour>
      <contour>
        <pt x="721" y="566" on="1"/>
        <pt x="554" y="565" on="0"/>
        <pt x="405" y="447" on="0"/>
        <pt x="405" y="356" on="1"/>
        <pt x="405" y="264" on="0"/>
        <pt x="490" y="165" on="0"/>
        <pt x="562" y="165" on="1"/>
        <pt x="597" y="165" on="0"/>
        <pt x="690" y="202" on="0"/>
        <pt x="721" y="230" on="1"/>
      </contour>
    </TTGlyph>
    <TTGlyph name="aacute" xMin="58" yMin="-25" xMax="1130" yMax="1837">
      <component glyphName="a" x="0" y="0" flags="0x0"/>
      <component glyphName="acute" x="232" y="0" flags="0x0"/>
    </TTGlyph>
    <TTGlyph name="abreve" xMin="58" yMin="-25" xMax="1130" yMax="1764">
      <component glyphName="a" x="0" y="0" flags="0x0"/>
      <component glyphName="breve" x="62" y="0" flags="0x0"/>
    </TTGlyph>
    <TTGlyph name="acircumflex" xMin="58" yMin="-25" xMax="1130" yMax="1792">
      <component glyphName="a" x="0" y="0" flags="0x0"/>
      <component glyphName="circumflex" x="55" y="0" flags="0x0"/>
    </TTGlyph>
    <TTGlyph name="acute" xMin="157" yMin="1307" xMax="710" yMax="1837">
      <contour>
        <pt x="515" y="1837" on="1"/>
        <pt x="516" y="1837" on="1"/>
        <pt x="710" y="1662" on="1"/>
        <pt x="677" y="1606" on="0"/>
        <pt x="515" y="1454" on="0"/>
        <pt x="335" y="1327" on="0"/>
        <pt x="280" y="1307" on="1"/>
        <pt x="278" y="1307" on="1"/>
        <pt x="157" y="1407" on="1"/>
      </contour>
    </TTGlyph>
    <TTGlyph name="acute.cap" xMin="418" yMin="1614" xMax="937" yMax="2014">
      <contour>
        <pt x="731" y="2014" on="1"/>
        <pt x="732" y="2014" on="1"/>
        <pt x="937" y="1866" on="1"/>
        <pt x="888" y="1807" on="0"/>
        <pt x="733" y="1699" on="0"/>
        <pt x="581" y="1625" on="0"/>
        <pt x="536" y="1614" on="1"/>
        <pt x="535" y="1614" on="1"/>
        <pt x="418" y="1702" on="1"/>
      </contour>
    </TTGlyph>
    <TTGlyph name="adieresis" xMin="58" yMin="-25" xMax="1130" yMax="1688">
      <component glyphName="a" x="0" y="0" flags="0x0"/>
      <component glyphName="dieresis" x="62" y="0" flags="0x0"/>
    </TTGlyph>
    <TTGlyph name="ae" xMin="59" yMin="-23" xMax="1715" yMax="1167">
      <contour>
        <pt x="781" y="127" on="0"/>
        <pt x="655" y="33" on="0"/>
        <pt x="493" y="-23" on="0"/>
        <pt x="405" y="-23" on="1"/>
        <pt x="310" y="-23" on="0"/>
        <pt x="152" y="52" on="0"/>
        <pt x="59" y="201" on="0"/>
        <pt x="59" y="309" on="1"/>
        <pt x="59" y="437" on="0"/>
        <pt x="223" y="612" on="0"/>
        <pt x="521" y="699" on="0"/>
        <pt x="721" y="701" on="1"/>
        <pt x="721" y="744" on="1"/>
        <pt x="721" y="817" on="0"/>
        <pt x="687" y="903" on="0"/>
        <pt x="598" y="946" on="0"/>
        <pt x="515" y="946" on="1"/>
        <pt x="414" y="946" on="0"/>
        <pt x="248" y="902" on="0"/>
        <pt x="159" y="865" on="1"/>
        <pt x="93" y="1004" on="1"/>
        <pt x="126" y="1033" on="0"/>
        <pt x="283" y="1109" on="0"/>
        <pt x="493" y="1164" on="0"/>
        <pt x="600" y="1164" on="1"/>
        <pt x="727" y="1164" on="0"/>
        <pt x="882" y="1111" on="0"/>
        <pt x="923" y="1053" on="1"/>
        <pt x="992" y="1109" on="0"/>
        <pt x="1171" y="1167" on="0"/>
        <pt x="1275" y="1167" on="1"/>
        <pt x="1492" y="1167" on="0"/>
        <pt x="1715" y="942" on="0"/>
        <pt x="1715" y="731" on="1"/>
        <pt x="1715" y="616" on="0"/>
        <pt x="1700" y="542" on="1"/>
        <pt x="1051" y="542" on="1"/>
        <pt x="1063" y="357" on="0"/>
        <pt x="1219" y="180" on="0"/>
        <pt x="1349" y="180" on="1"/>
        <pt x="1426" y="180" on="0"/>
        <pt x="1595" y="232" on="0"/>
        <pt x="1646" y="264" on="1"/>
        <pt x="1700" y="141" on="1"/>
        <pt x="1665" y="104" on="0"/>
        <pt x="1528" y="28" on="0"/>
        <pt x="1351" y="-23" on="0"/>
        <pt x="1262" y="-23" on="1"/>
        <pt x="1105" y="-23" on="0"/>
        <pt x="884" y="83" on="0"/>
        <pt x="818" y="183" on="1"/>
      </contour>
      <contour>
        <pt x="1392" y="679" on="1"/>
        <pt x="1394" y="763" on="1"/>
        <pt x="1394" y="1026" on="0"/>
        <pt x="1236" y="1026" on="1"/>
        <pt x="1179" y="1026" on="0"/>
        <pt x="1099" y="968" on="0"/>
        <pt x="1051" y="816" on="0"/>
        <pt x="1048" y="679" on="1"/>
      </contour>
      <contour>
        <pt x="721" y="406" on="0"/>
        <pt x="721" y="568" on="1"/>
        <pt x="721" y="571" on="1"/>
        <pt x="609" y="571" on="0"/>
        <pt x="469" y="509" on="0"/>
        <pt x="409" y="412" on="0"/>
        <pt x="409" y="354" on="1"/>
        <pt x="409" y="257" on="0"/>
        <pt x="488" y="165" on="0"/>
        <pt x="557" y="165" on="1"/>
        <pt x="618" y="165" on="0"/>
        <pt x="736" y="237" on="0"/>
        <pt x="767" y="284" on="1"/>
      </contour>
    </TTGlyph>
    <TTGlyph name="aeacute" xMin="59" yMin="-23" xMax="1715" yMax="1837">
      <component glyphName="acute" x="557" y="0" flags="0x0"/>
      <component glyphName="ae" x="0" y="0" flags="0x0"/>
    </TTGlyph>
    <TTGlyph name="agrave" xMin="58" yMin="-25" xMax="1130" yMax="1837">
      <component glyphName="a" x="0" y="0" flags="0x0"/>
      <component glyphName="grave" x="232" y="0" flags="0x0"/>
    </TTGlyph>
    <TTGlyph name="amacron" xMin="58" yMin="-25" xMax="1130" yMax="1616">
      <component glyphName="a" x="0" y="0" flags="0x0"/>
      <component glyphName="macron" x="232" y="0" flags="0x0"/>
    </TTGlyph>
    <TTGlyph name="ampersand" xMin="86" yMin="-22" xMax="1541" yMax="1541">
      <contour>
        <pt x="1541" y="850" on="1"/>
        <pt x="1541" y="702" on="1"/>
        <pt x="1397" y="673" on="1"/>
        <pt x="1398" y="548" on="0"/>
        <pt x="1310" y="336" on="0"/>
        <pt x="1244" y="260" on="1"/>
        <pt x="1304" y="209" on="0"/>
        <pt x="1423" y="151" on="0"/>
        <pt x="1493" y="145" on="1"/>
        <pt x="1493" y="18" on="1"/>
        <pt x="1471" y="2" on="0"/>
        <pt x="1341" y="-16" on="0"/>
        <pt x="1300" y="-16" on="1"/>
        <pt x="1216" y="-16" on="0"/>
        <pt x="1096" y="22" on="0"/>
        <pt x="1028" y="69" on="1"/>
        <pt x="960" y="22" on="0"/>
        <pt x="774" y="-22" on="0"/>
        <pt x="666" y="-22" on="1"/>
        <pt x="485" y="-22" on="0"/>
        <pt x="225" y="67" on="0"/>
        <pt x="86" y="244" on="0"/>
        <pt x="86" y="373" on="1"/>
        <pt x="86" y="501" on="0"/>
        <pt x="259" y="686" on="0"/>
        <pt x="387" y="744" on="1"/>
        <pt x="220" y="960" on="0"/>
        <pt x="220" y="1158" on="1"/>
        <pt x="220" y="1265" on="0"/>
        <pt x="340" y="1440" on="0"/>
        <pt x="550" y="1541" on="0"/>
        <pt x="678" y="1541" on="1"/>
        <pt x="810" y="1541" on="0"/>
        <pt x="990" y="1457" on="0"/>
        <pt x="1077" y="1322" on="0"/>
        <pt x="1077" y="1246" on="1"/>
        <pt x="1077" y="1139" on="0"/>
        <pt x="1000" y="985" on="0"/>
        <pt x="855" y="867" on="0"/>
        <pt x="737" y="805" on="1"/>
        <pt x="818" y="705" on="0"/>
        <pt x="1033" y="462" on="0"/>
        <pt x="1101" y="397" on="1"/>
        <pt x="1136" y="363" on="1"/>
        <pt x="1194" y="476" on="0"/>
        <pt x="1194" y="627" on="1"/>
        <pt x="1194" y="658" on="0"/>
        <pt x="1193" y="673" on="1"/>
        <pt x="1040" y="702" on="1"/>
        <pt x="1040" y="850" on="1"/>
      </contour>
      <contour>
        <pt x="746" y="973" on="0"/>
        <pt x="811" y="1139" on="0"/>
        <pt x="811" y="1245" on="1"/>
        <pt x="811" y="1314" on="0"/>
        <pt x="754" y="1426" on="0"/>
        <pt x="676" y="1426" on="1"/>
        <pt x="607" y="1426" on="0"/>
        <pt x="523" y="1315" on="0"/>
        <pt x="523" y="1213" on="1"/>
        <pt x="523" y="1123" on="0"/>
        <pt x="602" y="972" on="0"/>
        <pt x="662" y="898" on="1"/>
      </contour>
      <contour>
        <pt x="736" y="310" on="0"/>
        <pt x="472" y="638" on="1"/>
        <pt x="425" y="591" on="0"/>
        <pt x="374" y="487" on="0"/>
        <pt x="374" y="419" on="1"/>
        <pt x="374" y="334" on="0"/>
        <pt x="450" y="201" on="0"/>
        <pt x="597" y="125" on="0"/>
        <pt x="699" y="125" on="1"/>
        <pt x="820" y="125" on="0"/>
        <pt x="901" y="169" on="1"/>
      </contour>
    </TTGlyph>
    <TTGlyph name="aogonek" xMin="58" yMin="-513" xMax="1130" yMax="1164">
      <contour>
        <pt x="721" y="743" on="1"/>
        <pt x="721" y="818" on="0"/>
        <pt x="688" y="906" on="0"/>
        <pt x="600" y="950" on="0"/>
        <pt x="518" y="950" on="1"/>
        <pt x="416" y="950" on="0"/>
        <pt x="251" y="905" on="0"/>
        <pt x="168" y="869" on="1"/>
        <pt x="167" y="869" on="1"/>
        <pt x="102" y="1004" on="1"/>
        <pt x="135" y="1032" on="0"/>
        <pt x="288" y="1107" on="0"/>
        <pt x="493" y="1164" on="0"/>
        <pt x="600" y="1164" on="1"/>
        <pt x="760" y="1164" on="0"/>
        <pt x="943" y="1081" on="0"/>
        <pt x="1021" y="901" on="0"/>
        <pt x="1021" y="748" on="1"/>
        <pt x="1021" y="135" on="1"/>
        <pt x="1130" y="135" on="1"/>
        <pt x="1130" y="8" on="1"/>
        <pt x="1128" y="7" on="0"/>
        <pt x="1125" y="7" on="1"/>
        <pt x="1052" y="-14" on="0"/>
        <pt x="932" y="-93" on="0"/>
        <pt x="864" y="-184" on="0"/>
        <pt x="864" y="-220" on="1"/>
        <pt x="864" y="-273" on="0"/>
        <pt x="935" y="-330" on="0"/>
        <pt x="997" y="-330" on="1"/>
        <pt x="1031" y="-330" on="0"/>
        <pt x="1082" y="-318" on="0"/>
        <pt x="1118" y="-304" on="1"/>
        <pt x="1118" y="-445" on="1"/>
        <pt x="1077" y="-476" on="0"/>
        <pt x="936" y="-513" on="0"/>
        <pt x="870" y="-513" on="1"/>
        <pt x="747" y="-513" on="0"/>
        <pt x="597" y="-406" on="0"/>
        <pt x="597" y="-309" on="1"/>
        <pt x="597" y="-233" on="0"/>
        <pt x="743" y="-78" on="0"/>
        <pt x="860" y="-25" on="1"/>
        <pt x="810" y="-24" on="0"/>
        <pt x="756" y="-5" on="0"/>
        <pt x="733" y="43" on="0"/>
        <pt x="733" y="90" on="1"/>
        <pt x="733" y="121" on="1"/>
        <pt x="684" y="64" on="0"/>
        <pt x="516" y="-23" on="0"/>
        <pt x="407" y="-23" on="1"/>
        <pt x="311" y="-23" on="0"/>
        <pt x="152" y="56" on="0"/>
        <pt x="58" y="210" on="0"/>
        <pt x="58" y="319" on="1"/>
        <pt x="58" y="507" on="0"/>
        <pt x="410" y="698" on="0"/>
        <pt x="721" y="701" on="1"/>
      </contour>
      <contour>
        <pt x="721" y="566" on="1"/>
        <pt x="554" y="565" on="0"/>
        <pt x="405" y="447" on="0"/>
        <pt x="405" y="356" on="1"/>
        <pt x="405" y="264" on="0"/>
        <pt x="490" y="165" on="0"/>
        <pt x="562" y="165" on="1"/>
        <pt x="597" y="165" on="0"/>
        <pt x="690" y="202" on="0"/>
        <pt x="721" y="230" on="1"/>
      </contour>
    </TTGlyph>
    <TTGlyph name="approxequal" xMin="184" yMin="106" xMax="1201" yMax="1102">
      <component glyphName="asciitilde" x="-17" y="-300" flags="0x4"/>
      <component glyphName="asciitilde" x="-17" y="301" flags="0x4"/>
    </TTGlyph>
    <TTGlyph name="aring" xMin="58" yMin="-25" xMax="1130" yMax="1884">
      <component glyphName="a" x="0" y="0" flags="0x0"/>
      <component glyphName="ring" x="60" y="0" flags="0x0"/>
    </TTGlyph>
    <TTGlyph name="arrowboth" xMin="103" yMin="180" xMax="2532" yMax="1379">
      <contour>
        <pt x="1784" y="328" on="1"/>
        <pt x="2141" y="685" on="1"/>
        <pt x="1989" y="669" on="1"/>
        <pt x="646" y="669" on="1"/>
        <pt x="493" y="685" on="1"/>
        <pt x="851" y="328" on="1"/>
        <pt x="702" y="180" on="1"/>
        <pt x="103" y="779" on="1"/>
        <pt x="702" y="1379" on="1"/>
        <pt x="851" y="1231" on="1"/>
        <pt x="493" y="874" on="1"/>
        <pt x="646" y="890" on="1"/>
        <pt x="1989" y="890" on="1"/>
        <pt x="2141" y="874" on="1"/>
        <pt x="1784" y="1231" on="1"/>
        <pt x="1932" y="1379" on="1"/>
        <pt x="2532" y="779" on="1"/>
        <pt x="1932" y="180" on="1"/>
      </contour>
    </TTGlyph>
    <TTGlyph name="arrowdown" xMin="178" yMin="144" xMax="1377" yMax="1469">
      <contour>
        <pt x="1229" y="892" on="1"/>
        <pt x="1377" y="744" on="1"/>
        <pt x="777" y="144" on="1"/>
        <pt x="178" y="744" on="1"/>
        <pt x="326" y="892" on="1"/>
        <pt x="683" y="534" on="1"/>
        <pt x="667" y="687" on="1"/>
        <pt x="667" y="1469" on="1"/>
        <pt x="888" y="1469" on="1"/>
        <pt x="888" y="687" on="1"/>
        <pt x="871" y="534" on="1"/>
      </contour>
    </TTGlyph>
    <TTGlyph name="arrowleft" xMin="105" yMin="180" xMax="1430" yMax="1379">
      <contour>
        <pt x="704" y="1379" on="1"/>
        <pt x="853" y="1231" on="1"/>
        <pt x="494" y="873" on="1"/>
        <pt x="648" y="890" on="1"/>
        <pt x="1430" y="890" on="1"/>
        <pt x="1429" y="669" on="1"/>
        <pt x="648" y="669" on="1"/>
        <pt x="494" y="685" on="1"/>
        <pt x="853" y="328" on="1"/>
        <pt x="704" y="180" on="1"/>
        <pt x="105" y="779" on="1"/>
      </contour>
    </TTGlyph>
    <TTGlyph name="arrowright" xMin="111" yMin="180" xMax="1436" yMax="1379">
      <contour>
        <pt x="837" y="180" on="1"/>
        <pt x="688" y="328" on="1"/>
        <pt x="1047" y="685" on="1"/>
        <pt x="893" y="669" on="1"/>
        <pt x="112" y="669" on="1"/>
        <pt x="111" y="890" on="1"/>
        <pt x="893" y="890" on="1"/>
        <pt x="1047" y="873" on="1"/>
        <pt x="688" y="1231" on="1"/>
        <pt x="837" y="1379" on="1"/>
        <pt x="1436" y="779" on="1"/>
      </contour>
    </TTGlyph>
    <TTGlyph name="arrowup" xMin="178" yMin="133" xMax="1377" yMax="1458">
      <contour>
        <pt x="888" y="915" on="1"/>
        <pt x="888" y="133" on="1"/>
        <pt x="667" y="133" on="1"/>
        <pt x="667" y="915" on="1"/>
        <pt x="683" y="1068" on="1"/>
        <pt x="326" y="710" on="1"/>
        <pt x="178" y="858" on="1"/>
        <pt x="777" y="1458" on="1"/>
        <pt x="1377" y="858" on="1"/>
        <pt x="1229" y="710" on="1"/>
        <pt x="871" y="1068" on="1"/>
      </contour>
    </TTGlyph>
    <TTGlyph name="arrowupdn" xMin="178" yMin="-436" xMax="1377" yMax="1993">
      <contour>
        <pt x="1229" y="1245" on="1"/>
        <pt x="872" y="1603" on="1"/>
        <pt x="888" y="1450" on="1"/>
        <pt x="888" y="108" on="1"/>
        <pt x="872" y="-45" on="1"/>
        <pt x="1229" y="312" on="1"/>
        <pt x="1377" y="164" on="1"/>
        <pt x="777" y="-436" on="1"/>
        <pt x="178" y="164" on="1"/>
        <pt x="326" y="312" on="1"/>
        <pt x="683" y="-45" on="1"/>
        <pt x="667" y="108" on="1"/>
        <pt x="667" y="1450" on="1"/>
        <pt x="683" y="1603" on="1"/>
        <pt x="326" y="1245" on="1"/>
        <pt x="178" y="1394" on="1"/>
        <pt x="777" y="1993" on="1"/>
        <pt x="1377" y="1394" on="1"/>
      </contour>
    </TTGlyph>
    <TTGlyph name="asciicircum" xMin="164" yMin="273" xMax="1199" yMax="1531">
      <contour>
        <pt x="793" y="1531" on="1"/>
        <pt x="1199" y="273" on="1"/>
        <pt x="927" y="273" on="1"/>
        <pt x="680" y="1207" on="1"/>
        <pt x="434" y="273" on="1"/>
        <pt x="164" y="273" on="1"/>
        <pt x="565" y="1531" on="1"/>
      </contour>
    </TTGlyph>
    <TTGlyph name="asciitilde" xMin="201" yMin="406" xMax="1218" yMax="801">
      <contour>
        <pt x="225" y="641" on="0"/>
        <pt x="325" y="738" on="0"/>
        <pt x="459" y="801" on="0"/>
        <pt x="531" y="801" on="1"/>
        <pt x="602" y="801" on="0"/>
        <pt x="711" y="747" on="0"/>
        <pt x="775" y="698" on="1"/>
        <pt x="822" y="663" on="0"/>
        <pt x="883" y="629" on="0"/>
        <pt x="916" y="629" on="1"/>
        <pt x="984" y="629" on="0"/>
        <pt x="1074" y="686" on="0"/>
        <pt x="1117" y="738" on="1"/>
        <pt x="1218" y="620" on="1"/>
        <pt x="1190" y="564" on="0"/>
        <pt x="1091" y="467" on="0"/>
        <pt x="960" y="406" on="0"/>
        <pt x="888" y="406" on="1"/>
        <pt x="822" y="406" on="0"/>
        <pt x="725" y="456" on="0"/>
        <pt x="665" y="504" on="1"/>
        <pt x="617" y="543" on="0"/>
        <pt x="550" y="580" on="0"/>
        <pt x="511" y="580" on="1"/>
        <pt x="449" y="580" on="0"/>
        <pt x="347" y="522" on="0"/>
        <pt x="302" y="474" on="1"/>
        <pt x="201" y="591" on="1"/>
      </contour>
    </TTGlyph>
    <TTGlyph name="asterisk" xMin="127" yMin="620" xMax="1231" yMax="1727">
      <contour>
        <pt x="346" y="1102" on="1"/>
        <pt x="586" y="1174" on="1"/>
        <pt x="346" y="1242" on="1"/>
        <pt x="127" y="1336" on="1"/>
        <pt x="255" y="1559" on="1"/>
        <pt x="449" y="1416" on="1"/>
        <pt x="633" y="1248" on="1"/>
        <pt x="567" y="1483" on="1"/>
        <pt x="537" y="1727" on="1"/>
        <pt x="802" y="1727" on="1"/>
        <pt x="777" y="1486" on="1"/>
        <pt x="723" y="1252" on="1"/>
        <pt x="901" y="1421" on="1"/>
        <pt x="1093" y="1567" on="1"/>
        <pt x="1225" y="1347" on="1"/>
        <pt x="1014" y="1245" on="1"/>
        <pt x="769" y="1175" on="1"/>
        <pt x="1014" y="1109" on="1"/>
        <pt x="1231" y="1016" on="1"/>
        <pt x="1096" y="788" on="1"/>
        <pt x="911" y="929" on="1"/>
        <pt x="723" y="1096" on="1"/>
        <pt x="788" y="862" on="1"/>
        <pt x="820" y="620" on="1"/>
        <pt x="554" y="620" on="1"/>
        <pt x="578" y="862" on="1"/>
        <pt x="633" y="1098" on="1"/>
        <pt x="454" y="926" on="1"/>
        <pt x="263" y="780" on="1"/>
        <pt x="131" y="1000" on="1"/>
      </contour>
    </TTGlyph>
    <TTGlyph name="at" xMin="153" yMin="-521" xMax="2032" yMax="1556">
      <contour>
        <pt x="1502" y="1556" on="0"/>
        <pt x="1844" y="1383" on="0"/>
        <pt x="2032" y="1046" on="0"/>
        <pt x="2032" y="806" on="1"/>
        <pt x="2032" y="548" on="0"/>
        <pt x="1810" y="165" on="0"/>
        <pt x="1513" y="-38" on="0"/>
        <pt x="1412" y="-38" on="1"/>
        <pt x="1374" y="-38" on="0"/>
        <pt x="1311" y="8" on="0"/>
        <pt x="1274" y="98" on="0"/>
        <pt x="1274" y="162" on="1"/>
        <pt x="1274" y="248" on="0"/>
        <pt x="1306" y="430" on="1"/>
        <pt x="1229" y="221" on="0"/>
        <pt x="1017" y="-58" on="0"/>
        <pt x="891" y="-58" on="1"/>
        <pt x="818" y="-58" on="0"/>
        <pt x="680" y="47" on="0"/>
        <pt x="593" y="242" on="0"/>
        <pt x="593" y="370" on="1"/>
        <pt x="593" y="538" on="0"/>
        <pt x="730" y="864" on="0"/>
        <pt x="982" y="1072" on="0"/>
        <pt x="1145" y="1072" on="1"/>
        <pt x="1204" y="1072" on="0"/>
        <pt x="1330" y="1045" on="0"/>
        <pt x="1384" y="1017" on="1"/>
        <pt x="1390" y="1037" on="0"/>
        <pt x="1436" y="1071" on="0"/>
        <pt x="1456" y="1067" on="1"/>
        <pt x="1479" y="1060" on="0"/>
        <pt x="1525" y="1042" on="1"/>
        <pt x="1531" y="1040" on="0"/>
        <pt x="1584" y="1018" on="0"/>
        <pt x="1610" y="1011" on="1"/>
        <pt x="1572" y="842" on="0"/>
        <pt x="1505" y="474" on="0"/>
        <pt x="1497" y="344" on="1"/>
        <pt x="1495" y="308" on="0"/>
        <pt x="1495" y="294" on="1"/>
        <pt x="1495" y="237" on="0"/>
        <pt x="1514" y="163" on="0"/>
        <pt x="1526" y="163" on="1"/>
        <pt x="1598" y="163" on="0"/>
        <pt x="1746" y="312" on="0"/>
        <pt x="1843" y="575" on="0"/>
        <pt x="1843" y="737" on="1"/>
        <pt x="1843" y="969" on="0"/>
        <pt x="1655" y="1259" on="0"/>
        <pt x="1355" y="1385" on="0"/>
        <pt x="1177" y="1385" on="1"/>
        <pt x="954" y="1385" on="0"/>
        <pt x="580" y="1141" on="0"/>
        <pt x="360" y="692" on="0"/>
        <pt x="360" y="398" on="1"/>
        <pt x="360" y="153" on="0"/>
        <pt x="532" y="-183" on="0"/>
        <pt x="821" y="-348" on="0"/>
        <pt x="996" y="-348" on="1"/>
        <pt x="1111" y="-348" on="0"/>
        <pt x="1344" y="-297" on="0"/>
        <pt x="1401" y="-259" on="1"/>
        <pt x="1450" y="-372" on="1"/>
        <pt x="1367" y="-442" on="0"/>
        <pt x="1098" y="-521" on="0"/>
        <pt x="947" y="-521" on="1"/>
        <pt x="700" y="-521" on="0"/>
        <pt x="342" y="-313" on="0"/>
        <pt x="153" y="76" on="0"/>
        <pt x="153" y="343" on="1"/>
        <pt x="153" y="683" on="0"/>
        <pt x="465" y="1239" on="0"/>
        <pt x="982" y="1556" on="0"/>
        <pt x="1274" y="1556" on="1"/>
      </contour>
      <contour>
        <pt x="1003" y="190" on="0"/>
        <pt x="1113" y="312" on="0"/>
        <pt x="1218" y="506" on="0"/>
        <pt x="1253" y="608" on="1"/>
        <pt x="1299" y="753" on="0"/>
        <pt x="1306" y="816" on="1"/>
        <pt x="1290" y="834" on="0"/>
        <pt x="1207" y="876" on="0"/>
        <pt x="1117" y="904" on="0"/>
        <pt x="1091" y="904" on="1"/>
        <pt x="1014" y="904" on="0"/>
        <pt x="902" y="775" on="0"/>
        <pt x="845" y="568" on="0"/>
        <pt x="845" y="451" on="1"/>
        <pt x="845" y="399" on="0"/>
        <pt x="869" y="277" on="0"/>
        <pt x="922" y="190" on="0"/>
        <pt x="961" y="190" on="1"/>
      </contour>
    </TTGlyph>
    <TTGlyph name="atilde" xMin="58" yMin="-25" xMax="1130" yMax="1691">
      <component glyphName="a" x="0" y="0" flags="0x0"/>
      <component glyphName="tilde" x="62" y="0" flags="0x0"/>
    </TTGlyph>
    <TTGlyph name="b" xMin="0" yMin="-23" xMax="1204" yMax="1680">
      <contour>
        <pt x="0" y="1512" on="1"/>
        <pt x="0" y="1631" on="1"/>
        <pt x="396" y="1680" on="1"/>
        <pt x="401" y="1680" on="1"/>
        <pt x="467" y="1639" on="1"/>
        <pt x="467" y="1042" on="1"/>
        <pt x="519" y="1096" on="0"/>
        <pt x="672" y="1168" on="0"/>
        <pt x="762" y="1168" on="1"/>
        <pt x="888" y="1168" on="0"/>
        <pt x="1087" y="1051" on="0"/>
        <pt x="1204" y="799" on="0"/>
        <pt x="1204" y="606" on="1"/>
        <pt x="1204" y="428" on="0"/>
        <pt x="1056" y="142" on="0"/>
        <pt x="778" y="-23" on="0"/>
        <pt x="593" y="-23" on="1"/>
        <pt x="475" y="-23" on="0"/>
        <pt x="284" y="5" on="0"/>
        <pt x="165" y="43" on="0"/>
        <pt x="147" y="56" on="1"/>
        <pt x="147" y="1487" on="1"/>
      </contour>
      <contour>
        <pt x="467" y="153" on="1"/>
        <pt x="477" y="131" on="0"/>
        <pt x="552" y="104" on="0"/>
        <pt x="604" y="104" on="1"/>
        <pt x="680" y="104" on="0"/>
        <pt x="794" y="210" on="0"/>
        <pt x="858" y="423" on="0"/>
        <pt x="858" y="579" on="1"/>
        <pt x="858" y="779" on="0"/>
        <pt x="740" y="972" on="0"/>
        <pt x="636" y="972" on="1"/>
        <pt x="583" y="972" on="0"/>
        <pt x="493" y="926" on="0"/>
        <pt x="467" y="895" on="1"/>
      </contour>
    </TTGlyph>
    <TTGlyph name="backslash" xMin="37" yMin="-363" xMax="787" yMax="1599">
      <contour>
        <pt x="787" y="-363" on="1"/>
        <pt x="555" y="-363" on="1"/>
        <pt x="37" y="1599" on="1"/>
        <pt x="269" y="1599" on="1"/>
      </contour>
    </TTGlyph>
    <TTGlyph name="bar" xMin="319" yMin="-186" xMax="546" yMax="1780">
      <contour>
        <pt x="546" y="1780" on="1"/>
        <pt x="546" y="-186" on="1"/>
        <pt x="319" y="-186" on="1"/>
        <pt x="319" y="1780" on="1"/>
      </contour>
    </TTGlyph>
    <TTGlyph name="braceleft" xMin="169" yMin="-287" xMax="921" yMax="1656">
      <contour>
        <pt x="420" y="505" on="0"/>
        <pt x="393" y="568" on="0"/>
        <pt x="285" y="606" on="0"/>
        <pt x="169" y="606" on="1"/>
        <pt x="169" y="783" on="1"/>
        <pt x="287" y="783" on="0"/>
        <pt x="394" y="811" on="0"/>
        <pt x="420" y="863" on="0"/>
        <pt x="420" y="916" on="1"/>
        <pt x="420" y="972" on="0"/>
        <pt x="386" y="1070" on="0"/>
        <pt x="352" y="1139" on="1"/>
        <pt x="316" y="1213" on="0"/>
        <pt x="279" y="1322" on="0"/>
        <pt x="279" y="1386" on="1"/>
        <pt x="279" y="1519" on="0"/>
        <pt x="439" y="1656" on="0"/>
        <pt x="623" y="1656" on="1"/>
        <pt x="698" y="1656" on="0"/>
        <pt x="831" y="1634" on="0"/>
        <pt x="921" y="1613" on="1"/>
        <pt x="921" y="1489" on="1"/>
        <pt x="762" y="1489" on="1"/>
        <pt x="706" y="1489" on="0"/>
        <pt x="631" y="1466" on="0"/>
        <pt x="589" y="1400" on="0"/>
        <pt x="589" y="1340" on="1"/>
        <pt x="589" y="1304" on="0"/>
        <pt x="612" y="1217" on="0"/>
        <pt x="634" y="1150" on="1"/>
        <pt x="660" y="1070" on="0"/>
        <pt x="686" y="967" on="0"/>
        <pt x="686" y="919" on="1"/>
        <pt x="686" y="731" on="0"/>
        <pt x="397" y="688" on="1"/>
        <pt x="529" y="669" on="0"/>
        <pt x="686" y="555" on="0"/>
        <pt x="686" y="450" on="1"/>
        <pt x="686" y="402" on="0"/>
        <pt x="660" y="300" on="0"/>
        <pt x="634" y="221" on="1"/>
        <pt x="611" y="154" on="0"/>
        <pt x="589" y="70" on="0"/>
        <pt x="589" y="34" on="1"/>
        <pt x="589" y="-27" on="0"/>
        <pt x="631" y="-93" on="0"/>
        <pt x="705" y="-116" on="0"/>
        <pt x="762" y="-116" on="1"/>
        <pt x="921" y="-116" on="1"/>
        <pt x="921" y="-244" on="1"/>
        <pt x="831" y="-265" on="0"/>
        <pt x="698" y="-287" on="0"/>
        <pt x="623" y="-287" on="1"/>
        <pt x="438" y="-287" on="0"/>
        <pt x="279" y="-148" on="0"/>
        <pt x="279" y="-17" on="1"/>
        <pt x="279" y="47" on="0"/>
        <pt x="316" y="155" on="0"/>
        <pt x="352" y="228" on="1"/>
        <pt x="386" y="296" on="0"/>
        <pt x="420" y="393" on="0"/>
        <pt x="420" y="449" on="1"/>
      </contour>
    </TTGlyph>
    <TTGlyph name="braceright" xMin="138" yMin="-287" xMax="890" yMax="1656">
      <contour>
        <pt x="780" y="-148" on="0"/>
        <pt x="621" y="-287" on="0"/>
        <pt x="436" y="-287" on="1"/>
        <pt x="361" y="-287" on="0"/>
        <pt x="228" y="-265" on="0"/>
        <pt x="138" y="-244" on="1"/>
        <pt x="138" y="-116" on="1"/>
        <pt x="297" y="-116" on="1"/>
        <pt x="354" y="-116" on="0"/>
        <pt x="428" y="-93" on="0"/>
        <pt x="470" y="-27" on="0"/>
        <pt x="470" y="34" on="1"/>
        <pt x="470" y="70" on="0"/>
        <pt x="448" y="154" on="0"/>
        <pt x="425" y="221" on="1"/>
        <pt x="399" y="300" on="0"/>
        <pt x="373" y="402" on="0"/>
        <pt x="373" y="450" on="1"/>
        <pt x="373" y="555" on="0"/>
        <pt x="530" y="669" on="0"/>
        <pt x="662" y="688" on="1"/>
        <pt x="373" y="731" on="0"/>
        <pt x="373" y="919" on="1"/>
        <pt x="373" y="967" on="0"/>
        <pt x="399" y="1070" on="0"/>
        <pt x="425" y="1150" on="1"/>
        <pt x="447" y="1217" on="0"/>
        <pt x="470" y="1304" on="0"/>
        <pt x="470" y="1340" on="1"/>
        <pt x="470" y="1400" on="0"/>
        <pt x="428" y="1466" on="0"/>
        <pt x="353" y="1489" on="0"/>
        <pt x="297" y="1489" on="1"/>
        <pt x="138" y="1489" on="1"/>
        <pt x="138" y="1613" on="1"/>
        <pt x="228" y="1634" on="0"/>
        <pt x="361" y="1656" on="0"/>
        <pt x="436" y="1656" on="1"/>
        <pt x="620" y="1656" on="0"/>
        <pt x="780" y="1519" on="0"/>
        <pt x="780" y="1386" on="1"/>
        <pt x="780" y="1322" on="0"/>
        <pt x="743" y="1213" on="0"/>
        <pt x="707" y="1139" on="1"/>
        <pt x="673" y="1070" on="0"/>
        <pt x="639" y="972" on="0"/>
        <pt x="639" y="916" on="1"/>
        <pt x="639" y="863" on="0"/>
        <pt x="665" y="811" on="0"/>
        <pt x="772" y="783" on="0"/>
        <pt x="890" y="783" on="1"/>
        <pt x="890" y="606" on="1"/>
        <pt x="774" y="606" on="0"/>
        <pt x="666" y="568" on="0"/>
        <pt x="639" y="505" on="0"/>
        <pt x="639" y="449" on="1"/>
        <pt x="639" y="393" on="0"/>
        <pt x="673" y="296" on="0"/>
        <pt x="707" y="228" on="1"/>
        <pt x="743" y="155" on="0"/>
        <pt x="780" y="47" on="0"/>
        <pt x="780" y="-17" on="1"/>
      </contour>
    </TTGlyph>
    <TTGlyph name="bracketleft" xMin="175" yMin="-281" xMax="718" yMax="1647">
      <contour>
        <pt x="175" y="1511" on="0"/>
        <pt x="233" y="1612" on="0"/>
        <pt x="342" y="1647" on="0"/>
        <pt x="431" y="1647" on="1"/>
        <pt x="503" y="1647" on="0"/>
        <pt x="631" y="1625" on="0"/>
        <pt x="718" y="1603" on="1"/>
        <pt x="718" y="1490" on="1"/>
        <pt x="458" y="1490" on="1"/>
        <pt x="458" y="-122" on="1"/>
        <pt x="718" y="-122" on="1"/>
        <pt x="718" y="-237" on="1"/>
        <pt x="645" y="-258" on="0"/>
        <pt x="506" y="-281" on="0"/>
        <pt x="431" y="-281" on="1"/>
        <pt x="342" y="-281" on="0"/>
        <pt x="233" y="-246" on="0"/>
        <pt x="175" y="-145" on="0"/>
        <pt x="175" y="-50" on="1"/>
        <pt x="175" y="1416" on="1"/>
      </contour>
    </TTGlyph>
    <TTGlyph name="bracketright" xMin="156" yMin="-281" xMax="699" yMax="1647">
      <contour>
        <pt x="699" y="-50" on="1"/>
        <pt x="699" y="-145" on="0"/>
        <pt x="641" y="-246" on="0"/>
        <pt x="532" y="-281" on="0"/>
        <pt x="443" y="-281" on="1"/>
        <pt x="368" y="-281" on="0"/>
        <pt x="229" y="-258" on="0"/>
        <pt x="156" y="-237" on="1"/>
        <pt x="156" y="-122" on="1"/>
        <pt x="416" y="-122" on="1"/>
        <pt x="416" y="1490" on="1"/>
        <pt x="156" y="1490" on="1"/>
        <pt x="156" y="1603" on="1"/>
        <pt x="243" y="1625" on="0"/>
        <pt x="371" y="1647" on="0"/>
        <pt x="443" y="1647" on="1"/>
        <pt x="532" y="1647" on="0"/>
        <pt x="641" y="1612" on="0"/>
        <pt x="699" y="1511" on="0"/>
        <pt x="699" y="1416" on="1"/>
      </contour>
    </TTGlyph>
    <TTGlyph name="breve" xMin="141" yMin="1330" xMax="875" yMax="1764">
      <contour>
        <pt x="141" y="1746" on="0"/>
        <pt x="145" y="1764" on="1"/>
        <pt x="296" y="1764" on="1"/>
        <pt x="296" y="1742" on="0"/>
        <pt x="300" y="1721" on="1"/>
        <pt x="311" y="1652" on="0"/>
        <pt x="410" y="1555" on="0"/>
        <pt x="513" y="1555" on="1"/>
        <pt x="614" y="1555" on="0"/>
        <pt x="710" y="1652" on="0"/>
        <pt x="720" y="1721" on="1"/>
        <pt x="724" y="1742" on="0"/>
        <pt x="724" y="1764" on="1"/>
        <pt x="871" y="1764" on="1"/>
        <pt x="875" y="1692" on="0"/>
        <pt x="875" y="1675" on="1"/>
        <pt x="875" y="1580" on="0"/>
        <pt x="783" y="1422" on="0"/>
        <pt x="616" y="1330" on="0"/>
        <pt x="511" y="1330" on="1"/>
        <pt x="401" y="1330" on="0"/>
        <pt x="233" y="1422" on="0"/>
        <pt x="141" y="1579" on="0"/>
        <pt x="141" y="1674" on="1"/>
      </contour>
    </TTGlyph>
    <TTGlyph name="breve.cap" xMin="136" yMin="1627" xMax="887" yMax="2004">
      <contour>
        <pt x="136" y="1989" on="0"/>
        <pt x="138" y="2004" on="1"/>
        <pt x="296" y="2004" on="1"/>
        <pt x="298" y="1981" on="1"/>
        <pt x="308" y="1925" on="0"/>
        <pt x="407" y="1834" on="0"/>
        <pt x="515" y="1834" on="1"/>
        <pt x="622" y="1834" on="0"/>
        <pt x="715" y="1924" on="0"/>
        <pt x="723" y="1981" on="1"/>
        <pt x="724" y="1991" on="0"/>
        <pt x="724" y="2004" on="1"/>
        <pt x="885" y="2004" on="1"/>
        <pt x="887" y="1990" on="0"/>
        <pt x="887" y="1960" on="1"/>
        <pt x="887" y="1869" on="0"/>
        <pt x="800" y="1718" on="0"/>
        <pt x="631" y="1627" on="0"/>
        <pt x="513" y="1627" on="1"/>
        <pt x="391" y="1627" on="0"/>
        <pt x="221" y="1717" on="0"/>
        <pt x="136" y="1868" on="0"/>
        <pt x="136" y="1959" on="1"/>
      </contour>
    </TTGlyph>
    <TTGlyph name="breve.r" xMin="85" yMin="1310" xMax="934" yMax="1728">
      <contour>
        <pt x="85" y="1706" on="0"/>
        <pt x="87" y="1728" on="1"/>
        <pt x="303" y="1728" on="1"/>
        <pt x="324" y="1728" on="0"/>
        <pt x="339" y="1670" on="0"/>
        <pt x="339" y="1631" on="1"/>
        <pt x="339" y="1550" on="0"/>
        <pt x="426" y="1441" on="0"/>
        <pt x="511" y="1441" on="1"/>
        <pt x="596" y="1441" on="0"/>
        <pt x="679" y="1550" on="0"/>
        <pt x="679" y="1631" on="1"/>
        <pt x="679" y="1670" on="0"/>
        <pt x="694" y="1728" on="0"/>
        <pt x="715" y="1728" on="1"/>
        <pt x="932" y="1728" on="1"/>
        <pt x="934" y="1706" on="0"/>
        <pt x="934" y="1677" on="1"/>
        <pt x="934" y="1567" on="0"/>
        <pt x="834" y="1401" on="0"/>
        <pt x="643" y="1310" on="0"/>
        <pt x="510" y="1310" on="1"/>
        <pt x="381" y="1310" on="0"/>
        <pt x="189" y="1402" on="0"/>
        <pt x="85" y="1569" on="0"/>
        <pt x="85" y="1677" on="1"/>
      </contour>
    </TTGlyph>
    <TTGlyph name="breve.rcap" xMin="85" yMin="1641" xMax="937" yMax="2014">
      <contour>
        <pt x="85" y="1992" on="0"/>
        <pt x="87" y="2014" on="1"/>
        <pt x="314" y="2014" on="1"/>
        <pt x="335" y="2014" on="0"/>
        <pt x="350" y="1949" on="0"/>
        <pt x="350" y="1908" on="1"/>
        <pt x="350" y="1764" on="0"/>
        <pt x="511" y="1764" on="1"/>
        <pt x="672" y="1764" on="0"/>
        <pt x="672" y="1908" on="1"/>
        <pt x="672" y="1949" on="0"/>
        <pt x="687" y="2014" on="0"/>
        <pt x="708" y="2014" on="1"/>
        <pt x="935" y="2014" on="1"/>
        <pt x="937" y="1992" on="0"/>
        <pt x="937" y="1954" on="1"/>
        <pt x="937" y="1800" on="0"/>
        <pt x="712" y="1641" on="0"/>
        <pt x="510" y="1641" on="1"/>
        <pt x="382" y="1641" on="0"/>
        <pt x="190" y="1712" on="0"/>
        <pt x="85" y="1853" on="0"/>
        <pt x="85" y="1954" on="1"/>
      </contour>
    </TTGlyph>
    <TTGlyph name="brokenbar" xMin="319" yMin="-186" xMax="546" yMax="1780">
      <contour>
        <pt x="546" y="1780" on="1"/>
        <pt x="546" y="950" on="1"/>
        <pt x="319" y="950" on="1"/>
        <pt x="319" y="1780" on="1"/>
      </contour>
      <contour>
        <pt x="546" y="641" on="1"/>
        <pt x="546" y="-186" on="1"/>
        <pt x="319" y="-186" on="1"/>
        <pt x="319" y="641" on="1"/>
      </contour>
    </TTGlyph>
    <TTGlyph name="bullet" xMin="178" yMin="428" xMax="687" yMax="941">
      <contour>
        <pt x="178" y="758" on="0"/>
        <pt x="253" y="875" on="0"/>
        <pt x="376" y="941" on="0"/>
        <pt x="445" y="941" on="1"/>
        <pt x="514" y="941" on="0"/>
        <pt x="624" y="876" on="0"/>
        <pt x="687" y="759" on="0"/>
        <pt x="687" y="684" on="1"/>
        <pt x="687" y="614" on="0"/>
        <pt x="612" y="496" on="0"/>
        <pt x="490" y="428" on="0"/>
        <pt x="422" y="428" on="1"/>
        <pt x="354" y="428" on="0"/>
        <pt x="242" y="498" on="0"/>
        <pt x="178" y="615" on="0"/>
        <pt x="178" y="684" on="1"/>
      </contour>
    </TTGlyph>
    <TTGlyph name="bullet.cap" xMin="178" yMin="573" xMax="687" yMax="1086">
      <component glyphName="bullet" x="0" y="145" flags="0x4"/>
    </TTGlyph>
    <TTGlyph name="c" xMin="74" yMin="-23" xMax="1011" yMax="1168">
      <contour>
        <pt x="740" y="1168" on="0"/>
        <pt x="858" y="1145" on="0"/>
        <pt x="929" y="1125" on="1"/>
        <pt x="978" y="1110" on="0"/>
        <pt x="1004" y="1106" on="1"/>
        <pt x="990" y="751" on="1"/>
        <pt x="789" y="751" on="1"/>
        <pt x="737" y="965" on="1"/>
        <pt x="727" y="994" on="0"/>
        <pt x="669" y="1022" on="0"/>
        <pt x="629" y="1022" on="1"/>
        <pt x="421" y="1022" on="0"/>
        <pt x="421" y="618" on="1"/>
        <pt x="421" y="471" on="0"/>
        <pt x="487" y="273" on="0"/>
        <pt x="605" y="176" on="0"/>
        <pt x="682" y="176" on="1"/>
        <pt x="768" y="176" on="0"/>
        <pt x="900" y="221" on="0"/>
        <pt x="956" y="257" on="1"/>
        <pt x="1011" y="136" on="1"/>
        <pt x="981" y="102" on="0"/>
        <pt x="859" y="28" on="0"/>
        <pt x="694" y="-23" on="0"/>
        <pt x="604" y="-23" on="1"/>
        <pt x="424" y="-23" on="0"/>
        <pt x="188" y="125" on="0"/>
        <pt x="75" y="385" on="0"/>
        <pt x="74" y="557" on="1"/>
        <pt x="74" y="737" on="0"/>
        <pt x="219" y="1014" on="0"/>
        <pt x="485" y="1168" on="0"/>
        <pt x="661" y="1168" on="1"/>
      </contour>
    </TTGlyph>
    <TTGlyph name="cacute" xMin="74" yMin="-23" xMax="1011" yMax="1836">
      <component glyphName="acute" x="266" y="-1" flags="0x4"/>
      <component glyphName="c" x="0" y="0" flags="0x0"/>
    </TTGlyph>
    <TTGlyph name="caron" xMin="110" yMin="1315" xMax="914" yMax="1802">
      <contour>
        <pt x="218" y="1801" on="1"/>
        <pt x="511" y="1544" on="1"/>
        <pt x="807" y="1802" on="1"/>
        <pt x="914" y="1715" on="1"/>
        <pt x="608" y="1315" on="1"/>
        <pt x="413" y="1315" on="1"/>
        <pt x="110" y="1714" on="1"/>
      </contour>
    </TTGlyph>
    <TTGlyph name="caron.cap" xMin="-47" yMin="1646" xMax="728" yMax="2014">
      <contour>
        <pt x="65" y="2014" on="1"/>
        <pt x="334" y="1836" on="1"/>
        <pt x="618" y="2014" on="1"/>
        <pt x="728" y="1926" on="1"/>
        <pt x="436" y="1646" on="1"/>
        <pt x="233" y="1646" on="1"/>
        <pt x="-47" y="1926" on="1"/>
      </contour>
    </TTGlyph>
    <TTGlyph name="caronvertical" xMin="62" yMin="987" xMax="356" yMax="1694">
      <contour>
        <pt x="90" y="1051" on="1"/>
        <pt x="103" y="1103" on="0"/>
        <pt x="117" y="1231" on="0"/>
        <pt x="117" y="1340" on="1"/>
        <pt x="117" y="1437" on="0"/>
        <pt x="81" y="1578" on="0"/>
        <pt x="62" y="1602" on="1"/>
        <pt x="74" y="1644" on="1"/>
        <pt x="296" y="1694" on="1"/>
        <pt x="321" y="1666" on="0"/>
        <pt x="356" y="1525" on="0"/>
        <pt x="356" y="1434" on="1"/>
        <pt x="356" y="1333" on="0"/>
        <pt x="314" y="1145" on="0"/>
        <pt x="255" y="1011" on="0"/>
        <pt x="230" y="987" on="1"/>
        <pt x="96" y="1025" on="1"/>
      </contour>
    </TTGlyph>
    <TTGlyph name="ccaron" xMin="74" yMin="-23" xMax="1014" yMax="1801">
      <component glyphName="caron" x="100" y="-1" flags="0x4"/>
      <component glyphName="c" x="0" y="0" flags="0x0"/>
    </TTGlyph>
    <TTGlyph name="ccedilla" xMin="74" yMin="-520" xMax="1011" yMax="1168">
      <contour>
        <pt x="971" y="91" on="0"/>
        <pt x="800" y="0" on="0"/>
        <pt x="697" y="-16" on="1"/>
        <pt x="745" y="-68" on="0"/>
        <pt x="819" y="-217" on="0"/>
        <pt x="815" y="-296" on="1"/>
        <pt x="809" y="-419" on="0"/>
        <pt x="663" y="-520" on="0"/>
        <pt x="517" y="-520" on="1"/>
        <pt x="516" y="-520" on="1"/>
        <pt x="482" y="-520" on="0"/>
        <pt x="398" y="-503" on="0"/>
        <pt x="372" y="-491" on="1"/>
        <pt x="373" y="-301" on="1"/>
        <pt x="392" y="-307" on="0"/>
        <pt x="442" y="-314" on="0"/>
        <pt x="455" y="-314" on="1"/>
        <pt x="456" y="-314" on="1"/>
        <pt x="506" y="-314" on="0"/>
        <pt x="562" y="-296" on="0"/>
        <pt x="592" y="-236" on="0"/>
        <pt x="592" y="-175" on="1"/>
        <pt x="592" y="-139" on="0"/>
        <pt x="565" y="-57" on="0"/>
        <pt x="547" y="-21" on="1"/>
        <pt x="387" y="-9" on="0"/>
        <pt x="176" y="143" on="0"/>
        <pt x="75" y="395" on="0"/>
        <pt x="74" y="557" on="1"/>
        <pt x="74" y="737" on="0"/>
        <pt x="219" y="1014" on="0"/>
        <pt x="485" y="1168" on="0"/>
        <pt x="661" y="1168" on="1"/>
        <pt x="740" y="1168" on="0"/>
        <pt x="858" y="1145" on="0"/>
        <pt x="929" y="1125" on="1"/>
        <pt x="978" y="1110" on="0"/>
        <pt x="1004" y="1106" on="1"/>
        <pt x="990" y="751" on="1"/>
        <pt x="789" y="751" on="1"/>
        <pt x="737" y="965" on="1"/>
        <pt x="727" y="994" on="0"/>
        <pt x="669" y="1022" on="0"/>
        <pt x="629" y="1022" on="1"/>
        <pt x="421" y="1022" on="0"/>
        <pt x="421" y="618" on="1"/>
        <pt x="421" y="471" on="0"/>
        <pt x="487" y="273" on="0"/>
        <pt x="605" y="176" on="0"/>
        <pt x="682" y="176" on="1"/>
        <pt x="768" y="176" on="0"/>
        <pt x="900" y="221" on="0"/>
        <pt x="956" y="257" on="1"/>
        <pt x="1011" y="136" on="1"/>
      </contour>
    </TTGlyph>
    <TTGlyph name="ccircumflex" xMin="74" yMin="-23" xMax="1012" yMax="1791">
      <component glyphName="circumflex" x="92" y="-1" flags="0x4"/>
      <component glyphName="c" x="0" y="0" flags="0x0"/>
    </TTGlyph>
    <TTGlyph name="cdotaccent" xMin="74" yMin="-23" xMax="1011" yMax="1684">
      <component glyphName="c" x="0" y="0" flags="0x0"/>
      <component glyphName="dotaccent" x="322" y="-1" flags="0x4"/>
    </TTGlyph>
    <TTGlyph name="cedilla" xMin="39" yMin="-520" xMax="485" yMax="14">
      <contour>
        <pt x="342" y="6" on="1"/>
        <pt x="370" y="-19" on="0"/>
        <pt x="437" y="-111" on="0"/>
        <pt x="485" y="-233" on="0"/>
        <pt x="482" y="-296" on="1"/>
        <pt x="476" y="-419" on="0"/>
        <pt x="330" y="-520" on="0"/>
        <pt x="184" y="-520" on="1"/>
        <pt x="183" y="-520" on="1"/>
        <pt x="149" y="-520" on="0"/>
        <pt x="65" y="-503" on="0"/>
        <pt x="39" y="-491" on="1"/>
        <pt x="40" y="-301" on="1"/>
        <pt x="59" y="-307" on="0"/>
        <pt x="109" y="-314" on="0"/>
        <pt x="122" y="-314" on="1"/>
        <pt x="123" y="-314" on="1"/>
        <pt x="173" y="-314" on="0"/>
        <pt x="229" y="-296" on="0"/>
        <pt x="259" y="-236" on="0"/>
        <pt x="259" y="-175" on="1"/>
        <pt x="259" y="-129" on="0"/>
        <pt x="218" y="-23" on="0"/>
        <pt x="198" y="6" on="1"/>
        <pt x="298" y="14" on="1"/>
      </contour>
    </TTGlyph>
    <TTGlyph name="cent" xMin="112" yMin="-243" xMax="1049" yMax="1375">
      <contour>
        <pt x="603" y="1375" on="1"/>
        <pt x="780" y="1375" on="1"/>
        <pt x="769" y="1165" on="1"/>
        <pt x="825" y="1160" on="0"/>
        <pt x="914" y="1140" on="0"/>
        <pt x="965" y="1125" on="1"/>
        <pt x="1017" y="1109" on="0"/>
        <pt x="1042" y="1106" on="1"/>
        <pt x="1028" y="751" on="1"/>
        <pt x="827" y="751" on="1"/>
        <pt x="775" y="965" on="1"/>
        <pt x="765" y="994" on="0"/>
        <pt x="707" y="1022" on="0"/>
        <pt x="667" y="1022" on="1"/>
        <pt x="459" y="1022" on="0"/>
        <pt x="459" y="618" on="1"/>
        <pt x="459" y="471" on="0"/>
        <pt x="525" y="273" on="0"/>
        <pt x="643" y="176" on="0"/>
        <pt x="720" y="176" on="1"/>
        <pt x="806" y="176" on="0"/>
        <pt x="938" y="221" on="0"/>
        <pt x="994" y="257" on="1"/>
        <pt x="1049" y="136" on="1"/>
        <pt x="1022" y="105" on="0"/>
        <pt x="914" y="37" on="0"/>
        <pt x="767" y="-15" on="0"/>
        <pt x="686" y="-21" on="1"/>
        <pt x="675" y="-243" on="1"/>
        <pt x="497" y="-243" on="1"/>
        <pt x="509" y="-11" on="1"/>
        <pt x="310" y="27" on="0"/>
        <pt x="113" y="329" on="0"/>
        <pt x="112" y="557" on="1"/>
        <pt x="112" y="718" on="0"/>
        <pt x="229" y="975" on="0"/>
        <pt x="446" y="1138" on="0"/>
        <pt x="592" y="1160" on="1"/>
      </contour>
    </TTGlyph>
    <TTGlyph name="circumflex" xMin="113" yMin="1304" xMax="920" yMax="1792">
      <contour>
        <pt x="419" y="1792" on="1"/>
        <pt x="614" y="1792" on="1"/>
        <pt x="920" y="1393" on="1"/>
        <pt x="808" y="1305" on="1"/>
        <pt x="518" y="1559" on="1"/>
        <pt x="219" y="1304" on="1"/>
        <pt x="113" y="1392" on="1"/>
      </contour>
    </TTGlyph>
    <TTGlyph name="circumflex.cap" xMin="125" yMin="1624" xMax="926" yMax="2008">
      <contour>
        <pt x="424" y="2008" on="1"/>
        <pt x="626" y="2008" on="1"/>
        <pt x="926" y="1712" on="1"/>
        <pt x="814" y="1624" on="1"/>
        <pt x="525" y="1815" on="1"/>
        <pt x="234" y="1624" on="1"/>
        <pt x="125" y="1711" on="1"/>
      </contour>
    </TTGlyph>
    <TTGlyph name="colon" xMin="158" yMin="-17" xMax="542" yMax="1169">
      <component glyphName="period" x="16" y="833" flags="0x4"/>
      <component glyphName="period" x="16" y="0" flags="0x0"/>
    </TTGlyph>
    <TTGlyph name="colonmonetary" xMin="122" yMin="-333" xMax="1399" yMax="1814">
      <contour>
        <pt x="362" y="70" on="0"/>
        <pt x="122" y="442" on="0"/>
        <pt x="122" y="730" on="1"/>
        <pt x="122" y="949" on="0"/>
        <pt x="265" y="1279" on="0"/>
        <pt x="527" y="1483" on="0"/>
        <pt x="706" y="1520" on="1"/>
        <pt x="725" y="1814" on="1"/>
        <pt x="855" y="1814" on="1"/>
        <pt x="836" y="1538" on="1"/>
        <pt x="874" y="1541" on="0"/>
        <pt x="912" y="1541" on="1"/>
        <pt x="933" y="1541" on="0"/>
        <pt x="975" y="1539" on="1"/>
        <pt x="993" y="1814" on="1"/>
        <pt x="1122" y="1814" on="1"/>
        <pt x="1102" y="1528" on="1"/>
        <pt x="1153" y="1522" on="0"/>
        <pt x="1258" y="1502" on="0"/>
        <pt x="1275" y="1499" on="1"/>
        <pt x="1364" y="1481" on="0"/>
        <pt x="1399" y="1479" on="1"/>
        <pt x="1376" y="1104" on="1"/>
        <pt x="1196" y="1104" on="1"/>
        <pt x="1150" y="1349" on="1"/>
        <pt x="1135" y="1364" on="0"/>
        <pt x="1090" y="1375" on="1"/>
        <pt x="1007" y="128" on="1"/>
        <pt x="1081" y="144" on="0"/>
        <pt x="1134" y="189" on="1"/>
        <pt x="1217" y="370" on="1"/>
        <pt x="1388" y="337" on="1"/>
        <pt x="1356" y="63" on="1"/>
        <pt x="1324" y="60" on="0"/>
        <pt x="1263" y="45" on="0"/>
        <pt x="1219" y="31" on="1"/>
        <pt x="1157" y="12" on="0"/>
        <pt x="1059" y="-11" on="0"/>
        <pt x="995" y="-18" on="1"/>
        <pt x="971" y="-333" on="1"/>
        <pt x="842" y="-333" on="1"/>
        <pt x="865" y="-26" on="1"/>
        <pt x="853" y="-26" on="1"/>
        <pt x="790" y="-26" on="0"/>
        <pt x="724" y="-18" on="1"/>
        <pt x="701" y="-333" on="1"/>
        <pt x="572" y="-333" on="1"/>
        <pt x="597" y="6" on="1"/>
      </contour>
      <contour>
        <pt x="964" y="1392" on="1"/>
        <pt x="922" y="1395" on="0"/>
        <pt x="881" y="1395" on="1"/>
        <pt x="854" y="1395" on="0"/>
        <pt x="822" y="1390" on="1"/>
        <pt x="738" y="141" on="1"/>
        <pt x="798" y="116" on="0"/>
        <pt x="879" y="116" on="1"/>
      </contour>
      <contour>
        <pt x="691" y="1343" on="1"/>
        <pt x="588" y="1279" on="0"/>
        <pt x="476" y="990" on="0"/>
        <pt x="476" y="765" on="1"/>
        <pt x="476" y="389" on="0"/>
        <pt x="614" y="229" on="1"/>
      </contour>
    </TTGlyph>
    <TTGlyph name="comma" xMin="165" yMin="-476" xMax="547" yMax="347">
      <contour>
        <pt x="413" y="347" on="0"/>
        <pt x="500" y="279" on="0"/>
        <pt x="547" y="152" on="0"/>
        <pt x="547" y="65" on="1"/>
        <pt x="547" y="-56" on="0"/>
        <pt x="460" y="-284" on="0"/>
        <pt x="330" y="-447" on="0"/>
        <pt x="270" y="-476" on="1"/>
        <pt x="267" y="-476" on="1"/>
        <pt x="174" y="-405" on="1"/>
        <pt x="174" y="-373" on="1"/>
        <pt x="233" y="-329" on="0"/>
        <pt x="308" y="-194" on="0"/>
        <pt x="308" y="-104" on="1"/>
        <pt x="308" y="-62" on="0"/>
        <pt x="275" y="-10" on="0"/>
        <pt x="240" y="25" on="1"/>
        <pt x="215" y="50" on="0"/>
        <pt x="186" y="85" on="0"/>
        <pt x="165" y="138" on="0"/>
        <pt x="165" y="173" on="1"/>
        <pt x="165" y="225" on="0"/>
        <pt x="211" y="304" on="0"/>
        <pt x="290" y="347" on="0"/>
        <pt x="338" y="347" on="1"/>
        <pt x="355" y="347" on="1"/>
      </contour>
    </TTGlyph>
    <TTGlyph name="copyright" xMin="196" yMin="130" xMax="1933" yMax="1871">
      <contour>
        <pt x="1304" y="1871" on="0"/>
        <pt x="1702" y="1639" on="0"/>
        <pt x="1933" y="1241" on="0"/>
        <pt x="1933" y="1002" on="1"/>
        <pt x="1933" y="762" on="0"/>
        <pt x="1702" y="362" on="0"/>
        <pt x="1304" y="130" on="0"/>
        <pt x="1066" y="130" on="1"/>
        <pt x="828" y="130" on="0"/>
        <pt x="429" y="363" on="0"/>
        <pt x="196" y="763" on="0"/>
        <pt x="196" y="1002" on="1"/>
        <pt x="196" y="1241" on="0"/>
        <pt x="429" y="1639" on="0"/>
        <pt x="828" y="1871" on="0"/>
        <pt x="1066" y="1871" on="1"/>
      </contour>
      <contour>
        <pt x="1263" y="266" on="0"/>
        <pt x="1589" y="465" on="0"/>
        <pt x="1776" y="803" on="0"/>
        <pt x="1776" y="1002" on="1"/>
        <pt x="1776" y="1203" on="0"/>
        <pt x="1589" y="1540" on="0"/>
        <pt x="1264" y="1737" on="0"/>
        <pt x="1066" y="1737" on="1"/>
        <pt x="867" y="1737" on="0"/>
        <pt x="541" y="1538" on="0"/>
        <pt x="354" y="1201" on="0"/>
        <pt x="354" y="1002" on="1"/>
        <pt x="354" y="801" on="0"/>
        <pt x="542" y="463" on="0"/>
        <pt x="868" y="266" on="0"/>
        <pt x="1066" y="266" on="1"/>
      </contour>
      <contour>
        <pt x="621" y="1137" on="0"/>
        <pt x="755" y="1369" on="0"/>
        <pt x="990" y="1505" on="0"/>
        <pt x="1134" y="1505" on="1"/>
        <pt x="1208" y="1505" on="0"/>
        <pt x="1365" y="1471" on="0"/>
        <pt x="1393" y="1443" on="1"/>
        <pt x="1388" y="1191" on="1"/>
        <pt x="1253" y="1191" on="1"/>
        <pt x="1205" y="1327" on="1"/>
        <pt x="1183" y="1342" on="0"/>
        <pt x="1128" y="1358" on="0"/>
        <pt x="1068" y="1358" on="1"/>
        <pt x="960" y="1358" on="0"/>
        <pt x="844" y="1179" on="0"/>
        <pt x="844" y="1036" on="1"/>
        <pt x="844" y="937" on="0"/>
        <pt x="922" y="782" on="0"/>
        <pt x="1059" y="695" on="0"/>
        <pt x="1144" y="695" on="1"/>
        <pt x="1201" y="695" on="0"/>
        <pt x="1304" y="736" on="0"/>
        <pt x="1341" y="770" on="1"/>
        <pt x="1403" y="665" on="1"/>
        <pt x="1373" y="627" on="0"/>
        <pt x="1271" y="556" on="0"/>
        <pt x="1142" y="511" on="0"/>
        <pt x="1074" y="511" on="1"/>
        <pt x="929" y="511" on="0"/>
        <pt x="725" y="635" on="0"/>
        <pt x="621" y="855" on="0"/>
        <pt x="621" y="997" on="1"/>
      </contour>
    </TTGlyph>
    <TTGlyph name="currency" xMin="174" yMin="151" xMax="1372" yMax="1395">
      <contour>
        <pt x="324" y="620" on="0"/>
        <pt x="324" y="762" on="1"/>
        <pt x="324" y="835" on="0"/>
        <pt x="365" y="971" on="0"/>
        <pt x="403" y="1030" on="1"/>
        <pt x="174" y="1258" on="1"/>
        <pt x="306" y="1393" on="1"/>
        <pt x="536" y="1161" on="1"/>
        <pt x="645" y="1230" on="0"/>
        <pt x="770" y="1230" on="1"/>
        <pt x="900" y="1230" on="0"/>
        <pt x="1008" y="1166" on="1"/>
        <pt x="1238" y="1395" on="1"/>
        <pt x="1372" y="1261" on="1"/>
        <pt x="1146" y="1037" on="1"/>
        <pt x="1183" y="983" on="0"/>
        <pt x="1224" y="854" on="0"/>
        <pt x="1224" y="784" on="1"/>
        <pt x="1224" y="710" on="0"/>
        <pt x="1181" y="573" on="0"/>
        <pt x="1141" y="515" on="1"/>
        <pt x="1368" y="290" on="1"/>
        <pt x="1234" y="155" on="1"/>
        <pt x="1005" y="384" on="1"/>
        <pt x="899" y="317" on="0"/>
        <pt x="770" y="317" on="1"/>
        <pt x="642" y="317" on="0"/>
        <pt x="536" y="380" on="1"/>
        <pt x="308" y="151" on="1"/>
        <pt x="174" y="286" on="1"/>
        <pt x="399" y="509" on="1"/>
      </contour>
      <contour>
        <pt x="980" y="833" on="0"/>
        <pt x="921" y="941" on="0"/>
        <pt x="822" y="1002" on="0"/>
        <pt x="766" y="1002" on="1"/>
        <pt x="700" y="1002" on="0"/>
        <pt x="608" y="938" on="0"/>
        <pt x="562" y="831" on="0"/>
        <pt x="562" y="768" on="1"/>
        <pt x="562" y="708" on="0"/>
        <pt x="619" y="605" on="0"/>
        <pt x="715" y="545" on="0"/>
        <pt x="772" y="545" on="1"/>
        <pt x="876" y="545" on="0"/>
        <pt x="980" y="670" on="0"/>
        <pt x="980" y="768" on="1"/>
      </contour>
    </TTGlyph>
    <TTGlyph name="d" xMin="69" yMin="-25" xMax="1233" yMax="1680">
      <contour>
        <pt x="69" y="715" on="0"/>
        <pt x="210" y="999" on="0"/>
        <pt x="486" y="1168" on="0"/>
        <pt x="679" y="1168" on="1"/>
        <pt x="738" y="1168" on="0"/>
        <pt x="806" y="1154" on="1"/>
        <pt x="806" y="1483" on="1"/>
        <pt x="613" y="1509" on="1"/>
        <pt x="613" y="1637" on="1"/>
        <pt x="1055" y="1680" on="1"/>
        <pt x="1063" y="1680" on="1"/>
        <pt x="1126" y="1633" on="1"/>
        <pt x="1126" y="140" on="1"/>
        <pt x="1233" y="140" on="1"/>
        <pt x="1233" y="8" on="1"/>
        <pt x="1076" y="-25" on="0"/>
        <pt x="975" y="-25" on="1"/>
        <pt x="926" y="-25" on="0"/>
        <pt x="870" y="-7" on="0"/>
        <pt x="841" y="43" on="0"/>
        <pt x="841" y="90" on="1"/>
        <pt x="841" y="134" on="1"/>
        <pt x="788" y="65" on="0"/>
        <pt x="612" y="-23" on="0"/>
        <pt x="513" y="-23" on="1"/>
        <pt x="386" y="-23" on="0"/>
        <pt x="186" y="99" on="0"/>
        <pt x="69" y="353" on="0"/>
        <pt x="69" y="543" on="1"/>
      </contour>
      <contour>
        <pt x="806" y="983" on="1"/>
        <pt x="793" y="1002" on="0"/>
        <pt x="715" y="1029" on="0"/>
        <pt x="668" y="1029" on="1"/>
        <pt x="553" y="1029" on="0"/>
        <pt x="414" y="808" on="0"/>
        <pt x="414" y="561" on="1"/>
        <pt x="414" y="359" on="0"/>
        <pt x="534" y="161" on="0"/>
        <pt x="635" y="161" on="1"/>
        <pt x="691" y="161" on="0"/>
        <pt x="779" y="206" on="0"/>
        <pt x="806" y="238" on="1"/>
      </contour>
    </TTGlyph>
    <TTGlyph name="dagger" xMin="157" yMin="84" xMax="936" yMax="1658">
      <contour>
        <pt x="446" y="1105" on="1"/>
        <pt x="157" y="1087" on="1"/>
        <pt x="158" y="1316" on="1"/>
        <pt x="446" y="1299" on="1"/>
        <pt x="415" y="1511" on="1"/>
        <pt x="415" y="1658" on="1"/>
        <pt x="678" y="1658" on="1"/>
        <pt x="678" y="1511" on="1"/>
        <pt x="649" y="1299" on="1"/>
        <pt x="936" y="1316" on="1"/>
        <pt x="936" y="1087" on="1"/>
        <pt x="649" y="1105" on="1"/>
        <pt x="678" y="839" on="1"/>
        <pt x="635" y="84" on="1"/>
        <pt x="461" y="84" on="1"/>
        <pt x="415" y="839" on="1"/>
      </contour>
    </TTGlyph>
    <TTGlyph name="daggerdbl" xMin="157" yMin="-450" xMax="937" yMax="1658">
      <contour>
        <pt x="453" y="649" on="1"/>
        <pt x="416" y="918" on="1"/>
        <pt x="448" y="1105" on="1"/>
        <pt x="157" y="1089" on="1"/>
        <pt x="157" y="1316" on="1"/>
        <pt x="448" y="1299" on="1"/>
        <pt x="416" y="1503" on="1"/>
        <pt x="416" y="1658" on="1"/>
        <pt x="679" y="1658" on="1"/>
        <pt x="679" y="1503" on="1"/>
        <pt x="648" y="1299" on="1"/>
        <pt x="937" y="1316" on="1"/>
        <pt x="937" y="1089" on="1"/>
        <pt x="649" y="1105" on="1"/>
        <pt x="679" y="918" on="1"/>
        <pt x="644" y="649" on="1"/>
        <pt x="937" y="663" on="1"/>
        <pt x="937" y="441" on="1"/>
        <pt x="644" y="454" on="1"/>
        <pt x="679" y="236" on="1"/>
        <pt x="636" y="-450" on="1"/>
        <pt x="462" y="-450" on="1"/>
        <pt x="416" y="236" on="1"/>
        <pt x="453" y="454" on="1"/>
        <pt x="157" y="441" on="1"/>
        <pt x="157" y="663" on="1"/>
      </contour>
    </TTGlyph>
    <TTGlyph name="dcaron" xMin="69" yMin="-25" xMax="1574" yMax="1694">
      <component glyphName="d" x="0" y="0" flags="0x0"/>
      <component glyphName="caronvertical" x="1218" y="0" flags="0x0"/>
    </TTGlyph>
    <TTGlyph name="dcroat" xMin="69" yMin="-25" xMax="1265" yMax="1680">
      <contour>
        <pt x="806" y="1400" on="1"/>
        <pt x="806" y="1483" on="1"/>
        <pt x="613" y="1509" on="1"/>
        <pt x="613" y="1637" on="1"/>
        <pt x="1055" y="1680" on="1"/>
        <pt x="1063" y="1680" on="1"/>
        <pt x="1126" y="1633" on="1"/>
        <pt x="1126" y="1400" on="1"/>
        <pt x="1265" y="1400" on="1"/>
        <pt x="1265" y="1264" on="1"/>
        <pt x="1126" y="1264" on="1"/>
        <pt x="1126" y="140" on="1"/>
        <pt x="1233" y="140" on="1"/>
        <pt x="1233" y="8" on="1"/>
        <pt x="1076" y="-25" on="0"/>
        <pt x="975" y="-25" on="1"/>
        <pt x="926" y="-25" on="0"/>
        <pt x="870" y="-7" on="0"/>
        <pt x="841" y="43" on="0"/>
        <pt x="841" y="90" on="1"/>
        <pt x="841" y="134" on="1"/>
        <pt x="788" y="65" on="0"/>
        <pt x="612" y="-23" on="0"/>
        <pt x="513" y="-23" on="1"/>
        <pt x="386" y="-23" on="0"/>
        <pt x="186" y="99" on="0"/>
        <pt x="69" y="353" on="0"/>
        <pt x="69" y="543" on="1"/>
        <pt x="69" y="715" on="0"/>
        <pt x="210" y="999" on="0"/>
        <pt x="486" y="1168" on="0"/>
        <pt x="679" y="1168" on="1"/>
        <pt x="738" y="1168" on="0"/>
        <pt x="806" y="1154" on="1"/>
        <pt x="806" y="1264" on="1"/>
        <pt x="554" y="1264" on="1"/>
        <pt x="554" y="1400" on="1"/>
      </contour>
      <contour>
        <pt x="806" y="983" on="1"/>
        <pt x="793" y="1002" on="0"/>
        <pt x="715" y="1029" on="0"/>
        <pt x="668" y="1029" on="1"/>
        <pt x="553" y="1029" on="0"/>
        <pt x="414" y="808" on="0"/>
        <pt x="414" y="561" on="1"/>
        <pt x="414" y="359" on="0"/>
        <pt x="534" y="161" on="0"/>
        <pt x="635" y="161" on="1"/>
        <pt x="691" y="161" on="0"/>
        <pt x="779" y="206" on="0"/>
        <pt x="806" y="238" on="1"/>
      </contour>
    </TTGlyph>
    <TTGlyph name="degree" xMin="143" yMin="930" xMax="879" yMax="1656">
      <contour>
        <pt x="143" y="1395" on="0"/>
        <pt x="243" y="1561" on="0"/>
        <pt x="411" y="1656" on="0"/>
        <pt x="510" y="1656" on="1"/>
        <pt x="615" y="1656" on="0"/>
        <pt x="784" y="1558" on="0"/>
        <pt x="879" y="1392" on="0"/>
        <pt x="879" y="1293" on="1"/>
        <pt x="879" y="1190" on="0"/>
        <pt x="781" y="1024" on="0"/>
        <pt x="612" y="930" on="0"/>
        <pt x="510" y="930" on="1"/>
        <pt x="412" y="930" on="0"/>
        <pt x="243" y="1028" on="0"/>
        <pt x="143" y="1195" on="0"/>
        <pt x="143" y="1293" on="1"/>
      </contour>
      <contour>
        <pt x="681" y="1342" on="0"/>
        <pt x="635" y="1426" on="0"/>
        <pt x="556" y="1476" on="0"/>
        <pt x="509" y="1476" on="1"/>
        <pt x="460" y="1476" on="0"/>
        <pt x="383" y="1428" on="0"/>
        <pt x="341" y="1344" on="0"/>
        <pt x="341" y="1293" on="1"/>
        <pt x="341" y="1245" on="0"/>
        <pt x="387" y="1161" on="0"/>
        <pt x="466" y="1111" on="0"/>
        <pt x="513" y="1111" on="1"/>
        <pt x="588" y="1111" on="0"/>
        <pt x="681" y="1213" on="0"/>
        <pt x="681" y="1293" on="1"/>
      </contour>
    </TTGlyph>
    <TTGlyph name="dieresis" xMin="90" yMin="1336" xMax="934" yMax="1688">
      <contour>
        <pt x="90" y="1581" on="0"/>
        <pt x="181" y="1688" on="0"/>
        <pt x="267" y="1688" on="1"/>
        <pt x="268" y="1688" on="1"/>
        <pt x="347" y="1688" on="0"/>
        <pt x="431" y="1595" on="0"/>
        <pt x="431" y="1526" on="1"/>
        <pt x="431" y="1441" on="0"/>
        <pt x="335" y="1336" on="0"/>
        <pt x="240" y="1336" on="1"/>
        <pt x="239" y="1336" on="1"/>
        <pt x="196" y="1336" on="0"/>
        <pt x="128" y="1379" on="0"/>
        <pt x="90" y="1454" on="0"/>
        <pt x="90" y="1498" on="1"/>
      </contour>
      <contour>
        <pt x="594" y="1581" on="0"/>
        <pt x="685" y="1688" on="0"/>
        <pt x="771" y="1688" on="1"/>
        <pt x="772" y="1688" on="1"/>
        <pt x="851" y="1688" on="0"/>
        <pt x="934" y="1595" on="0"/>
        <pt x="934" y="1526" on="1"/>
        <pt x="934" y="1441" on="0"/>
        <pt x="838" y="1336" on="0"/>
        <pt x="743" y="1336" on="1"/>
        <pt x="742" y="1336" on="1"/>
        <pt x="699" y="1336" on="0"/>
        <pt x="632" y="1382" on="0"/>
        <pt x="594" y="1457" on="0"/>
        <pt x="594" y="1498" on="1"/>
      </contour>
    </TTGlyph>
    <TTGlyph name="dieresis.cap" xMin="76" yMin="1653" xMax="944" yMax="1997">
      <contour>
        <pt x="76" y="1892" on="0"/>
        <pt x="167" y="1997" on="0"/>
        <pt x="253" y="1997" on="1"/>
        <pt x="254" y="1997" on="1"/>
        <pt x="333" y="1997" on="0"/>
        <pt x="416" y="1906" on="0"/>
        <pt x="416" y="1840" on="1"/>
        <pt x="416" y="1756" on="0"/>
        <pt x="320" y="1653" on="0"/>
        <pt x="225" y="1653" on="1"/>
        <pt x="224" y="1653" on="1"/>
        <pt x="181" y="1653" on="0"/>
        <pt x="114" y="1695" on="0"/>
        <pt x="76" y="1768" on="0"/>
        <pt x="76" y="1811" on="1"/>
      </contour>
      <contour>
        <pt x="604" y="1892" on="0"/>
        <pt x="694" y="1997" on="0"/>
        <pt x="780" y="1997" on="1"/>
        <pt x="781" y="1997" on="1"/>
        <pt x="860" y="1997" on="0"/>
        <pt x="944" y="1906" on="0"/>
        <pt x="944" y="1840" on="1"/>
        <pt x="944" y="1756" on="0"/>
        <pt x="848" y="1653" on="0"/>
        <pt x="752" y="1653" on="1"/>
        <pt x="751" y="1653" on="1"/>
        <pt x="709" y="1653" on="0"/>
        <pt x="642" y="1698" on="0"/>
        <pt x="604" y="1771" on="0"/>
        <pt x="604" y="1811" on="1"/>
      </contour>
    </TTGlyph>
    <TTGlyph name="divide" xMin="207" yMin="29" xMax="1150" yMax="1213">
      <contour>
        <pt x="512" y="1089" on="0"/>
        <pt x="564" y="1168" on="0"/>
        <pt x="651" y="1213" on="0"/>
        <pt x="702" y="1213" on="1"/>
        <pt x="754" y="1213" on="0"/>
        <pt x="830" y="1170" on="0"/>
        <pt x="869" y="1099" on="0"/>
        <pt x="869" y="1057" on="1"/>
        <pt x="869" y="978" on="0"/>
        <pt x="759" y="886" on="0"/>
        <pt x="674" y="886" on="1"/>
        <pt x="632" y="886" on="0"/>
        <pt x="558" y="924" on="0"/>
        <pt x="512" y="994" on="0"/>
        <pt x="512" y="1039" on="1"/>
      </contour>
      <contour>
        <pt x="1150" y="715" on="1"/>
        <pt x="1150" y="513" on="1"/>
        <pt x="207" y="513" on="1"/>
        <pt x="207" y="715" on="1"/>
      </contour>
      <contour>
        <pt x="744" y="357" on="0"/>
        <pt x="819" y="315" on="0"/>
        <pt x="859" y="244" on="0"/>
        <pt x="859" y="202" on="1"/>
        <pt x="859" y="122" on="0"/>
        <pt x="749" y="29" on="0"/>
        <pt x="663" y="29" on="1"/>
        <pt x="622" y="29" on="0"/>
        <pt x="547" y="68" on="0"/>
        <pt x="502" y="140" on="0"/>
        <pt x="502" y="185" on="1"/>
        <pt x="502" y="234" on="0"/>
        <pt x="554" y="313" on="0"/>
        <pt x="641" y="357" on="0"/>
        <pt x="692" y="357" on="1"/>
      </contour>
    </TTGlyph>
    <TTGlyph name="dollar" xMin="178" yMin="-258" xMax="1229" yMax="1762">
      <contour>
        <pt x="775" y="-258" on="1"/>
        <pt x="592" y="-258" on="1"/>
        <pt x="594" y="-20" on="1"/>
        <pt x="413" y="-8" on="0"/>
        <pt x="202" y="60" on="1"/>
        <pt x="178" y="67" on="1"/>
        <pt x="195" y="431" on="1"/>
        <pt x="383" y="431" on="1"/>
        <pt x="437" y="189" on="1"/>
        <pt x="504" y="117" on="0"/>
        <pt x="657" y="117" on="1"/>
        <pt x="897" y="117" on="0"/>
        <pt x="897" y="332" on="1"/>
        <pt x="897" y="398" on="0"/>
        <pt x="812" y="506" on="0"/>
        <pt x="668" y="598" on="0"/>
        <pt x="548" y="659" on="1"/>
        <pt x="431" y="719" on="0"/>
        <pt x="275" y="842" on="0"/>
        <pt x="183" y="1017" on="0"/>
        <pt x="183" y="1138" on="1"/>
        <pt x="183" y="1236" on="0"/>
        <pt x="285" y="1404" on="0"/>
        <pt x="476" y="1517" on="0"/>
        <pt x="606" y="1534" on="1"/>
        <pt x="606" y="1762" on="1"/>
        <pt x="789" y="1762" on="1"/>
        <pt x="789" y="1538" on="1"/>
        <pt x="891" y="1530" on="0"/>
        <pt x="1074" y="1486" on="0"/>
        <pt x="1136" y="1465" on="1"/>
        <pt x="1123" y="1128" on="1"/>
        <pt x="939" y="1128" on="1"/>
        <pt x="890" y="1353" on="1"/>
        <pt x="867" y="1377" on="0"/>
        <pt x="784" y="1406" on="0"/>
        <pt x="731" y="1406" on="1"/>
        <pt x="662" y="1406" on="0"/>
        <pt x="557" y="1358" on="0"/>
        <pt x="499" y="1271" on="0"/>
        <pt x="499" y="1215" on="1"/>
        <pt x="499" y="1146" on="0"/>
        <pt x="583" y="1037" on="0"/>
        <pt x="705" y="957" on="0"/>
        <pt x="809" y="901" on="1"/>
        <pt x="834" y="888" on="1"/>
        <pt x="966" y="815" on="0"/>
        <pt x="1128" y="696" on="0"/>
        <pt x="1229" y="532" on="0"/>
        <pt x="1229" y="422" on="1"/>
        <pt x="1229" y="314" on="0"/>
        <pt x="1136" y="128" on="0"/>
        <pt x="933" y="0" on="0"/>
        <pt x="777" y="-17" on="1"/>
      </contour>
    </TTGlyph>
    <TTGlyph name="dong" xMin="158" yMin="0" xMax="1286" yMax="1702">
      <contour>
        <pt x="822" y="1413" on="1"/>
        <pt x="822" y="1518" on="1"/>
        <pt x="650" y="1534" on="1"/>
        <pt x="650" y="1663" on="1"/>
        <pt x="1066" y="1702" on="1"/>
        <pt x="1071" y="1702" on="1"/>
        <pt x="1116" y="1671" on="1"/>
        <pt x="1116" y="1413" on="1"/>
        <pt x="1286" y="1413" on="1"/>
        <pt x="1286" y="1280" on="1"/>
        <pt x="1116" y="1280" on="1"/>
        <pt x="1116" y="431" on="1"/>
        <pt x="1238" y="431" on="1"/>
        <pt x="1238" y="309" on="1"/>
        <pt x="1198" y="297" on="0"/>
        <pt x="992" y="271" on="0"/>
        <pt x="936" y="271" on="1"/>
        <pt x="875" y="271" on="0"/>
        <pt x="829" y="312" on="0"/>
        <pt x="829" y="369" on="1"/>
        <pt x="829" y="405" on="1"/>
        <pt x="707" y="281" on="0"/>
        <pt x="536" y="281" on="1"/>
        <pt x="432" y="281" on="0"/>
        <pt x="260" y="376" on="0"/>
        <pt x="158" y="565" on="0"/>
        <pt x="158" y="702" on="1"/>
        <pt x="158" y="847" on="0"/>
        <pt x="272" y="1054" on="0"/>
        <pt x="489" y="1162" on="0"/>
        <pt x="639" y="1162" on="1"/>
        <pt x="724" y="1162" on="0"/>
        <pt x="822" y="1137" on="1"/>
        <pt x="822" y="1280" on="1"/>
        <pt x="529" y="1280" on="1"/>
        <pt x="529" y="1413" on="1"/>
      </contour>
      <contour>
        <pt x="822" y="991" on="1"/>
        <pt x="812" y="1009" on="0"/>
        <pt x="726" y="1037" on="0"/>
        <pt x="672" y="1037" on="1"/>
        <pt x="580" y="1037" on="0"/>
        <pt x="477" y="893" on="0"/>
        <pt x="477" y="713" on="1"/>
        <pt x="477" y="621" on="0"/>
        <pt x="524" y="498" on="0"/>
        <pt x="603" y="439" on="0"/>
        <pt x="653" y="439" on="1"/>
        <pt x="706" y="439" on="0"/>
        <pt x="794" y="491" on="0"/>
        <pt x="822" y="526" on="1"/>
      </contour>
      <contour>
        <pt x="1269" y="147" on="1"/>
        <pt x="1269" y="0" on="1"/>
        <pt x="181" y="0" on="1"/>
        <pt x="181" y="147" on="1"/>
      </contour>
    </TTGlyph>
    <TTGlyph name="dotaccent" xMin="98" yMin="1322" xMax="472" yMax="1685">
      <contour>
        <pt x="98" y="1542" on="0"/>
        <pt x="143" y="1632" on="0"/>
        <pt x="230" y="1685" on="0"/>
        <pt x="290" y="1685" on="1"/>
        <pt x="291" y="1685" on="1"/>
        <pt x="348" y="1685" on="0"/>
        <pt x="429" y="1639" on="0"/>
        <pt x="472" y="1563" on="0"/>
        <pt x="472" y="1517" on="1"/>
        <pt x="472" y="1431" on="0"/>
        <pt x="368" y="1322" on="0"/>
        <pt x="271" y="1322" on="1"/>
        <pt x="270" y="1322" on="1"/>
        <pt x="220" y="1322" on="0"/>
        <pt x="142" y="1366" on="0"/>
        <pt x="98" y="1441" on="0"/>
        <pt x="98" y="1488" on="1"/>
      </contour>
    </TTGlyph>
    <TTGlyph name="dotaccent.cap" xMin="111" yMin="1662" xMax="474" yMax="1998">
      <contour>
        <pt x="111" y="1900" on="0"/>
        <pt x="206" y="1998" on="0"/>
        <pt x="295" y="1998" on="1"/>
        <pt x="296" y="1998" on="1"/>
        <pt x="351" y="1998" on="0"/>
        <pt x="432" y="1957" on="0"/>
        <pt x="474" y="1886" on="0"/>
        <pt x="474" y="1843" on="1"/>
        <pt x="474" y="1759" on="0"/>
        <pt x="375" y="1662" on="0"/>
        <pt x="277" y="1662" on="1"/>
        <pt x="276" y="1662" on="1"/>
        <pt x="228" y="1662" on="0"/>
        <pt x="153" y="1702" on="0"/>
        <pt x="111" y="1773" on="0"/>
        <pt x="111" y="1818" on="1"/>
      </contour>
    </TTGlyph>
    <TTGlyph name="dotlessi" xMin="76" yMin="0" xMax="665" yMax="1166">
      <contour>
        <pt x="211" y="154" on="1"/>
        <pt x="211" y="922" on="1"/>
        <pt x="76" y="963" on="1"/>
        <pt x="76" y="1116" on="1"/>
        <pt x="470" y="1166" on="1"/>
        <pt x="475" y="1166" on="1"/>
        <pt x="537" y="1122" on="1"/>
        <pt x="537" y="153" on="1"/>
        <pt x="665" y="134" on="1"/>
        <pt x="665" y="0" on="1"/>
        <pt x="77" y="0" on="1"/>
        <pt x="77" y="134" on="1"/>
      </contour>
    </TTGlyph>
    <TTGlyph name="e" xMin="67" yMin="-23" xMax="1065" yMax="1167">
      <contour>
        <pt x="67" y="753" on="0"/>
        <pt x="206" y="1023" on="0"/>
        <pt x="458" y="1167" on="0"/>
        <pt x="624" y="1167" on="1"/>
        <pt x="835" y="1167" on="0"/>
        <pt x="1060" y="953" on="0"/>
        <pt x="1065" y="753" on="1"/>
        <pt x="1065" y="614" on="0"/>
        <pt x="1050" y="542" on="1"/>
        <pt x="404" y="542" on="1"/>
        <pt x="416" y="358" on="0"/>
        <pt x="573" y="180" on="0"/>
        <pt x="703" y="180" on="1"/>
        <pt x="778" y="180" on="0"/>
        <pt x="941" y="232" on="0"/>
        <pt x="992" y="265" on="1"/>
        <pt x="1050" y="141" on="1"/>
        <pt x="1015" y="104" on="0"/>
        <pt x="878" y="28" on="0"/>
        <pt x="701" y="-23" on="0"/>
        <pt x="612" y="-23" on="1"/>
        <pt x="426" y="-23" on="0"/>
        <pt x="182" y="125" on="0"/>
        <pt x="67" y="390" on="0"/>
        <pt x="67" y="568" on="1"/>
      </contour>
      <contour>
        <pt x="746" y="679" on="1"/>
        <pt x="747" y="763" on="1"/>
        <pt x="747" y="888" on="0"/>
        <pt x="675" y="1026" on="0"/>
        <pt x="589" y="1026" on="1"/>
        <pt x="532" y="1026" on="0"/>
        <pt x="452" y="968" on="0"/>
        <pt x="404" y="815" on="0"/>
        <pt x="401" y="679" on="1"/>
      </contour>
    </TTGlyph>
    <TTGlyph name="eacute" xMin="67" yMin="-23" xMax="1065" yMax="1837">
      <component glyphName="acute" x="248" y="0" flags="0x0"/>
      <component glyphName="e" x="0" y="0" flags="0x0"/>
    </TTGlyph>
    <TTGlyph name="ebreve" xMin="67" yMin="-23" xMax="1065" yMax="1764">
      <component glyphName="e" x="0" y="0" flags="0x0"/>
      <component glyphName="breve" x="79" y="0" flags="0x0"/>
    </TTGlyph>
    <TTGlyph name="ecaron" xMin="67" yMin="-23" xMax="1065" yMax="1802">
      <component glyphName="caron" x="81" y="0" flags="0x0"/>
      <component glyphName="e" x="0" y="0" flags="0x0"/>
    </TTGlyph>
    <TTGlyph name="ecircumflex" xMin="67" yMin="-23" xMax="1065" yMax="1792">
      <component glyphName="circumflex" x="71" y="0" flags="0x0"/>
      <component glyphName="e" x="0" y="0" flags="0x0"/>
    </TTGlyph>
    <TTGlyph name="edieresis" xMin="67" yMin="-23" xMax="1065" yMax="1688">
      <component glyphName="dieresis" x="81" y="0" flags="0x0"/>
      <component glyphName="e" x="0" y="0" flags="0x0"/>
    </TTGlyph>
    <TTGlyph name="edotaccent" xMin="67" yMin="-23" xMax="1065" yMax="1685">
      <component glyphName="e" x="0" y="0" flags="0x0"/>
      <component glyphName="dotaccent" x="301" y="0" flags="0x0"/>
    </TTGlyph>
    <TTGlyph name="egrave" xMin="67" yMin="-23" xMax="1065" yMax="1837">
      <component glyphName="e" x="0" y="0" flags="0x0"/>
      <component glyphName="grave" x="249" y="0" flags="0x0"/>
    </TTGlyph>
    <TTGlyph name="eight" xMin="111" yMin="-23" xMax="1227" yMax="1544">
      <contour>
        <pt x="300" y="820" on="0"/>
        <pt x="173" y="1011" on="0"/>
        <pt x="173" y="1148" on="1"/>
        <pt x="173" y="1270" on="0"/>
        <pt x="308" y="1449" on="0"/>
        <pt x="534" y="1544" on="0"/>
        <pt x="667" y="1544" on="1"/>
        <pt x="810" y="1544" on="0"/>
        <pt x="1024" y="1459" on="0"/>
        <pt x="1140" y="1306" on="0"/>
        <pt x="1140" y="1207" on="1"/>
        <pt x="1140" y="1100" on="0"/>
        <pt x="1005" y="908" on="0"/>
        <pt x="881" y="844" on="1"/>
        <pt x="986" y="784" on="0"/>
        <pt x="1134" y="662" on="0"/>
        <pt x="1227" y="497" on="0"/>
        <pt x="1227" y="391" on="1"/>
        <pt x="1227" y="266" on="0"/>
        <pt x="1076" y="78" on="0"/>
        <pt x="817" y="-23" on="0"/>
        <pt x="658" y="-23" on="1"/>
        <pt x="516" y="-23" on="0"/>
        <pt x="267" y="56" on="0"/>
        <pt x="111" y="229" on="0"/>
        <pt x="111" y="361" on="1"/>
        <pt x="111" y="479" on="0"/>
        <pt x="265" y="680" on="0"/>
        <pt x="412" y="744" on="1"/>
      </contour>
      <contour>
        <pt x="824" y="955" on="0"/>
        <pt x="892" y="1088" on="0"/>
        <pt x="892" y="1152" on="1"/>
        <pt x="892" y="1279" on="0"/>
        <pt x="773" y="1414" on="0"/>
        <pt x="665" y="1414" on="1"/>
        <pt x="572" y="1414" on="0"/>
        <pt x="455" y="1315" on="0"/>
        <pt x="455" y="1226" on="1"/>
        <pt x="455" y="1159" on="0"/>
        <pt x="536" y="1050" on="0"/>
        <pt x="663" y="964" on="0"/>
        <pt x="765" y="908" on="1"/>
      </contour>
      <contour>
        <pt x="456" y="634" on="0"/>
        <pt x="384" y="499" on="0"/>
        <pt x="384" y="417" on="1"/>
        <pt x="384" y="329" on="0"/>
        <pt x="447" y="192" on="0"/>
        <pt x="573" y="114" on="0"/>
        <pt x="663" y="114" on="1"/>
        <pt x="729" y="114" on="0"/>
        <pt x="837" y="167" on="0"/>
        <pt x="900" y="266" on="0"/>
        <pt x="900" y="331" on="1"/>
        <pt x="900" y="400" on="0"/>
        <pt x="820" y="506" on="0"/>
        <pt x="701" y="583" on="0"/>
        <pt x="596" y="638" on="1"/>
        <pt x="517" y="681" on="1"/>
      </contour>
    </TTGlyph>
    <TTGlyph name="eight.dnom" xMin="104" yMin="-15" xMax="987" yMax="1062">
      <contour>
        <pt x="104" y="363" on="0"/>
        <pt x="205" y="480" on="0"/>
        <pt x="295" y="515" on="1"/>
        <pt x="225" y="562" on="0"/>
        <pt x="147" y="687" on="0"/>
        <pt x="147" y="774" on="1"/>
        <pt x="147" y="859" on="0"/>
        <pt x="253" y="990" on="0"/>
        <pt x="436" y="1062" on="0"/>
        <pt x="547" y="1062" on="1"/>
        <pt x="674" y="1062" on="0"/>
        <pt x="843" y="993" on="0"/>
        <pt x="923" y="879" on="0"/>
        <pt x="923" y="808" on="1"/>
        <pt x="923" y="738" on="0"/>
        <pt x="841" y="613" on="0"/>
        <pt x="761" y="572" on="1"/>
        <pt x="867" y="523" on="0"/>
        <pt x="987" y="396" on="0"/>
        <pt x="987" y="302" on="1"/>
        <pt x="987" y="209" on="0"/>
        <pt x="873" y="65" on="0"/>
        <pt x="672" y="-15" on="0"/>
        <pt x="548" y="-15" on="1"/>
        <pt x="434" y="-15" on="0"/>
        <pt x="231" y="50" on="0"/>
        <pt x="104" y="183" on="0"/>
        <pt x="104" y="281" on="1"/>
      </contour>
      <contour>
        <pt x="692" y="651" on="0"/>
        <pt x="730" y="741" on="0"/>
        <pt x="730" y="787" on="1"/>
        <pt x="730" y="860" on="0"/>
        <pt x="628" y="950" on="0"/>
        <pt x="546" y="950" on="1"/>
        <pt x="480" y="950" on="0"/>
        <pt x="388" y="885" on="0"/>
        <pt x="388" y="829" on="1"/>
        <pt x="388" y="781" on="0"/>
        <pt x="457" y="709" on="0"/>
        <pt x="558" y="659" on="0"/>
        <pt x="649" y="621" on="1"/>
      </contour>
      <contour>
        <pt x="357" y="437" on="0"/>
        <pt x="323" y="364" on="0"/>
        <pt x="323" y="321" on="1"/>
        <pt x="323" y="260" on="0"/>
        <pt x="373" y="161" on="0"/>
        <pt x="471" y="103" on="0"/>
        <pt x="540" y="103" on="1"/>
        <pt x="583" y="103" on="0"/>
        <pt x="662" y="138" on="0"/>
        <pt x="711" y="199" on="0"/>
        <pt x="711" y="237" on="1"/>
        <pt x="711" y="279" on="0"/>
        <pt x="653" y="341" on="0"/>
        <pt x="567" y="386" on="0"/>
        <pt x="489" y="419" on="1"/>
        <pt x="415" y="450" on="0"/>
        <pt x="389" y="463" on="1"/>
      </contour>
    </TTGlyph>
    <TTGlyph name="ellipsis" xMin="142" yMin="-17" xMax="1862" yMax="336">
      <contour>
        <pt x="142" y="204" on="0"/>
        <pt x="198" y="289" on="0"/>
        <pt x="291" y="336" on="0"/>
        <pt x="346" y="336" on="1"/>
        <pt x="402" y="336" on="0"/>
        <pt x="483" y="290" on="0"/>
        <pt x="526" y="213" on="0"/>
        <pt x="526" y="169" on="1"/>
        <pt x="526" y="83" on="0"/>
        <pt x="408" y="-17" on="0"/>
        <pt x="315" y="-17" on="1"/>
        <pt x="271" y="-17" on="0"/>
        <pt x="191" y="26" on="0"/>
        <pt x="142" y="102" on="0"/>
        <pt x="142" y="151" on="1"/>
      </contour>
      <contour>
        <pt x="810" y="204" on="0"/>
        <pt x="866" y="289" on="0"/>
        <pt x="959" y="336" on="0"/>
        <pt x="1014" y="336" on="1"/>
        <pt x="1070" y="336" on="0"/>
        <pt x="1151" y="290" on="0"/>
        <pt x="1194" y="213" on="0"/>
        <pt x="1194" y="169" on="1"/>
        <pt x="1194" y="83" on="0"/>
        <pt x="1076" y="-17" on="0"/>
        <pt x="983" y="-17" on="1"/>
        <pt x="939" y="-17" on="0"/>
        <pt x="859" y="26" on="0"/>
        <pt x="810" y="102" on="0"/>
        <pt x="810" y="151" on="1"/>
      </contour>
      <contour>
        <pt x="1478" y="205" on="0"/>
        <pt x="1534" y="289" on="0"/>
        <pt x="1628" y="336" on="0"/>
        <pt x="1683" y="336" on="1"/>
        <pt x="1738" y="336" on="0"/>
        <pt x="1820" y="290" on="0"/>
        <pt x="1862" y="213" on="0"/>
        <pt x="1862" y="169" on="1"/>
        <pt x="1862" y="83" on="0"/>
        <pt x="1744" y="-17" on="0"/>
        <pt x="1651" y="-17" on="1"/>
        <pt x="1607" y="-17" on="0"/>
        <pt x="1527" y="26" on="0"/>
        <pt x="1478" y="102" on="0"/>
        <pt x="1478" y="151" on="1"/>
      </contour>
    </TTGlyph>
    <TTGlyph name="emacron" xMin="67" yMin="-23" xMax="1065" yMax="1616">
      <component glyphName="e" x="0" y="0" flags="0x0"/>
      <component glyphName="macron" x="249" y="0" flags="0x0"/>
    </TTGlyph>
    <TTGlyph name="emdash" xMin="230" yMin="508" xMax="2278" yMax="723">
      <contour>
        <pt x="2278" y="723" on="1"/>
        <pt x="2278" y="508" on="1"/>
        <pt x="230" y="508" on="1"/>
        <pt x="230" y="723" on="1"/>
      </contour>
    </TTGlyph>
    <TTGlyph name="endash" xMin="230" yMin="508" xMax="1408" yMax="723">
      <contour>
        <pt x="1408" y="723" on="1"/>
        <pt x="1408" y="508" on="1"/>
        <pt x="230" y="508" on="1"/>
        <pt x="230" y="723" on="1"/>
      </contour>
    </TTGlyph>
    <TTGlyph name="eng" xMin="99" yMin="-531" xMax="1253" yMax="1170">
      <contour>
        <pt x="221" y="153" on="1"/>
        <pt x="221" y="925" on="1"/>
        <pt x="99" y="966" on="1"/>
        <pt x="99" y="1124" on="1"/>
        <pt x="459" y="1170" on="1"/>
        <pt x="464" y="1170" on="1"/>
        <pt x="519" y="1125" on="1"/>
        <pt x="519" y="1063" on="1"/>
        <pt x="518" y="1007" on="1"/>
        <pt x="590" y="1074" on="0"/>
        <pt x="810" y="1165" on="0"/>
        <pt x="924" y="1165" on="1"/>
        <pt x="1049" y="1165" on="0"/>
        <pt x="1192" y="1077" on="0"/>
        <pt x="1253" y="885" on="0"/>
        <pt x="1253" y="720" on="1"/>
        <pt x="1253" y="22" on="1"/>
        <pt x="1253" y="-236" on="0"/>
        <pt x="1028" y="-523" on="0"/>
        <pt x="812" y="-530" on="1"/>
        <pt x="793" y="-531" on="0"/>
        <pt x="709" y="-527" on="0"/>
        <pt x="702" y="-522" on="1"/>
        <pt x="692" y="-385" on="1"/>
        <pt x="708" y="-387" on="0"/>
        <pt x="780" y="-372" on="0"/>
        <pt x="800" y="-363" on="1"/>
        <pt x="854" y="-340" on="0"/>
        <pt x="907" y="-225" on="0"/>
        <pt x="922" y="-72" on="0"/>
        <pt x="922" y="46" on="1"/>
        <pt x="922" y="720" on="1"/>
        <pt x="922" y="815" on="0"/>
        <pt x="896" y="922" on="0"/>
        <pt x="827" y="972" on="0"/>
        <pt x="763" y="972" on="1"/>
        <pt x="705" y="972" on="0"/>
        <pt x="595" y="926" on="0"/>
        <pt x="551" y="892" on="1"/>
        <pt x="551" y="153" on="1"/>
        <pt x="667" y="133" on="1"/>
        <pt x="667" y="0" on="1"/>
        <pt x="105" y="0" on="1"/>
        <pt x="105" y="134" on="1"/>
      </contour>
    </TTGlyph>
    <TTGlyph name="eogonek" xMin="67" yMin="-513" xMax="1065" yMax="1167">
      <contour>
        <pt x="67" y="753" on="0"/>
        <pt x="206" y="1023" on="0"/>
        <pt x="458" y="1167" on="0"/>
        <pt x="624" y="1167" on="1"/>
        <pt x="835" y="1167" on="0"/>
        <pt x="1060" y="953" on="0"/>
        <pt x="1065" y="753" on="1"/>
        <pt x="1065" y="614" on="0"/>
        <pt x="1050" y="542" on="1"/>
        <pt x="404" y="542" on="1"/>
        <pt x="416" y="358" on="0"/>
        <pt x="573" y="180" on="0"/>
        <pt x="703" y="180" on="1"/>
        <pt x="778" y="180" on="0"/>
        <pt x="941" y="232" on="0"/>
        <pt x="992" y="265" on="1"/>
        <pt x="1050" y="141" on="1"/>
        <pt x="1016" y="105" on="0"/>
        <pt x="955" y="71" on="1"/>
        <pt x="871" y="3" on="0"/>
        <pt x="784" y="-79" on="0"/>
        <pt x="738" y="-163" on="0"/>
        <pt x="738" y="-212" on="1"/>
        <pt x="738" y="-266" on="0"/>
        <pt x="818" y="-330" on="0"/>
        <pt x="882" y="-330" on="1"/>
        <pt x="915" y="-330" on="0"/>
        <pt x="964" y="-320" on="0"/>
        <pt x="997" y="-306" on="1"/>
        <pt x="997" y="-448" on="1"/>
        <pt x="956" y="-478" on="0"/>
        <pt x="819" y="-513" on="0"/>
        <pt x="753" y="-513" on="1"/>
        <pt x="677" y="-513" on="0"/>
        <pt x="549" y="-469" on="0"/>
        <pt x="471" y="-374" on="0"/>
        <pt x="471" y="-302" on="1"/>
        <pt x="471" y="-226" on="0"/>
        <pt x="602" y="-69" on="0"/>
        <pt x="699" y="-16" on="1"/>
        <pt x="650" y="-23" on="0"/>
        <pt x="612" y="-23" on="1"/>
        <pt x="426" y="-23" on="0"/>
        <pt x="182" y="125" on="0"/>
        <pt x="67" y="390" on="0"/>
        <pt x="67" y="568" on="1"/>
      </contour>
      <contour>
        <pt x="746" y="679" on="1"/>
        <pt x="747" y="763" on="1"/>
        <pt x="747" y="888" on="0"/>
        <pt x="675" y="1026" on="0"/>
        <pt x="589" y="1026" on="1"/>
        <pt x="532" y="1026" on="0"/>
        <pt x="452" y="968" on="0"/>
        <pt x="404" y="815" on="0"/>
        <pt x="401" y="679" on="1"/>
      </contour>
    </TTGlyph>
    <TTGlyph name="equal" xMin="203" yMin="242" xMax="1139" yMax="989">
      <contour>
        <pt x="1139" y="989" on="1"/>
        <pt x="1139" y="788" on="1"/>
        <pt x="203" y="788" on="1"/>
        <pt x="203" y="989" on="1"/>
      </contour>
      <contour>
        <pt x="1139" y="444" on="1"/>
        <pt x="1139" y="242" on="1"/>
        <pt x="203" y="242" on="1"/>
        <pt x="203" y="444" on="1"/>
      </contour>
    </TTGlyph>
    <TTGlyph name="estimated" xMin="101" yMin="-30" xMax="1292" yMax="1370">
      <contour>
        <pt x="101" y="875" on="0"/>
        <pt x="251" y="1191" on="0"/>
        <pt x="546" y="1370" on="0"/>
        <pt x="757" y="1370" on="1"/>
        <pt x="912" y="1370" on="0"/>
        <pt x="1150" y="1241" on="0"/>
        <pt x="1286" y="1000" on="0"/>
        <pt x="1292" y="835" on="1"/>
        <pt x="1292" y="752" on="0"/>
        <pt x="1288" y="660" on="0"/>
        <pt x="1280" y="625" on="1"/>
        <pt x="469" y="626" on="1"/>
        <pt x="469" y="269" on="1"/>
        <pt x="518" y="201" on="0"/>
        <pt x="660" y="132" on="0"/>
        <pt x="751" y="132" on="1"/>
        <pt x="880" y="132" on="0"/>
        <pt x="1074" y="188" on="0"/>
        <pt x="1133" y="229" on="1"/>
        <pt x="1201" y="93" on="1"/>
        <pt x="1129" y="41" on="0"/>
        <pt x="890" y="-30" on="0"/>
        <pt x="751" y="-30" on="1"/>
        <pt x="556" y="-30" on="0"/>
        <pt x="261" y="149" on="0"/>
        <pt x="101" y="467" on="0"/>
        <pt x="101" y="671" on="1"/>
      </contour>
      <contour>
        <pt x="469" y="759" on="1"/>
        <pt x="944" y="759" on="1"/>
        <pt x="944" y="1159" on="1"/>
        <pt x="878" y="1230" on="0"/>
        <pt x="747" y="1230" on="1"/>
        <pt x="652" y="1230" on="0"/>
        <pt x="515" y="1180" on="0"/>
        <pt x="469" y="1116" on="1"/>
      </contour>
    </TTGlyph>
    <TTGlyph name="eth" xMin="69" yMin="-23" xMax="1168" yMax="1885">
      <contour>
        <pt x="382" y="1577" on="1"/>
        <pt x="325" y="1613" on="0"/>
        <pt x="211" y="1668" on="0"/>
        <pt x="175" y="1677" on="1"/>
        <pt x="232" y="1816" on="1"/>
        <pt x="301" y="1798" on="0"/>
        <pt x="424" y="1755" on="0"/>
        <pt x="494" y="1721" on="1"/>
        <pt x="538" y="1779" on="0"/>
        <pt x="607" y="1870" on="0"/>
        <pt x="618" y="1885" on="1"/>
        <pt x="745" y="1785" on="1"/>
        <pt x="735" y="1772" on="0"/>
        <pt x="673" y="1693" on="0"/>
        <pt x="631" y="1642" on="1"/>
        <pt x="783" y="1538" on="0"/>
        <pt x="1025" y="1250" on="0"/>
        <pt x="1168" y="884" on="0"/>
        <pt x="1168" y="676" on="1"/>
        <pt x="1168" y="499" on="0"/>
        <pt x="1059" y="182" on="0"/>
        <pt x="809" y="-23" on="0"/>
        <pt x="610" y="-23" on="1"/>
        <pt x="436" y="-23" on="0"/>
        <pt x="193" y="119" on="0"/>
        <pt x="69" y="375" on="0"/>
        <pt x="69" y="545" on="1"/>
        <pt x="69" y="747" on="0"/>
        <pt x="218" y="1029" on="0"/>
        <pt x="459" y="1168" on="0"/>
        <pt x="598" y="1168" on="1"/>
        <pt x="698" y="1168" on="0"/>
        <pt x="777" y="1136" on="1"/>
        <pt x="745" y="1239" on="0"/>
        <pt x="606" y="1420" on="0"/>
        <pt x="509" y="1487" on="1"/>
        <pt x="383" y="1321" on="1"/>
        <pt x="249" y="1413" on="1"/>
      </contour>
      <contour>
        <pt x="829" y="736" on="0"/>
        <pt x="806" y="918" on="0"/>
        <pt x="792" y="963" on="1"/>
        <pt x="772" y="988" on="0"/>
        <pt x="689" y="1030" on="0"/>
        <pt x="628" y="1030" on="1"/>
        <pt x="421" y="1030" on="0"/>
        <pt x="421" y="580" on="1"/>
        <pt x="421" y="386" on="0"/>
        <pt x="520" y="124" on="0"/>
        <pt x="625" y="124" on="1"/>
        <pt x="727" y="124" on="0"/>
        <pt x="829" y="365" on="0"/>
        <pt x="829" y="633" on="1"/>
      </contour>
    </TTGlyph>
    <TTGlyph name="exclam" xMin="166" yMin="-17" xMax="556" yMax="1795">
      <contour>
        <pt x="537" y="1795" on="1"/>
        <pt x="458" y="538" on="1"/>
        <pt x="255" y="538" on="1"/>
        <pt x="166" y="1795" on="1"/>
      </contour>
      <contour>
        <pt x="433" y="336" on="0"/>
        <pt x="514" y="290" on="0"/>
        <pt x="556" y="214" on="0"/>
        <pt x="556" y="169" on="1"/>
        <pt x="556" y="83" on="0"/>
        <pt x="440" y="-17" on="0"/>
        <pt x="348" y="-17" on="1"/>
        <pt x="303" y="-17" on="0"/>
        <pt x="223" y="25" on="0"/>
        <pt x="174" y="102" on="0"/>
        <pt x="174" y="151" on="1"/>
        <pt x="174" y="204" on="0"/>
        <pt x="229" y="289" on="0"/>
        <pt x="323" y="336" on="0"/>
        <pt x="377" y="336" on="1"/>
      </contour>
    </TTGlyph>
    <TTGlyph name="exclamdbl" xMin="166" yMin="-17" xMax="1183" yMax="1795">
      <component glyphName="exclam" x="627" y="0" flags="0x0"/>
      <component glyphName="exclam" x="0" y="0" flags="0x0"/>
    </TTGlyph>
    <TTGlyph name="exclamdown" xMin="165" yMin="-379" xMax="555" yMax="1433">
      <contour>
        <pt x="288" y="1080" on="0"/>
        <pt x="207" y="1126" on="0"/>
        <pt x="165" y="1202" on="0"/>
        <pt x="165" y="1247" on="1"/>
        <pt x="165" y="1333" on="0"/>
        <pt x="281" y="1433" on="0"/>
        <pt x="373" y="1433" on="1"/>
        <pt x="418" y="1433" on="0"/>
        <pt x="498" y="1391" on="0"/>
        <pt x="547" y="1314" on="0"/>
        <pt x="547" y="1265" on="1"/>
        <pt x="547" y="1212" on="0"/>
        <pt x="492" y="1127" on="0"/>
        <pt x="398" y="1080" on="0"/>
        <pt x="344" y="1080" on="1"/>
      </contour>
      <contour>
        <pt x="184" y="-379" on="1"/>
        <pt x="263" y="878" on="1"/>
        <pt x="466" y="878" on="1"/>
        <pt x="555" y="-379" on="1"/>
      </contour>
    </TTGlyph>
    <TTGlyph name="f" xMin="65" yMin="0" xMax="896" yMax="1712">
      <contour>
        <pt x="229" y="155" on="1"/>
        <pt x="229" y="966" on="1"/>
        <pt x="65" y="966" on="1"/>
        <pt x="65" y="1089" on="1"/>
        <pt x="229" y="1134" on="1"/>
        <pt x="229" y="1222" on="1"/>
        <pt x="229" y="1357" on="0"/>
        <pt x="378" y="1582" on="0"/>
        <pt x="623" y="1712" on="0"/>
        <pt x="762" y="1712" on="1"/>
        <pt x="812" y="1712" on="0"/>
        <pt x="868" y="1701" on="0"/>
        <pt x="896" y="1692" on="1"/>
        <pt x="896" y="1396" on="1"/>
        <pt x="882" y="1411" on="0"/>
        <pt x="814" y="1446" on="0"/>
        <pt x="724" y="1469" on="0"/>
        <pt x="681" y="1469" on="1"/>
        <pt x="630" y="1469" on="0"/>
        <pt x="575" y="1444" on="0"/>
        <pt x="552" y="1382" on="0"/>
        <pt x="552" y="1325" on="1"/>
        <pt x="552" y="1136" on="1"/>
        <pt x="805" y="1136" on="1"/>
        <pt x="805" y="966" on="1"/>
        <pt x="552" y="966" on="1"/>
        <pt x="552" y="153" on="1"/>
        <pt x="757" y="133" on="1"/>
        <pt x="757" y="0" on="1"/>
        <pt x="74" y="0" on="1"/>
        <pt x="74" y="133" on="1"/>
      </contour>
    </TTGlyph>
    <TTGlyph name="f_f" xMin="65" yMin="0" xMax="1747" yMax="1712">
      <component glyphName="f" x="0" y="0" flags="0x0"/>
      <component glyphName="f" x="851" y="0" flags="0x0"/>
    </TTGlyph>
    <TTGlyph name="f_f_i" xMin="65" yMin="0" xMax="2367" yMax="1712">
      <component glyphName="f" x="0" y="0" flags="0x0"/>
      <component glyphName="f" x="851" y="0" flags="0x0"/>
      <component glyphName="dotlessi" x="1702" y="0" flags="0x0"/>
      <component glyphName="dotaccent" x="1766" y="0" flags="0x0"/>
    </TTGlyph>
    <TTGlyph name="f_f_l" xMin="65" yMin="0" xMax="2355" yMax="1712">
      <component glyphName="f" x="0" y="0" flags="0x0"/>
      <component glyphName="f" x="851" y="0" flags="0x0"/>
      <component glyphName="l" x="1702" y="0" flags="0x0"/>
    </TTGlyph>
    <TTGlyph name="fi" xMin="65" yMin="0" xMax="1516" yMax="1712">
      <contour>
        <pt x="229" y="155" on="1"/>
        <pt x="229" y="966" on="1"/>
        <pt x="65" y="966" on="1"/>
        <pt x="65" y="1089" on="1"/>
        <pt x="229" y="1134" on="1"/>
        <pt x="229" y="1210" on="1"/>
        <pt x="229" y="1342" on="0"/>
        <pt x="370" y="1574" on="0"/>
        <pt x="601" y="1712" on="0"/>
        <pt x="731" y="1712" on="1"/>
        <pt x="773" y="1712" on="0"/>
        <pt x="838" y="1699" on="0"/>
        <pt x="855" y="1692" on="1"/>
        <pt x="855" y="1393" on="1"/>
        <pt x="843" y="1408" on="0"/>
        <pt x="780" y="1444" on="0"/>
        <pt x="700" y="1469" on="0"/>
        <pt x="664" y="1469" on="1"/>
        <pt x="604" y="1469" on="0"/>
        <pt x="552" y="1408" on="0"/>
        <pt x="552" y="1327" on="1"/>
        <pt x="552" y="1136" on="1"/>
        <pt x="805" y="1136" on="1"/>
        <pt x="805" y="966" on="1"/>
        <pt x="552" y="966" on="1"/>
        <pt x="552" y="153" on="1"/>
        <pt x="757" y="133" on="1"/>
        <pt x="757" y="0" on="1"/>
        <pt x="74" y="0" on="1"/>
        <pt x="74" y="133" on="1"/>
      </contour>
      <contour>
        <pt x="1030" y="1542" on="0"/>
        <pt x="1075" y="1632" on="0"/>
        <pt x="1162" y="1685" on="0"/>
        <pt x="1222" y="1685" on="1"/>
        <pt x="1223" y="1685" on="1"/>
        <pt x="1280" y="1685" on="0"/>
        <pt x="1361" y="1639" on="0"/>
        <pt x="1404" y="1563" on="0"/>
        <pt x="1404" y="1517" on="1"/>
        <pt x="1404" y="1431" on="0"/>
        <pt x="1300" y="1322" on="0"/>
        <pt x="1203" y="1322" on="1"/>
        <pt x="1202" y="1322" on="1"/>
        <pt x="1152" y="1322" on="0"/>
        <pt x="1074" y="1366" on="0"/>
        <pt x="1030" y="1441" on="0"/>
        <pt x="1030" y="1488" on="1"/>
      </contour>
      <contour>
        <pt x="1062" y="154" on="1"/>
        <pt x="1062" y="922" on="1"/>
        <pt x="927" y="963" on="1"/>
        <pt x="927" y="1116" on="1"/>
        <pt x="1321" y="1166" on="1"/>
        <pt x="1326" y="1166" on="1"/>
        <pt x="1388" y="1122" on="1"/>
        <pt x="1388" y="153" on="1"/>
        <pt x="1516" y="134" on="1"/>
        <pt x="1516" y="0" on="1"/>
        <pt x="928" y="0" on="1"/>
        <pt x="928" y="134" on="1"/>
      </contour>
    </TTGlyph>
    <TTGlyph name="five" xMin="171" yMin="-329" xMax="1145" yMax="1306">
      <contour>
        <pt x="427" y="-174" on="0"/>
        <pt x="653" y="-59" on="0"/>
        <pt x="785" y="138" on="0"/>
        <pt x="785" y="257" on="1"/>
        <pt x="785" y="401" on="0"/>
        <pt x="642" y="518" on="0"/>
        <pt x="507" y="518" on="1"/>
        <pt x="444" y="518" on="0"/>
        <pt x="298" y="483" on="0"/>
        <pt x="246" y="458" on="1"/>
        <pt x="171" y="511" on="1"/>
        <pt x="263" y="1267" on="1"/>
        <pt x="914" y="1267" on="1"/>
        <pt x="935" y="1306" on="1"/>
        <pt x="1078" y="1306" on="1"/>
        <pt x="1033" y="1025" on="1"/>
        <pt x="474" y="1025" on="1"/>
        <pt x="399" y="634" on="1"/>
        <pt x="556" y="715" on="0"/>
        <pt x="714" y="715" on="1"/>
        <pt x="924" y="715" on="0"/>
        <pt x="1145" y="511" on="0"/>
        <pt x="1145" y="315" on="1"/>
        <pt x="1145" y="131" on="0"/>
        <pt x="930" y="-163" on="0"/>
        <pt x="553" y="-329" on="0"/>
        <pt x="319" y="-329" on="1"/>
        <pt x="236" y="-329" on="0"/>
        <pt x="176" y="-315" on="1"/>
        <pt x="177" y="-168" on="1"/>
        <pt x="249" y="-174" on="0"/>
        <pt x="293" y="-174" on="1"/>
      </contour>
    </TTGlyph>
    <TTGlyph name="five.numr" xMin="121" yMin="529" xMax="882" yMax="1589">
      <contour>
        <pt x="184" y="658" on="0"/>
        <pt x="262" y="658" on="1"/>
        <pt x="417" y="658" on="0"/>
        <pt x="602" y="776" on="0"/>
        <pt x="602" y="885" on="1"/>
        <pt x="602" y="965" on="0"/>
        <pt x="504" y="1052" on="0"/>
        <pt x="406" y="1052" on="1"/>
        <pt x="347" y="1052" on="0"/>
        <pt x="234" y="1020" on="0"/>
        <pt x="207" y="1004" on="1"/>
        <pt x="121" y="1063" on="1"/>
        <pt x="174" y="1589" on="1"/>
        <pt x="841" y="1589" on="1"/>
        <pt x="829" y="1397" on="1"/>
        <pt x="342" y="1397" on="1"/>
        <pt x="304" y="1151" on="1"/>
        <pt x="339" y="1169" on="0"/>
        <pt x="476" y="1204" on="0"/>
        <pt x="544" y="1204" on="1"/>
        <pt x="718" y="1204" on="0"/>
        <pt x="882" y="1050" on="0"/>
        <pt x="882" y="915" on="1"/>
        <pt x="882" y="799" on="0"/>
        <pt x="747" y="625" on="0"/>
        <pt x="495" y="529" on="0"/>
        <pt x="326" y="529" on="1"/>
        <pt x="193" y="529" on="0"/>
        <pt x="138" y="543" on="1"/>
        <pt x="147" y="666" on="1"/>
      </contour>
    </TTGlyph>
    <TTGlyph name="fiveeighths" xMin="121" yMin="-188" xMax="2335" yMax="1662">
      <contour>
        <pt x="1411" y="1662" on="1"/>
        <pt x="1605" y="1644" on="1"/>
        <pt x="897" y="-188" on="1"/>
        <pt x="703" y="-172" on="1"/>
      </contour>
      <contour>
        <pt x="184" y="658" on="0"/>
        <pt x="262" y="658" on="1"/>
        <pt x="417" y="658" on="0"/>
        <pt x="602" y="776" on="0"/>
        <pt x="602" y="885" on="1"/>
        <pt x="602" y="965" on="0"/>
        <pt x="504" y="1052" on="0"/>
        <pt x="406" y="1052" on="1"/>
        <pt x="347" y="1052" on="0"/>
        <pt x="234" y="1020" on="0"/>
        <pt x="207" y="1004" on="1"/>
        <pt x="121" y="1063" on="1"/>
        <pt x="174" y="1589" on="1"/>
        <pt x="841" y="1589" on="1"/>
        <pt x="829" y="1397" on="1"/>
        <pt x="342" y="1397" on="1"/>
        <pt x="304" y="1151" on="1"/>
        <pt x="339" y="1169" on="0"/>
        <pt x="476" y="1204" on="0"/>
        <pt x="544" y="1204" on="1"/>
        <pt x="718" y="1204" on="0"/>
        <pt x="882" y="1050" on="0"/>
        <pt x="882" y="915" on="1"/>
        <pt x="882" y="799" on="0"/>
        <pt x="747" y="625" on="0"/>
        <pt x="495" y="529" on="0"/>
        <pt x="326" y="529" on="1"/>
        <pt x="193" y="529" on="0"/>
        <pt x="138" y="543" on="1"/>
        <pt x="147" y="666" on="1"/>
      </contour>
      <contour>
        <pt x="1452" y="363" on="0"/>
        <pt x="1553" y="480" on="0"/>
        <pt x="1643" y="515" on="1"/>
        <pt x="1573" y="562" on="0"/>
        <pt x="1495" y="687" on="0"/>
        <pt x="1495" y="774" on="1"/>
        <pt x="1495" y="859" on="0"/>
        <pt x="1601" y="990" on="0"/>
        <pt x="1784" y="1062" on="0"/>
        <pt x="1895" y="1062" on="1"/>
        <pt x="2022" y="1062" on="0"/>
        <pt x="2191" y="993" on="0"/>
        <pt x="2271" y="879" on="0"/>
        <pt x="2271" y="808" on="1"/>
        <pt x="2271" y="738" on="0"/>
        <pt x="2189" y="613" on="0"/>
        <pt x="2109" y="572" on="1"/>
        <pt x="2215" y="523" on="0"/>
        <pt x="2335" y="396" on="0"/>
        <pt x="2335" y="302" on="1"/>
        <pt x="2335" y="209" on="0"/>
        <pt x="2221" y="65" on="0"/>
        <pt x="2020" y="-15" on="0"/>
        <pt x="1896" y="-15" on="1"/>
        <pt x="1782" y="-15" on="0"/>
        <pt x="1579" y="50" on="0"/>
        <pt x="1452" y="183" on="0"/>
        <pt x="1452" y="281" on="1"/>
      </contour>
      <contour>
        <pt x="2040" y="651" on="0"/>
        <pt x="2078" y="741" on="0"/>
        <pt x="2078" y="787" on="1"/>
        <pt x="2078" y="860" on="0"/>
        <pt x="1976" y="950" on="0"/>
        <pt x="1894" y="950" on="1"/>
        <pt x="1828" y="950" on="0"/>
        <pt x="1736" y="885" on="0"/>
        <pt x="1736" y="829" on="1"/>
        <pt x="1736" y="781" on="0"/>
        <pt x="1805" y="709" on="0"/>
        <pt x="1906" y="659" on="0"/>
        <pt x="1997" y="621" on="1"/>
      </contour>
      <contour>
        <pt x="1705" y="437" on="0"/>
        <pt x="1671" y="364" on="0"/>
        <pt x="1671" y="321" on="1"/>
        <pt x="1671" y="260" on="0"/>
        <pt x="1721" y="161" on="0"/>
        <pt x="1819" y="103" on="0"/>
        <pt x="1888" y="103" on="1"/>
        <pt x="1931" y="103" on="0"/>
        <pt x="2010" y="138" on="0"/>
        <pt x="2059" y="199" on="0"/>
        <pt x="2059" y="237" on="1"/>
        <pt x="2059" y="279" on="0"/>
        <pt x="2001" y="341" on="0"/>
        <pt x="1915" y="386" on="0"/>
        <pt x="1837" y="419" on="1"/>
        <pt x="1763" y="450" on="0"/>
        <pt x="1737" y="463" on="1"/>
      </contour>
    </TTGlyph>
    <TTGlyph name="fl" xMin="65" yMin="0" xMax="1504" yMax="1712">
      <contour>
        <pt x="229" y="155" on="1"/>
        <pt x="229" y="966" on="1"/>
        <pt x="65" y="966" on="1"/>
        <pt x="65" y="1089" on="1"/>
        <pt x="229" y="1134" on="1"/>
        <pt x="229" y="1210" on="1"/>
        <pt x="229" y="1342" on="0"/>
        <pt x="370" y="1574" on="0"/>
        <pt x="601" y="1712" on="0"/>
        <pt x="731" y="1712" on="1"/>
        <pt x="773" y="1712" on="0"/>
        <pt x="838" y="1699" on="0"/>
        <pt x="855" y="1692" on="1"/>
        <pt x="855" y="1393" on="1"/>
        <pt x="843" y="1408" on="0"/>
        <pt x="780" y="1444" on="0"/>
        <pt x="700" y="1469" on="0"/>
        <pt x="664" y="1469" on="1"/>
        <pt x="604" y="1469" on="0"/>
        <pt x="552" y="1408" on="0"/>
        <pt x="552" y="1327" on="1"/>
        <pt x="552" y="1136" on="1"/>
        <pt x="805" y="1136" on="1"/>
        <pt x="805" y="966" on="1"/>
        <pt x="552" y="966" on="1"/>
        <pt x="552" y="153" on="1"/>
        <pt x="757" y="133" on="1"/>
        <pt x="757" y="0" on="1"/>
        <pt x="74" y="0" on="1"/>
        <pt x="74" y="133" on="1"/>
      </contour>
      <contour>
        <pt x="1047" y="154" on="1"/>
        <pt x="1047" y="1482" on="1"/>
        <pt x="900" y="1508" on="1"/>
        <pt x="900" y="1631" on="1"/>
        <pt x="1304" y="1680" on="1"/>
        <pt x="1309" y="1680" on="1"/>
        <pt x="1369" y="1636" on="1"/>
        <pt x="1369" y="154" on="1"/>
        <pt x="1504" y="134" on="1"/>
        <pt x="1504" y="0" on="1"/>
        <pt x="913" y="0" on="1"/>
        <pt x="913" y="134" on="1"/>
      </contour>
    </TTGlyph>
    <TTGlyph name="florin" xMin="176" yMin="-356" xMax="1055" yMax="1685">
      <contour>
        <pt x="176" y="949" on="1"/>
        <pt x="189" y="1076" on="1"/>
        <pt x="392" y="1136" on="1"/>
        <pt x="403" y="1218" on="1"/>
        <pt x="414" y="1360" on="0"/>
        <pt x="558" y="1573" on="0"/>
        <pt x="766" y="1685" on="0"/>
        <pt x="873" y="1685" on="1"/>
        <pt x="942" y="1685" on="0"/>
        <pt x="1035" y="1671" on="0"/>
        <pt x="1055" y="1664" on="1"/>
        <pt x="1030" y="1419" on="1"/>
        <pt x="968" y="1464" on="0"/>
        <pt x="864" y="1464" on="1"/>
        <pt x="799" y="1464" on="0"/>
        <pt x="713" y="1384" on="0"/>
        <pt x="703" y="1280" on="1"/>
        <pt x="686" y="1136" on="1"/>
        <pt x="975" y="1136" on="1"/>
        <pt x="958" y="949" on="1"/>
        <pt x="666" y="949" on="1"/>
        <pt x="552" y="-356" on="1"/>
        <pt x="258" y="-356" on="1"/>
        <pt x="372" y="949" on="1"/>
      </contour>
    </TTGlyph>
    <TTGlyph name="four" xMin="45" yMin="-328" xMax="1311" yMax="1397">
      <contour>
        <pt x="148" y="308" on="0"/>
        <pt x="477" y="1046" on="0"/>
        <pt x="625" y="1397" on="1"/>
        <pt x="698" y="1397" on="1"/>
        <pt x="957" y="1257" on="1"/>
        <pt x="434" y="305" on="1"/>
        <pt x="342" y="167" on="1"/>
        <pt x="797" y="197" on="1"/>
        <pt x="818" y="552" on="1"/>
        <pt x="1078" y="573" on="1"/>
        <pt x="1078" y="216" on="1"/>
        <pt x="1311" y="232" on="1"/>
        <pt x="1311" y="0" on="1"/>
        <pt x="1078" y="0" on="1"/>
        <pt x="1078" y="-328" on="1"/>
        <pt x="796" y="-328" on="1"/>
        <pt x="796" y="0" on="1"/>
        <pt x="121" y="0" on="1"/>
        <pt x="45" y="119" on="1"/>
      </contour>
    </TTGlyph>
    <TTGlyph name="four.dnom" xMin="45" yMin="2" xMax="1017" yMax="1101">
      <contour>
        <pt x="82" y="383" on="0"/>
        <pt x="387" y="969" on="0"/>
        <pt x="454" y="1101" on="1"/>
        <pt x="688" y="1101" on="1"/>
        <pt x="736" y="1045" on="1"/>
        <pt x="385" y="482" on="1"/>
        <pt x="274" y="344" on="1"/>
        <pt x="612" y="361" on="1"/>
        <pt x="636" y="605" on="1"/>
        <pt x="841" y="622" on="1"/>
        <pt x="841" y="373" on="1"/>
        <pt x="1017" y="382" on="1"/>
        <pt x="1016" y="206" on="1"/>
        <pt x="841" y="206" on="1"/>
        <pt x="841" y="2" on="1"/>
        <pt x="610" y="2" on="1"/>
        <pt x="609" y="206" on="1"/>
        <pt x="131" y="206" on="1"/>
        <pt x="45" y="317" on="1"/>
      </contour>
    </TTGlyph>
    <TTGlyph name="fraction" xMin="-260" yMin="-188" xMax="642" yMax="1662">
      <contour>
        <pt x="448" y="1662" on="1"/>
        <pt x="642" y="1644" on="1"/>
        <pt x="-66" y="-188" on="1"/>
        <pt x="-260" y="-172" on="1"/>
      </contour>
    </TTGlyph>
    <TTGlyph name="franc" xMin="95" yMin="0" xMax="1305" yMax="1522">
      <contour>
        <pt x="304" y="457" on="1"/>
        <pt x="304" y="1348" on="1"/>
        <pt x="141" y="1377" on="1"/>
        <pt x="141" y="1522" on="1"/>
        <pt x="1288" y="1522" on="1"/>
        <pt x="1305" y="1145" on="1"/>
        <pt x="1133" y="1145" on="1"/>
        <pt x="1059" y="1363" on="1"/>
        <pt x="650" y="1386" on="1"/>
        <pt x="650" y="857" on="1"/>
        <pt x="915" y="862" on="1"/>
        <pt x="957" y="1015" on="1"/>
        <pt x="1105" y="1015" on="1"/>
        <pt x="1105" y="535" on="1"/>
        <pt x="958" y="535" on="1"/>
        <pt x="915" y="697" on="1"/>
        <pt x="650" y="705" on="1"/>
        <pt x="650" y="457" on="1"/>
        <pt x="888" y="457" on="1"/>
        <pt x="888" y="305" on="1"/>
        <pt x="650" y="305" on="1"/>
        <pt x="650" y="158" on="1"/>
        <pt x="860" y="134" on="1"/>
        <pt x="860" y="0" on="1"/>
        <pt x="150" y="0" on="1"/>
        <pt x="150" y="134" on="1"/>
        <pt x="304" y="159" on="1"/>
        <pt x="304" y="305" on="1"/>
        <pt x="95" y="305" on="1"/>
        <pt x="95" y="457" on="1"/>
      </contour>
    </TTGlyph>
    <TTGlyph name="g" xMin="69" yMin="-552" xMax="1276" yMax="1171">
      <contour>
        <pt x="587" y="398" on="1"/>
        <pt x="490" y="398" on="0"/>
        <pt x="423" y="412" on="1"/>
        <pt x="411" y="389" on="0"/>
        <pt x="397" y="333" on="0"/>
        <pt x="397" y="314" on="1"/>
        <pt x="397" y="270" on="0"/>
        <pt x="441" y="225" on="0"/>
        <pt x="534" y="208" on="0"/>
        <pt x="618" y="208" on="1"/>
        <pt x="822" y="208" on="1"/>
        <pt x="1036" y="208" on="0"/>
        <pt x="1248" y="54" on="0"/>
        <pt x="1248" y="-108" on="1"/>
        <pt x="1248" y="-239" on="0"/>
        <pt x="1067" y="-441" on="0"/>
        <pt x="772" y="-552" on="0"/>
        <pt x="608" y="-552" on="1"/>
        <pt x="607" y="-552" on="1"/>
        <pt x="327" y="-552" on="0"/>
        <pt x="69" y="-379" on="0"/>
        <pt x="69" y="-234" on="1"/>
        <pt x="69" y="-148" on="0"/>
        <pt x="177" y="4" on="0"/>
        <pt x="258" y="39" on="1"/>
        <pt x="162" y="95" on="0"/>
        <pt x="162" y="208" on="1"/>
        <pt x="162" y="277" on="0"/>
        <pt x="250" y="403" on="0"/>
        <pt x="325" y="440" on="1"/>
        <pt x="212" y="485" on="0"/>
        <pt x="104" y="661" on="0"/>
        <pt x="104" y="783" on="1"/>
        <pt x="104" y="900" on="0"/>
        <pt x="242" y="1075" on="0"/>
        <pt x="476" y="1168" on="0"/>
        <pt x="616" y="1168" on="1"/>
        <pt x="617" y="1168" on="1"/>
        <pt x="874" y="1168" on="0"/>
        <pt x="992" y="1068" on="1"/>
        <pt x="1022" y="1106" on="0"/>
        <pt x="1143" y="1171" on="0"/>
        <pt x="1214" y="1171" on="1"/>
        <pt x="1276" y="1171" on="1"/>
        <pt x="1276" y="924" on="1"/>
        <pt x="1081" y="924" on="1"/>
        <pt x="1096" y="870" on="0"/>
        <pt x="1096" y="807" on="1"/>
        <pt x="1097" y="685" on="0"/>
        <pt x="976" y="500" on="0"/>
        <pt x="746" y="398" on="0"/>
        <pt x="588" y="398" on="1"/>
      </contour>
      <contour>
        <pt x="605" y="1035" on="1"/>
        <pt x="517" y="1035" on="0"/>
        <pt x="431" y="916" on="0"/>
        <pt x="431" y="796" on="1"/>
        <pt x="431" y="671" on="0"/>
        <pt x="515" y="536" on="0"/>
        <pt x="610" y="536" on="1"/>
        <pt x="611" y="536" on="1"/>
        <pt x="699" y="536" on="0"/>
        <pt x="775" y="665" on="0"/>
        <pt x="775" y="785" on="1"/>
        <pt x="775" y="915" on="0"/>
        <pt x="695" y="1035" on="0"/>
        <pt x="606" y="1035" on="1"/>
      </contour>
      <contour>
        <pt x="386" y="-69" on="0"/>
        <pt x="386" y="-158" on="1"/>
        <pt x="386" y="-398" on="0"/>
        <pt x="642" y="-398" on="1"/>
        <pt x="644" y="-398" on="1"/>
        <pt x="711" y="-398" on="0"/>
        <pt x="834" y="-348" on="0"/>
        <pt x="911" y="-248" on="0"/>
        <pt x="911" y="-176" on="1"/>
        <pt x="911" y="-115" on="0"/>
        <pt x="874" y="-45" on="0"/>
        <pt x="786" y="-14" on="0"/>
        <pt x="708" y="-14" on="1"/>
        <pt x="524" y="-14" on="1"/>
        <pt x="473" y="-14" on="0"/>
        <pt x="415" y="-7" on="1"/>
      </contour>
    </TTGlyph>
    <TTGlyph name="gbreve" xMin="69" yMin="-552" xMax="1276" yMax="1764">
      <component glyphName="g" x="0" y="0" flags="0x0"/>
      <component glyphName="breve" x="98" y="0" flags="0x0"/>
    </TTGlyph>
    <TTGlyph name="gcircumflex" xMin="69" yMin="-552" xMax="1276" yMax="1792">
      <component glyphName="circumflex" x="90" y="0" flags="0x0"/>
      <component glyphName="g" x="0" y="0" flags="0x0"/>
    </TTGlyph>
</ttFont>
